<svg width="29" height="29" viewBox="0 0 29 29" fill="none" xmlns="http://www.w3.org/2000/svg">
<path d="M4.98371 7.78786C5.08828 7.41095 5.47861 7.19017 5.85553 7.29474L7.46439 7.74112C8.33023 7.98135 9.01546 8.64882 9.25449 9.51406L11.2858 16.8667L11.4353 17.3828C12.0332 17.606 12.5467 18.0241 12.8726 18.5795L13.1653 18.4891L21.5417 16.3123C21.9203 16.2139 22.3069 16.441 22.4053 16.8196C22.5037 17.1982 22.2766 17.5849 21.898 17.6832L13.5526 19.852L13.2422 19.9479C13.2358 21.1481 12.4078 22.2442 11.1548 22.5698C9.65287 22.9602 8.10907 22.0957 7.70663 20.639C7.30419 19.1823 8.1955 17.6849 9.69744 17.2946C9.77186 17.2753 9.8464 17.259 9.92088 17.2457L7.88914 9.89126C7.78689 9.52117 7.48759 9.21757 7.08569 9.10606L5.47683 8.65968C5.09991 8.55511 4.87913 8.16478 4.98371 7.78786Z" fill="#7C0DC6"/>
<path opacity="0.5" d="M11.865 11.0775L12.3508 12.8359C12.8088 14.4937 13.0378 15.3227 13.7111 15.6997C14.3844 16.0767 15.2391 15.8546 16.9484 15.4104L18.7614 14.9392C20.4707 14.495 21.3253 14.2729 21.7141 13.6199C22.1028 12.9669 21.8738 12.1379 21.4158 10.4801L20.93 8.72167C20.472 7.06383 20.243 6.23491 19.5697 5.85788C18.8964 5.48086 18.0417 5.70297 16.3324 6.14718L14.5194 6.61835C12.8101 7.06257 11.9555 7.28468 11.5667 7.9377C11.178 8.59073 11.407 9.41965 11.865 11.0775Z" fill="#7C0DC6"/>
</svg>
