<svg width="29" height="29" viewBox="0 0 29 29" fill="none" xmlns="http://www.w3.org/2000/svg">
<path opacity="0.5" d="M14.165 18.0063L10.6035 21.6939C10.0934 22.222 9.83842 22.4861 9.62244 22.5775C9.1303 22.7857 8.58439 22.6075 8.3255 22.1541C8.2119 21.9552 8.17649 21.5963 8.10569 20.8786C8.06571 20.4734 8.04572 20.2708 7.98505 20.1011C7.84922 19.7212 7.56379 19.4256 7.19687 19.285C7.03297 19.2222 6.83729 19.2015 6.44595 19.1601L6.44592 19.1601C5.75276 19.0868 5.40618 19.0501 5.21403 18.9325C4.77617 18.6644 4.60408 18.0992 4.80517 17.5896C4.89342 17.366 5.14845 17.102 5.6585 16.5738L7.98505 14.1649L9.15433 12.9956L14.165 18.0063L19.1757 12.9956L20.345 14.1649L22.6715 16.5738C23.1816 17.102 23.4366 17.366 23.5248 17.5896C23.7259 18.0992 23.5538 18.6644 23.116 18.9325C22.9238 19.0501 22.5772 19.0868 21.8841 19.1601C21.4927 19.2015 21.297 19.2222 21.1331 19.285C20.7662 19.4256 20.4808 19.7212 20.345 20.1011C20.2843 20.2708 20.2643 20.4734 20.2243 20.8786C20.1535 21.5963 20.1181 21.9552 20.0045 22.1541C19.7456 22.6075 19.1997 22.7857 18.7076 22.5775C18.4916 22.4861 18.2366 22.222 17.7265 21.6939L14.165 18.0063Z" fill="#7C0DC6"/>
<path fill-rule="evenodd" clip-rule="evenodd" d="M14.165 17.9423C17.8158 17.9423 20.7753 14.9828 20.7753 11.332C20.7753 7.68123 17.8158 4.72168 14.165 4.72168C10.5142 4.72168 7.55466 7.68123 7.55466 11.332C7.55466 14.9828 10.5142 17.9423 14.165 17.9423ZM14.165 8.49901C13.8968 8.49901 13.7173 8.82088 13.3585 9.46461L13.2657 9.63115C13.1637 9.81407 13.1127 9.90554 13.0332 9.96589C12.9537 10.0262 12.8547 10.0486 12.6567 10.0934L12.4764 10.1342C11.7796 10.2919 11.4312 10.3707 11.3483 10.6373C11.2654 10.9038 11.5029 11.1816 11.9779 11.7371L12.1009 11.8808C12.2358 12.0387 12.3033 12.1176 12.3337 12.2153C12.3641 12.3129 12.3539 12.4182 12.3335 12.6288L12.3149 12.8206C12.2431 13.5618 12.2071 13.9323 12.4242 14.0971C12.6412 14.2618 12.9674 14.1116 13.6198 13.8112L13.7886 13.7335C13.974 13.6481 14.0667 13.6055 14.165 13.6055C14.2633 13.6055 14.356 13.6481 14.5414 13.7335L14.7102 13.8112C15.3626 14.1116 15.6888 14.2618 15.9058 14.0971C16.1228 13.9323 16.0869 13.5618 16.0151 12.8206L15.9965 12.6288C15.9761 12.4182 15.9659 12.3129 15.9963 12.2153C16.0267 12.1176 16.0941 12.0387 16.2291 11.8808L16.352 11.7371C16.8271 11.1816 17.0646 10.9038 16.9817 10.6373C16.8988 10.3707 16.5504 10.2919 15.8536 10.1342L15.6733 10.0934C15.4753 10.0486 15.3763 10.0262 15.2968 9.96589C15.2173 9.90554 15.1663 9.81407 15.0643 9.63115L14.9715 9.46461C14.6127 8.82088 14.4332 8.49901 14.165 8.49901Z" fill="#7C0DC6"/>
</svg>
