<svg width="29" height="29" viewBox="0 0 29 29" fill="none" xmlns="http://www.w3.org/2000/svg">
<path d="M13.1512 5.06182C13.4849 5.26584 13.5901 5.70178 13.3861 6.03551C13.238 6.27769 13.2751 6.58976 13.4758 6.79046L13.5682 6.88289C14.1241 7.43878 14.3291 8.25542 14.1016 9.00794C13.9885 9.38236 13.5932 9.59414 13.2188 9.48096C12.8443 9.36778 12.6326 8.9725 12.7457 8.59807C12.8221 8.34539 12.7533 8.07117 12.5666 7.88451L12.4742 7.79208C11.8108 7.12867 11.6881 6.09717 12.1775 5.29669C12.3815 4.96295 12.8175 4.8578 13.1512 5.06182Z" fill="#7C0DC6"/>
<path d="M21.6958 9.48753C21.5651 9.5379 21.4492 9.65376 21.2175 9.88549C20.9858 10.1172 20.8699 10.2331 20.8195 10.3638C20.7606 10.5168 20.7606 10.6862 20.8195 10.8391C20.8699 10.9698 20.9858 11.0857 21.2175 11.3174C21.4492 11.5492 21.5651 11.665 21.6958 11.7154C21.8488 11.7743 22.0182 11.7743 22.1711 11.7154C22.3018 11.665 22.4177 11.5492 22.6494 11.3174C22.8812 11.0857 22.997 10.9698 23.0474 10.8391C23.1063 10.6862 23.1063 10.5168 23.0474 10.3638C22.997 10.2331 22.8812 10.1172 22.6494 9.88549C22.4177 9.65376 22.3018 9.5379 22.1711 9.48753C22.0182 9.4286 21.8488 9.4286 21.6958 9.48753Z" fill="#7C0DC6"/>
<path d="M23.0495 14.6935C22.7079 14.5441 22.3106 14.6068 22.0317 14.8542C21.2675 15.5318 20.1554 15.6445 19.2709 15.1338L19.0699 15.0177C18.7311 14.8221 18.615 14.389 18.8106 14.0502C19.0062 13.7115 19.4394 13.5954 19.7781 13.791L19.9791 13.907C20.3356 14.1129 20.7839 14.0675 21.0919 13.7944C21.7839 13.1807 22.7695 13.0251 23.6169 13.3956L23.8922 13.5159C24.2506 13.6727 24.4141 14.0902 24.2574 14.4486C24.1007 14.807 23.6831 14.9705 23.3247 14.8138L23.0495 14.6935Z" fill="#7C0DC6"/>
<path opacity="0.7" d="M15.6391 6.98474C15.829 6.79487 15.9239 6.69994 16.0337 6.66514C16.1265 6.63571 16.2262 6.63571 16.3191 6.66514C16.4288 6.69994 16.5238 6.79487 16.7136 6.98474C16.9035 7.1746 16.9984 7.26954 17.0332 7.3793C17.0626 7.47215 17.0626 7.57182 17.0332 7.66467C16.9984 7.77443 16.9035 7.86936 16.7136 8.05923C16.5238 8.24909 16.4288 8.34403 16.3191 8.37882C16.2262 8.40826 16.1265 8.40826 16.0337 8.37882C15.9239 8.34403 15.829 8.24909 15.6391 8.05923C15.4493 7.86936 15.3543 7.77443 15.3195 7.66467C15.2901 7.57182 15.2901 7.47215 15.3195 7.3793C15.3543 7.26953 15.4493 7.1746 15.6391 6.98474Z" fill="#7C0DC6"/>
<path opacity="0.7" d="M20.8296 17.2939C21.0274 17.0961 21.3481 17.0961 21.546 17.2939C21.7438 17.4917 21.7438 17.8124 21.546 18.0102C21.3481 18.208 21.0274 18.208 20.8296 18.0102C20.6318 17.8124 20.6318 17.4917 20.8296 17.2939Z" fill="#7C0DC6"/>
<g opacity="0.5">
<path d="M9.37405 6.55442C9.57186 6.35661 9.89257 6.35661 10.0904 6.55442C10.2882 6.75223 10.2882 7.07294 10.0904 7.27075C9.89257 7.46856 9.57186 7.46856 9.37405 7.27075C9.17624 7.07294 9.17624 6.75223 9.37405 6.55442Z" fill="#7C0DC6"/>
<path d="M19.537 7.2918C19.9206 7.36851 20.1694 7.74163 20.0926 8.12519L19.9567 8.80505C19.7695 9.74071 19.0954 10.5044 18.1902 10.8061C17.7672 10.9471 17.4522 11.3039 17.3647 11.7411L17.2288 12.421C17.1521 12.8046 16.7789 13.0533 16.3954 12.9766C16.0118 12.8999 15.7631 12.5268 15.8398 12.1432L15.9757 11.4633C16.1629 10.5277 16.837 9.76404 17.7422 9.46229C18.1652 9.3213 18.4802 8.96446 18.5677 8.52725L18.7036 7.84739C18.7804 7.46383 19.1535 7.21508 19.537 7.2918Z" fill="#7C0DC6"/>
</g>
<path opacity="0.2" d="M19.3587 12.0323C19.5565 11.8345 19.8772 11.8345 20.075 12.0323C20.2728 12.2301 20.2728 12.5508 20.075 12.7486C19.8772 12.9464 19.5565 12.9464 19.3587 12.7486C19.1609 12.5508 19.1609 12.2301 19.3587 12.0323Z" fill="#7C0DC6"/>
<path opacity="0.5" d="M6.62173 17.7174L8.21718 12.931C8.94055 10.7609 9.30224 9.67585 10.158 9.47382C11.0139 9.27179 11.8226 10.0805 13.4401 11.6981L16.631 14.889C18.2485 16.5065 19.0573 17.3152 18.8553 18.171C18.6532 19.0268 17.5682 19.3885 15.398 20.1119L10.6117 21.7073L10.6117 21.7074C8.00023 22.5778 6.69449 23.0131 6.00524 22.3238C5.31599 21.6346 5.75124 20.3288 6.62173 17.7174Z" fill="#7C0DC6"/>
<path d="M11.1433 9.91951L11.1911 9.68812C10.8199 9.47031 10.4925 9.39486 10.158 9.47382C10.0216 9.50602 9.8978 9.56065 9.78304 9.63853L10.4407 9.7744C9.98881 9.68104 9.83527 9.64927 9.78304 9.63853C9.77206 9.64599 9.76106 9.65372 9.75024 9.6616L9.74523 9.68637C9.73842 9.72028 9.72857 9.76984 9.71616 9.83358C9.69135 9.96106 9.65631 10.1454 9.61492 10.375C9.53221 10.834 9.4239 11.4754 9.32136 12.2062C9.1182 13.6541 8.93003 15.504 9.02697 16.9823C9.08563 17.8768 9.27173 18.9864 9.43782 19.8535C9.52164 20.2911 9.60188 20.6746 9.66121 20.9489C9.69089 21.0861 9.71538 21.1963 9.73253 21.2724L9.75249 21.3603L9.75785 21.3836L9.75968 21.3915C9.75969 21.3916 9.75985 21.3923 10.4497 21.2318L9.75968 21.3915L9.88902 21.9474C10.1181 21.8719 10.3588 21.7917 10.6117 21.7074L11.2389 21.4983L11.138 21.0649L11.1332 21.044L11.1144 20.9611C11.0981 20.8885 11.0744 20.7824 11.0457 20.6495C10.9882 20.3835 10.9103 20.0112 10.829 19.587C10.6649 18.7305 10.4931 17.6922 10.4404 16.8896C10.3535 15.5639 10.5233 13.834 10.7241 12.403C10.8235 11.6944 10.9287 11.0716 11.009 10.6263C11.0491 10.4037 11.0829 10.2259 11.1066 10.1042C11.1184 10.0434 11.1277 9.99659 11.134 9.96533L11.1411 9.93025L11.1428 9.92178L11.1433 9.91951Z" fill="#7C0DC6"/>
<path d="M15.1465 20.1958L13.8027 20.6437L13.7154 20.3812L14.3875 20.1578C13.7154 20.3812 13.7154 20.3813 13.7154 20.3812L13.7145 20.3786L13.7126 20.3728L13.7059 20.3523C13.7002 20.3346 13.692 20.3092 13.6817 20.2767C13.661 20.2117 13.6319 20.1182 13.5971 20.002C13.5277 19.77 13.4351 19.4454 13.3424 19.0741C13.161 18.3477 12.9633 17.3823 12.9633 16.578C12.9633 15.7736 13.161 14.8082 13.3424 14.0818C13.4351 13.7105 13.5277 13.3859 13.5971 13.1539C13.6319 13.0377 13.661 12.9442 13.6817 12.8792C13.692 12.8467 13.7002 12.8213 13.7059 12.8036L13.7126 12.7831L13.7145 12.7773L13.7151 12.7756C13.7151 12.7756 13.7154 12.7747 14.3875 12.9981L13.7154 12.7747L13.9153 12.1733L15.0361 13.2941C15.0347 13.2984 15.0333 13.303 15.0318 13.3077C15.0133 13.3661 14.9865 13.452 14.9541 13.5601C14.8894 13.7765 14.8029 14.0795 14.7167 14.425C14.5401 15.1321 14.3798 15.9566 14.3798 16.578C14.3798 17.1993 14.5401 18.0238 14.7167 18.7309C14.8029 19.0764 14.8894 19.3794 14.9541 19.5958C14.9865 19.7039 15.0133 19.7898 15.0318 19.8482C15.0411 19.8774 15.0482 19.8996 15.053 19.9142L15.0583 19.9303L15.0594 19.9339L15.1465 20.1958Z" fill="#7C0DC6"/>
</svg>
