<svg width="30" height="30" viewBox="0 0 30 30" fill="none" xmlns="http://www.w3.org/2000/svg">
<path opacity="0.5" d="M15.0001 18.7778C9.5602 18.7778 8.5965 13.3563 8.42578 9.05613C8.3783 7.85999 8.35455 7.26193 8.80384 6.70858C9.25313 6.15523 9.79086 6.06451 10.8663 5.88305C11.9279 5.70393 13.3157 5.55557 15.0001 5.55557C16.6846 5.55557 18.0723 5.70393 19.134 5.88305C20.2094 6.06451 20.7472 6.15523 21.1964 6.70858C21.6457 7.26193 21.622 7.85999 21.5745 9.05613C21.4038 13.3563 20.4401 18.7778 15.0001 18.7778Z" fill="#7C0DC6"/>
<path d="M20.327 15.3986L22.9871 13.9207C23.6977 13.5259 24.053 13.3285 24.2487 12.996C24.4444 12.6634 24.4444 12.257 24.4444 11.4441L24.4444 11.3756C24.4444 10.3899 24.4444 9.89711 24.177 9.52609C23.9096 9.15507 23.4421 8.99923 22.507 8.68754L21.6111 8.3889L21.5951 8.46884C21.5907 8.64759 21.583 8.8423 21.5745 9.05611C21.4911 11.1569 21.2184 13.5254 20.327 15.3986Z" fill="#7C0DC6"/>
<path d="M8.42579 9.05612C8.50919 11.157 8.78189 13.5256 9.67341 15.3988L7.01288 13.9207C6.30226 13.5259 5.94695 13.3285 5.75127 12.996C5.55559 12.6634 5.55558 12.257 5.55556 11.4441L5.55555 11.3756C5.55553 10.3899 5.55552 9.89711 5.82292 9.52609C6.09033 9.15507 6.55786 8.99923 7.49291 8.68754L8.38883 8.3889L8.40521 8.47079C8.40962 8.64901 8.41733 8.84308 8.42579 9.05612Z" fill="#7C0DC6"/>
<path fill-rule="evenodd" clip-rule="evenodd" d="M8.625 24.4444C8.625 24.0532 8.94213 23.7361 9.33333 23.7361H20.6667C21.0579 23.7361 21.375 24.0532 21.375 24.4444C21.375 24.8356 21.0579 25.1528 20.6667 25.1528H9.33333C8.94213 25.1528 8.625 24.8356 8.625 24.4444Z" fill="#7C0DC6"/>
<path opacity="0.5" d="M18.2656 23.7361H11.7346L12.0149 22.0835C12.1032 21.642 12.4908 21.3243 12.941 21.3243H17.0591C17.5093 21.3243 17.897 21.642 17.9852 22.0835L18.2656 23.7361Z" fill="#7C0DC6"/>
<path d="M15.0001 18.7779C14.755 18.7779 14.519 18.7669 14.2917 18.7455V21.3243H15.7083V18.7455C15.4811 18.7669 15.2452 18.7779 15.0001 18.7779Z" fill="#7C0DC6"/>
<path d="M14.1934 9.35461C14.5523 8.7108 14.7317 8.3889 15 8.3889C15.2683 8.3889 15.4477 8.7108 15.8066 9.35461L15.8994 9.52117C16.0014 9.70412 16.0524 9.79559 16.1319 9.85595C16.2114 9.9163 16.3105 9.93871 16.5085 9.98351L16.6888 10.0243C17.3857 10.182 17.7342 10.2608 17.8171 10.5274C17.9 10.794 17.6624 11.0718 17.1873 11.6274L17.0644 11.7711C16.9294 11.929 16.8619 12.0079 16.8315 12.1056C16.8011 12.2032 16.8113 12.3086 16.8318 12.5192L16.8503 12.711C16.9222 13.4522 16.9581 13.8229 16.741 13.9876C16.524 14.1524 16.1977 14.0022 15.5452 13.7017L15.3764 13.624C15.191 13.5386 15.0983 13.4959 15 13.4959C14.9017 13.4959 14.809 13.5386 14.6236 13.624L14.4548 13.7017C13.8023 14.0022 13.476 14.1524 13.259 13.9876C13.0419 13.8229 13.0778 13.4522 13.1497 12.711L13.1682 12.5192C13.1887 12.3086 13.1989 12.2032 13.1685 12.1056C13.1381 12.0079 13.0706 11.929 12.9356 11.7711L12.8127 11.6274C12.3376 11.0718 12.1 10.794 12.1829 10.5274C12.2658 10.2608 12.6143 10.182 13.3112 10.0243L13.4915 9.98351C13.6895 9.93871 13.7886 9.9163 13.8681 9.85595C13.9476 9.79559 13.9986 9.70412 14.1005 9.52117L14.1934 9.35461Z" fill="#7C0DC6"/>
</svg>
