<svg width="24" height="24" viewBox="0 0 24 24" fill="none" xmlns="http://www.w3.org/2000/svg">
<path fill-rule="evenodd" clip-rule="evenodd" d="M12 20C16.4183 20 20 16.4183 20 12C20 7.58172 16.4183 4 12 4C7.58172 4 4 7.58172 4 12C4 16.4183 7.58172 20 12 20ZM12.3757 9.17574C12.6101 8.94142 12.99 8.94142 13.2243 9.17574L15.6243 11.5757C15.8586 11.8101 15.8586 12.1899 15.6243 12.4243L13.2243 14.8243C12.99 15.0586 12.6101 15.0586 12.3757 14.8243C12.1414 14.5899 12.1414 14.2101 12.3757 13.9757L13.7515 12.6H8.8C8.46863 12.6 8.2 12.3314 8.2 12C8.2 11.6686 8.46863 11.4 8.8 11.4H13.7515L12.3757 10.0243C12.1414 9.78995 12.1414 9.41005 12.3757 9.17574Z" fill="white"/>
</svg>
