<svg width="41" height="40" viewBox="0 0 41 40" fill="none" xmlns="http://www.w3.org/2000/svg">
<path d="M33.8327 20.0013C33.8327 12.6375 27.8631 6.66797 20.4993 6.66797C13.1356 6.66797 7.16602 12.6375 7.16602 20.0013C7.16602 27.3651 13.1356 33.3346 20.4993 33.3346C27.8631 33.3346 33.8327 27.3651 33.8327 20.0013Z" fill="#ED5433"/>
<path d="M20.4993 12.332C21.0516 12.332 21.4993 12.7797 21.4993 13.332V21.332C21.4993 21.8843 21.0516 22.332 20.4993 22.332C19.9471 22.332 19.4993 21.8843 19.4993 21.332V13.332C19.4993 12.7797 19.9471 12.332 20.4993 12.332Z" fill="white"/>
<path d="M20.4993 26.6654C21.2357 26.6654 21.8327 26.0684 21.8327 25.332C21.8327 24.5957 21.2357 23.9987 20.4993 23.9987C19.763 23.9987 19.166 24.5957 19.166 25.332C19.166 26.0684 19.763 26.6654 20.4993 26.6654Z" fill="white"/>
</svg>
