<svg width="64" height="64" viewBox="0 0 64 64" fill="none" xmlns="http://www.w3.org/2000/svg">
<path opacity="0.5" d="M53.3334 32.0001C53.3334 20.2181 43.7822 10.6668 32.0001 10.6668C20.218 10.6668 10.6667 20.2181 10.6667 32.0001C10.6667 43.7822 20.218 53.3335 32.0001 53.3335C43.7822 53.3335 53.3334 43.7822 53.3334 32.0001Z" fill="white"/>
<path d="M32 19.7335C32.8837 19.7335 33.6 20.4498 33.6 21.3335V34.1335C33.6 35.0171 32.8837 35.7335 32 35.7335C31.1164 35.7335 30.4 35.0171 30.4 34.1335V21.3335C30.4 20.4498 31.1164 19.7335 32 19.7335Z" fill="white"/>
<path d="M32 42.6668C33.1782 42.6668 34.1334 41.7117 34.1334 40.5335C34.1334 39.3553 33.1782 38.4001 32 38.4001C30.8218 38.4001 29.8667 39.3553 29.8667 40.5335C29.8667 41.7117 30.8218 42.6668 32 42.6668Z" fill="white"/>
</svg>
