<svg width="40" height="40" viewBox="0 0 40 40" fill="none" xmlns="http://www.w3.org/2000/svg">
<path d="M33.3334 20.0003C33.3334 12.6365 27.3639 6.66699 20.0001 6.66699C12.6363 6.66699 6.66675 12.6365 6.66675 20.0003C6.66675 27.3641 12.6363 33.3337 20.0001 33.3337C27.3639 33.3337 33.3334 27.3641 33.3334 20.0003Z" fill="#EDA133"/>
<path d="M20.0001 12.333C20.5524 12.333 21.0001 12.7807 21.0001 13.333V21.333C21.0001 21.8853 20.5524 22.333 20.0001 22.333C19.4478 22.333 19.0001 21.8853 19.0001 21.333V13.333C19.0001 12.7807 19.4478 12.333 20.0001 12.333Z" fill="white"/>
<path d="M20.0001 26.6663C20.7365 26.6663 21.3334 26.0694 21.3334 25.333C21.3334 24.5966 20.7365 23.9997 20.0001 23.9997C19.2637 23.9997 18.6667 24.5966 18.6667 25.333C18.6667 26.0694 19.2637 26.6663 20.0001 26.6663Z" fill="white"/>
</svg>
