<svg width="230" height="167" viewBox="0 0 230 167" fill="none" xmlns="http://www.w3.org/2000/svg">
<g clip-path="url(#clip0_676_2292)">
<mask id="mask0_676_2292" style="mask-type:luminance" maskUnits="userSpaceOnUse" x="0" y="0" width="272" height="201">
<path d="M-9.53674e-06 0.126465H272V200.691H-9.53674e-06V0.126465Z" fill="white"/>
</mask>
<g mask="url(#mask0_676_2292)">
<path d="M272 95.9326V104.885C271.915 105.371 271.807 105.848 271.751 106.331C271.288 110.226 270.988 114.145 270.348 118.01C268.257 130.573 263.737 142.25 257.021 153.047C246.822 169.439 233.033 181.94 215.706 190.476C205.705 195.427 194.923 198.608 183.836 199.879C181.374 200.163 178.913 200.418 176.451 200.689H80.8948C80.4135 200.6 79.9344 200.456 79.4486 200.427C69.8133 199.821 60.5429 197.625 51.7069 193.76C32.4698 185.344 18.1266 171.705 8.73757 152.931C4.58872 144.65 1.90376 135.714 0.801439 126.518C0.530558 124.282 0.266394 122.048 -9.53674e-06 119.814V111.128C0.0917765 110.646 0.232813 110.165 0.261916 109.682C0.761143 101.336 2.47373 93.2311 5.48924 85.4421C13.6045 64.4836 27.7507 48.9394 47.8541 38.8786C58.2841 33.6569 69.4014 30.9129 81.0291 30.3041C86.7221 30.0087 92.4106 30.3265 98.07 31.0852C98.5826 31.1546 99.3214 30.9263 99.6774 30.5615C107.815 22.2511 117.081 15.5007 127.529 10.3841C137.663 5.42204 148.328 2.22366 159.555 0.943408C162.197 0.641251 164.845 0.392811 167.492 0.119751H175.638C176.171 0.202564 176.706 0.296569 177.239 0.359238C181.275 0.82926 185.334 1.1247 189.332 1.79392C201.806 3.88664 213.418 8.36304 224.164 15.0127C240.641 25.21 253.197 39.0129 261.776 56.3903C266.737 66.3935 269.922 77.1824 271.19 88.2757C271.481 90.8295 271.729 93.3833 272 95.9326ZM119.915 38.0013C120.078 38.2161 120.119 38.3169 120.188 38.3504C125.783 41.1074 131.13 44.34 136.17 48.0127C136.488 48.2433 137.276 48.147 137.661 47.9053C151.514 39.1293 166.531 36.101 182.663 38.9615C198.47 41.7637 211.334 49.66 221.162 62.2723C232.29 76.5453 236.533 92.6849 233.461 110.642C231.401 122.677 226.579 133.474 218.384 142.518C203.429 159.007 184.703 165.827 162.658 162.94C149.087 161.163 137.372 155.31 127.677 145.513C115.232 132.946 102.706 120.461 90.2256 107.927C88.5623 106.257 86.7109 104.914 84.3155 104.621C80.1314 104.109 76.3346 106.197 74.528 109.955C72.9161 113.31 73.1243 117.093 76.6212 120.53C90.5346 134.186 104.325 147.966 118.223 161.635C120.601 163.986 123.152 166.157 125.854 168.128C136.007 175.498 147.453 179.574 159.849 181.215C169.578 182.499 179.231 182.224 188.811 180.071C207.083 175.968 222.218 166.644 234.139 152.257C243.983 140.368 249.936 126.706 252.011 111.367C253.213 102.621 252.962 93.7354 251.268 85.0706C248.503 70.9028 242.508 58.2256 232.901 47.4353C214.573 26.8595 191.515 17.6739 164.075 19.7241C153.52 20.512 143.535 23.6119 134.14 28.5292C129.069 31.1629 124.3 34.3389 119.915 38.0013ZM113.201 181.64C112.824 181.29 112.448 180.939 112.073 180.586C106.384 175.216 100.665 169.88 95.0433 164.442C93.9553 163.39 92.9546 162.877 91.4144 162.913C85.7214 163.052 80.024 163.076 74.4138 161.809C46.5198 155.502 30.323 125.181 40.603 98.502C48.7115 77.4652 71.1588 64.6537 93.2949 68.6042C103.217 70.3746 111.925 74.5734 119.073 81.9438C127.791 90.9414 136.768 99.6815 145.579 108.587C147.585 110.615 149.889 111.54 152.667 111.143C156.258 110.631 159.117 108.921 160.415 105.4C161.687 101.935 161.071 98.6542 158.447 95.9975C149.199 86.6306 140.171 77.0287 130.549 68.0603C111.887 50.6583 89.8809 45.4836 65.5419 52.8831C32.8057 62.8274 13.647 96.6242 21.1264 129.973C27.9432 160.359 54.5231 181.685 85.6251 181.712C94.309 181.72 102.995 181.716 111.679 181.712C112.109 181.712 112.539 181.673 113.201 181.64Z" fill="#DA1F26"/>
</g>
</g>
<defs>
<clipPath id="clip0_676_2292">
<rect width="272" height="201" fill="white"/>
</clipPath>
</defs>
</svg>
