<svg width="230" height="170" viewBox="0 0 230 170" fill="none" xmlns="http://www.w3.org/2000/svg">
<g clip-path="url(#clip0_691_847)">
<path d="M92.4792 9.1842L91.1854 9.97531C89.149 11.2219 87.2083 12.6123 85.3875 14.1226L89.125 11.5096H120.75L126.5 55.0683L97.75 83.8357L69 103.829V126.891C69 143.001 77.4094 157.936 91.1854 166.254L121.445 184.594L57.5 221.92H45.1615L22.1854 207.991C8.40937 199.649 0 184.738 0 168.628V91.0995C0 74.9897 8.40937 60.0307 22.1854 51.7121L91.1854 9.95134C91.6167 9.67964 92.0479 9.42393 92.4792 9.1842Z" fill="url(#paint0_radial_691_847)"/>
<path d="M92.4792 9.1842L91.1854 9.97531C89.149 11.2219 87.2083 12.6123 85.3875 14.1226L89.125 11.5096H120.75L126.5 55.0683L97.75 83.8357L69 103.829V126.891C69 143.001 77.4094 157.936 91.1854 166.254L121.445 184.594L57.5 221.92H45.1615L22.1854 207.991C8.40937 199.649 0 184.738 0 168.628V91.0995C0 74.9897 8.40937 60.0307 22.1854 51.7121L91.1854 9.95134C91.6167 9.67964 92.0479 9.42393 92.4792 9.1842Z" fill="url(#paint1_linear_691_847)"/>
<path d="M224.25 141.371L230 150.001V168.628C230 184.714 221.591 199.649 207.815 207.991L138.815 249.8C124.176 258.67 105.824 258.67 91.1854 249.8L23.7906 208.974C38.1417 216.909 55.7031 216.597 69.8146 208.039L138.815 166.254C152.591 157.912 161 142.977 161 126.867V101.096L224.25 141.371Z" fill="url(#paint2_radial_691_847)"/>
<path d="M224.25 141.371L230 150.001V168.628C230 184.714 221.591 199.649 207.815 207.991L138.815 249.8C124.176 258.67 105.824 258.67 91.1854 249.8L23.7906 208.974C38.1417 216.909 55.7031 216.597 69.8146 208.039L138.815 166.254C152.591 157.912 161 142.977 161 126.867V101.096L224.25 141.371Z" fill="url(#paint3_linear_691_847)"/>
<path d="M230 91.0995V168.628C230 169.123 229.992 169.627 229.976 170.138C229.473 154.604 221.159 140.34 207.815 132.261L138.815 90.5002C124.176 81.6302 105.824 81.6302 91.1854 90.5002L69 103.925V49.3627C69 33.2529 77.4094 18.3178 91.1854 9.97528L92.551 9.13623C106.974 1.08134 124.631 1.36902 138.815 9.95131L207.815 51.7121C221.591 60.0306 230 74.9897 230 91.0995Z" fill="url(#paint4_radial_691_847)"/>
<path d="M230 91.0995V168.628C230 169.123 229.992 169.627 229.976 170.138C229.473 154.604 221.159 140.34 207.815 132.261L138.815 90.5002C124.176 81.6302 105.824 81.6302 91.1854 90.5002L69 103.925V49.3627C69 33.2529 77.4094 18.3178 91.1854 9.97528L92.551 9.13623C106.974 1.08134 124.631 1.36902 138.815 9.95131L207.815 51.7121C221.591 60.0306 230 74.9897 230 91.0995Z" fill="url(#paint5_linear_691_847)"/>
</g>
<defs>
<radialGradient id="paint0_radial_691_847" cx="0" cy="0" r="1" gradientUnits="userSpaceOnUse" gradientTransform="translate(77.1458 52.9826) scale(191.858 191.975)">
<stop offset="0.064" stop-color="#AE7FE2"/>
<stop offset="1" stop-color="#0078D4"/>
</radialGradient>
<linearGradient id="paint1_linear_691_847" x1="77.6969" y1="209.645" x2="50.2876" y2="162.289" gradientUnits="userSpaceOnUse">
<stop stop-color="#114A8B"/>
<stop offset="1" stop-color="#0078D4" stop-opacity="0"/>
</linearGradient>
<radialGradient id="paint2_radial_691_847" cx="0" cy="0" r="1" gradientUnits="userSpaceOnUse" gradientTransform="translate(36.9677 200.919) scale(178.538 178.646)">
<stop offset="0.134" stop-color="#D59DFF"/>
<stop offset="1" stop-color="#5E438F"/>
</radialGradient>
<linearGradient id="paint3_linear_691_847" x1="209.06" y1="137.775" x2="179.688" y2="179.854" gradientUnits="userSpaceOnUse">
<stop stop-color="#493474"/>
<stop offset="1" stop-color="#8C66BA" stop-opacity="0"/>
</linearGradient>
<radialGradient id="paint4_radial_691_847" cx="0" cy="0" r="1" gradientUnits="userSpaceOnUse" gradientTransform="translate(213.061 144.271) scale(143.295 143.382)">
<stop offset="0.058" stop-color="#50E6FF"/>
<stop offset="1" stop-color="#436DCD"/>
</radialGradient>
<linearGradient id="paint5_linear_691_847" x1="74.6063" y1="9.37596" x2="117.803" y2="9.37596" gradientUnits="userSpaceOnUse">
<stop stop-color="#2D3F80"/>
<stop offset="1" stop-color="#436DCD" stop-opacity="0"/>
</linearGradient>
<clipPath id="clip0_691_847">
<rect width="230" height="259.751" fill="white"/>
</clipPath>
</defs>
</svg>
