<svg width="24" height="24" viewBox="0 0 24 24" fill="none" xmlns="http://www.w3.org/2000/svg">
<path fill-rule="evenodd" clip-rule="evenodd" d="M12.8693 19.5102L13.303 18.7775C13.6394 18.2092 13.8076 17.925 14.0777 17.7679C14.3479 17.6107 14.688 17.6049 15.3683 17.5932C16.3726 17.5759 17.0025 17.5143 17.5307 17.2955C18.5108 16.8895 19.2895 16.1108 19.6955 15.1307C20 14.3956 20 13.4638 20 11.6V10.8C20 8.18126 20 6.87188 19.4106 5.91001C19.0807 5.37178 18.6282 4.91926 18.09 4.58944C17.1281 4 15.8187 4 13.2 4H10.8C8.18126 4 6.87188 4 5.91001 4.58944C5.37178 4.91926 4.91926 5.37178 4.58944 5.91001C4 6.87188 4 8.18126 4 10.8V11.6C4 13.4638 4 14.3956 4.30448 15.1307C4.71046 16.1108 5.48915 16.8895 6.46927 17.2955C6.99751 17.5143 7.62737 17.5759 8.63166 17.5932C9.31194 17.6049 9.65207 17.6107 9.92223 17.7679C10.1924 17.925 10.3606 18.2092 10.697 18.7775L11.1306 19.5102C11.5172 20.1632 12.4828 20.1632 12.8693 19.5102ZM12 7.4C12.3314 7.4 12.6 7.66863 12.6 8V14.4C12.6 14.7314 12.3314 15 12 15C11.6686 15 11.4 14.7314 11.4 14.4V8C11.4 7.66863 11.6686 7.4 12 7.4ZM9.4 9.6C9.4 9.26863 9.13137 9 8.8 9C8.46863 9 8.2 9.26863 8.2 9.6V12.8C8.2 13.1314 8.46863 13.4 8.8 13.4C9.13137 13.4 9.4 13.1314 9.4 12.8V9.6ZM15.2 9C15.5314 9 15.8 9.26863 15.8 9.6V12.8C15.8 13.1314 15.5314 13.4 15.2 13.4C14.8686 13.4 14.6 13.1314 14.6 12.8V9.6C14.6 9.26863 14.8686 9 15.2 9Z" fill="#161616"/>
</svg>
