<svg width="24" height="24" viewBox="0 0 24 24" fill="none" xmlns="http://www.w3.org/2000/svg">
<path opacity="0.5" d="M12 20C8.22876 20 6.34315 20 5.17157 18.8284C4 17.6569 4 15.7712 4 12C4 8.22876 4 6.34315 5.17157 5.17157C6.34315 4 8.22876 4 12 4C15.7712 4 17.6569 4 18.8284 5.17157C20 6.34315 20 8.22876 20 12C20 15.7712 20 17.6569 18.8284 18.8284C17.6569 20 15.7712 20 12 20Z" fill="#219653"/>
<path d="M15.2244 9.57564C15.4587 9.80995 15.4587 10.1899 15.2244 10.4242L11.2244 14.4242C10.99 14.6585 10.6101 14.6585 10.3758 14.4242L8.77583 12.8242C8.54152 12.5899 8.54152 12.21 8.77583 11.9756C9.01015 11.7413 9.39005 11.7413 9.62436 11.9756L10.8001 13.1514L14.3758 9.57564C14.6101 9.34132 14.99 9.34132 15.2244 9.57564Z" fill="#219653"/>
</svg>
