<svg width="366" height="128" viewBox="0 0 366 128" fill="none" xmlns="http://www.w3.org/2000/svg">
<path opacity="0.54" d="M240.865 12.6819C293.862 -2.3188 338.476 1.07795 367.697 17.1636C382.313 25.2094 392.78 36.3414 398.15 50.056C403.52 63.7713 403.822 80.1456 397.97 98.7272C386.35 135.624 351.001 176.452 305.696 212.447C260.872 248.061 207.309 277.469 155.495 291.294C103.898 305.061 60.6327 301.606 32.5229 285.495C18.6272 277.531 9.01133 266.51 4.25136 253.033C-0.510664 239.551 -0.436973 223.541 5.17705 205.565C16.3381 169.83 49.3025 130.547 92.4314 95.237C136.425 59.2188 188.849 27.4047 240.865 12.6819Z" stroke="white" stroke-width="1.5"/>
<path opacity="0.33" d="M252.314 19.246C302.371 5.09832 344.513 8.3409 372.119 23.563C385.927 31.1767 395.817 41.703 400.896 54.6645C405.975 67.6267 406.272 83.1002 400.757 100.659C389.806 135.528 356.442 174.104 313.663 208.108C271.338 241.752 220.756 269.521 171.816 282.557C123.081 295.539 82.213 292.242 55.6562 276.997C42.5292 269.462 33.4436 259.042 28.9409 246.306C24.4362 233.564 24.4944 218.434 29.7848 201.448C40.303 167.676 71.4152 130.56 112.139 97.2021C153.679 63.1755 203.185 33.1312 252.314 19.246Z" stroke="white" stroke-width="1.5"/>
</svg>
