<svg width="122" height="108" viewBox="0 0 122 108" fill="none" xmlns="http://www.w3.org/2000/svg">
<g clip-path="url(#clip0_5170_37471)">
<path opacity="0.54" d="M155.27 10.8127C200.099 -1.83919 237.816 1.03171 262.506 14.5841C274.854 21.3619 283.689 30.7351 288.221 42.2769C292.754 53.8194 293.013 67.6073 288.067 83.2656C278.244 114.364 248.355 148.794 210.024 179.162C172.104 209.203 126.795 234.008 82.969 245.668C39.3249 257.279 2.74916 254.359 -21.0001 240.786C-32.7372 234.078 -40.8532 224.8 -44.8704 213.459C-48.8897 202.113 -48.8305 188.63 -44.0857 173.482C-34.6516 143.362 -6.7789 110.236 29.7104 80.447C66.9294 50.0626 111.276 23.2294 155.27 10.8127Z" stroke="white" stroke-width="1.5"/>
<path opacity="0.33" d="M164.958 16.3519C207.298 4.41977 242.923 7.16051 266.247 19.9843C277.912 26.3974 286.259 35.2596 290.545 46.166C294.831 57.0733 295.085 70.1011 290.425 84.8968C281.168 114.284 252.959 146.814 216.765 175.501C180.96 203.88 138.172 227.302 96.7791 238.297C55.5568 249.246 21.0096 246.459 -1.42548 233.617C-12.5122 227.271 -20.1796 218.5 -23.979 207.784C-27.7806 197.062 -27.7345 184.322 -23.2635 170.008C-14.3734 141.546 11.932 110.247 46.3864 82.1058C81.5291 53.4019 123.406 28.0619 164.958 16.3519Z" stroke="white" stroke-width="1.5"/>
</g>
<defs>
<clipPath id="clip0_5170_37471">
<rect width="261" height="108" fill="white" transform="translate(0.5)"/>
</clipPath>
</defs>
</svg>
