<svg width="439" height="183" viewBox="0 0 439 183" fill="none" xmlns="http://www.w3.org/2000/svg">
<g opacity="0.54">
<path d="M258.717 17.8213C334.884 -3.63903 399.056 1.20406 441.125 24.2567C462.172 35.7896 477.263 51.7581 485.008 71.4471C492.753 91.137 493.18 114.624 484.757 141.246C468.038 194.091 417.205 252.512 352.121 303.987C287.716 354.925 210.748 396.994 136.278 416.773C62.1252 436.468 -0.112574 431.542 -40.587 408.45C-60.6031 397.03 -74.4706 381.217 -81.336 361.868C-88.2035 342.513 -88.0893 319.55 -80.0101 293.8C-63.9517 242.618 -16.5469 186.407 45.4128 135.911C108.619 84.3989 183.952 38.8865 258.717 17.8213Z" stroke="#640DC6" stroke-width="1.5"/>
<path d="M258.717 17.8213C334.884 -3.63903 399.056 1.20406 441.125 24.2567C462.172 35.7896 477.263 51.7581 485.008 71.4471C492.753 91.137 493.18 114.624 484.757 141.246C468.038 194.091 417.205 252.512 352.121 303.987C287.716 354.925 210.748 396.994 136.278 416.773C62.1252 436.468 -0.112574 431.542 -40.587 408.45C-60.6031 397.03 -74.4706 381.217 -81.336 361.868C-88.2035 342.513 -88.0893 319.55 -80.0101 293.8C-63.9517 242.618 -16.5469 186.407 45.4128 135.911C108.619 84.3989 183.952 38.8865 258.717 17.8213Z" stroke="url(#paint0_radial_6403_12012)" stroke-width="1.5"/>
</g>
<g opacity="0.33">
<path d="M275.16 27.2053C347.104 6.96455 407.727 11.5873 447.477 33.4054C467.363 44.3205 481.626 59.4229 488.952 78.0352C496.279 96.6483 496.699 118.848 488.761 144.007C473.002 193.953 425.021 249.154 363.564 297.783C302.749 345.904 230.06 385.629 159.718 404.281C89.6765 422.854 30.8818 418.154 -7.36199 396.301C-26.274 385.494 -39.3798 370.539 -45.8756 352.249C-52.3735 333.953 -52.2818 312.25 -44.6674 287.913C-29.5323 239.539 15.2123 186.425 73.7181 138.72C133.4 90.0553 204.542 47.0731 275.16 27.2053Z" stroke="#640DC6" stroke-width="1.5"/>
<path d="M275.16 27.2053C347.104 6.96455 407.727 11.5873 447.477 33.4054C467.363 44.3205 481.626 59.4229 488.952 78.0352C496.279 96.6483 496.699 118.848 488.761 144.007C473.002 193.953 425.021 249.154 363.564 297.783C302.749 345.904 230.06 385.629 159.718 404.281C89.6765 422.854 30.8818 418.154 -7.36199 396.301C-26.274 385.494 -39.3798 370.539 -45.8756 352.249C-52.3735 333.953 -52.2818 312.25 -44.6674 287.913C-29.5323 239.539 15.2123 186.425 73.7181 138.72C133.4 90.0553 204.542 47.0731 275.16 27.2053Z" stroke="url(#paint1_radial_6403_12012)" stroke-width="1.5"/>
</g>
<defs>
<radialGradient id="paint0_radial_6403_12012" cx="0" cy="0" r="1" gradientUnits="userSpaceOnUse" gradientTransform="translate(-155.333 240.568) rotate(-3.80646) scale(715.579 2253.04)">
<stop stop-color="#976EFC"/>
<stop offset="1" stop-color="#6A38F6" stop-opacity="0"/>
</radialGradient>
<radialGradient id="paint1_radial_6403_12012" cx="0" cy="0" r="1" gradientUnits="userSpaceOnUse" gradientTransform="translate(-115.909 237.519) rotate(-3.77035) scale(676.038 2130.58)">
<stop stop-color="#976EFC"/>
<stop offset="1" stop-color="#6A38F6" stop-opacity="0"/>
</radialGradient>
</defs>
</svg>
