<svg width="204" height="127" viewBox="0 0 204 127" fill="none" xmlns="http://www.w3.org/2000/svg">
<path opacity="0.54" d="M127.618 58.0903C156.154 26.2907 187.255 11.8075 213.75 12.9353C227.003 13.4994 238.87 18.0164 248.498 26.4641C258.125 34.9113 265.563 47.3332 269.896 63.7999C278.5 96.5019 273.108 141.323 258.958 186.283C244.959 230.761 222.414 273.826 194.142 304.273C165.989 334.591 135.757 348.512 109.989 346.94C97.2506 346.162 85.9978 341.405 76.8806 332.906C67.7607 324.405 60.7323 312.118 56.5095 296.205C48.1137 264.568 52.6077 221.845 65.6163 178.245C78.8857 133.771 99.6103 89.3007 127.618 58.0903Z" stroke="white" stroke-width="1.5"/>
<path opacity="0.33" d="M138.129 58.7332C165.089 28.7154 194.481 15.0616 219.521 16.1462C232.047 16.6888 243.262 20.9627 252.363 28.9446C261.463 36.926 268.499 48.6591 272.603 64.2126C280.754 95.1027 275.683 137.435 262.329 179.9C249.118 221.908 227.827 262.573 201.115 291.314C174.516 319.933 145.946 333.056 121.593 331.552C109.555 330.809 98.9203 326.308 90.3018 318.279C81.6806 310.246 75.0318 298.641 71.0318 283.61C63.0787 253.726 67.3016 213.374 79.5771 172.194C92.0986 130.189 111.668 88.1941 138.129 58.7332Z" stroke="white" stroke-width="1.5"/>
</svg>
