<svg width="274" height="274" viewBox="0 0 274 274" fill="none" xmlns="http://www.w3.org/2000/svg">
<g clip-path="url(#clip0_1798_8753)">
<g style="mix-blend-mode:multiply" opacity="0.2">
<path d="M85.3255 209.781C82.3097 209.814 79.3878 210.834 77.0075 212.686C74.6273 214.538 72.92 217.119 72.1475 220.035C71.3749 222.95 71.5797 226.038 72.7304 228.826C73.8811 231.614 75.9143 233.947 78.5183 235.469L127.153 263.04C131.159 265.317 135.689 266.512 140.297 266.508C142.776 266.506 145.242 266.146 147.618 265.437L220.784 244.588C226.242 243.02 231.042 239.721 234.463 235.189C237.883 230.656 239.739 225.135 239.75 219.457V209.781H85.3255Z" fill="white"/>
</g>
<g style="mix-blend-mode:multiply" opacity="0.12">
<path d="M85.3255 209.781C82.3097 209.814 79.3878 210.834 77.0075 212.686C74.6273 214.538 72.92 217.119 72.1475 220.035C71.3749 222.95 71.5797 226.038 72.7304 228.826C73.8811 231.614 75.9143 233.947 78.5183 235.469L127.153 263.04C131.159 265.317 135.689 266.512 140.297 266.508C142.776 266.506 145.242 266.146 147.618 265.437L220.784 244.588C226.242 243.02 231.042 239.721 234.463 235.189C237.883 230.656 239.739 225.135 239.75 219.457V209.781H85.3255Z" fill="white"/>
</g>
<path d="M147.318 8.5625L166.969 53.5156V209.781L147.618 265.438L220.785 244.588C226.242 243.02 231.043 239.721 234.463 235.189C237.884 230.656 239.739 225.135 239.751 219.457V54.5431C239.753 48.8502 237.898 43.3118 234.468 38.7686C231.037 34.2254 226.218 30.9254 220.742 29.3694L147.318 8.5625Z" fill="url(#paint0_linear_1798_8753)"/>
<path d="M54.5432 208.112L75.9494 196.552C78.8851 194.939 81.3325 192.565 83.0349 189.68C84.7374 186.795 85.632 183.505 85.625 180.155V96.0286C85.629 92.1965 86.8095 88.4582 89.007 85.3189C91.2046 82.1796 94.313 79.7908 97.9122 78.4754L166.969 53.5157V34.5498C166.961 28.6715 165.039 22.9557 161.493 18.267C157.948 13.5783 152.972 10.1717 147.318 8.56262C144.91 7.87122 142.416 7.52526 139.911 7.53512C135.2 7.54589 130.57 8.76965 126.468 11.0886L47.4363 56.1701C43.4314 58.4521 40.1019 61.7535 37.7859 65.7388C35.47 69.7241 34.25 74.2514 34.25 78.8607V195.996C34.244 198.38 34.8584 200.725 36.0326 202.799C37.2069 204.874 38.9008 206.608 40.9478 207.83C42.9949 209.052 45.3246 209.721 47.7082 209.77C50.0918 209.82 52.4473 209.248 54.5432 208.112Z" fill="url(#paint1_linear_1798_8753)"/>
<path d="M166.969 209.781H85.3255C82.3097 209.814 79.3878 210.834 77.0075 212.686C74.6273 214.538 72.92 217.119 72.1475 220.035C71.3749 222.95 71.5797 226.038 72.7304 228.826C73.8811 231.614 75.9143 233.947 78.5183 235.469L127.153 263.04C131.159 265.317 135.689 266.512 140.297 266.508C142.776 266.506 145.242 266.146 147.618 265.437C153.202 263.851 158.116 260.482 161.609 255.845C165.102 251.208 166.985 245.556 166.969 239.75V209.781Z" fill="url(#paint2_linear_1798_8753)"/>
<path d="M54.5432 208.112L75.9494 196.552C78.8851 194.939 81.3325 192.565 83.0349 189.68C84.7374 186.795 85.632 183.505 85.625 180.155V96.0286C85.629 92.1965 86.8095 88.4582 89.007 85.3189C91.2046 82.1796 94.313 79.7908 97.9122 78.4754L166.969 53.5157V34.5498C166.961 28.6715 165.039 22.9557 161.493 18.267C157.948 13.5783 152.972 10.1717 147.318 8.56262C144.91 7.87122 142.416 7.52526 139.911 7.53512C135.2 7.54589 130.57 8.76965 126.468 11.0886L47.4363 56.1701C43.4314 58.4521 40.1019 61.7535 37.7859 65.7388C35.47 69.7241 34.25 74.2514 34.25 78.8607V195.996C34.244 198.38 34.8584 200.725 36.0326 202.799C37.2069 204.874 38.9008 206.608 40.9478 207.83C42.9949 209.052 45.3246 209.721 47.7082 209.77C50.0918 209.82 52.4473 209.248 54.5432 208.112Z" fill="url(#paint3_linear_1798_8753)"/>
<path d="M166.969 209.781H85.3255C82.3097 209.814 79.3878 210.834 77.0075 212.686C74.6273 214.538 72.92 217.119 72.1475 220.035C71.3749 222.95 71.5797 226.038 72.7304 228.826C73.8811 231.614 75.9143 233.947 78.5183 235.469L127.153 263.04C131.159 265.317 135.689 266.512 140.297 266.508C142.776 266.506 145.242 266.146 147.618 265.437C153.202 263.851 158.116 260.482 161.609 255.845C165.102 251.208 166.985 245.556 166.969 239.75V209.781Z" fill="url(#paint4_linear_1798_8753)"/>
</g>
<defs>
<linearGradient id="paint0_linear_1798_8753" x1="193.513" y1="-6.07938" x2="193.513" y2="247.456" gradientUnits="userSpaceOnUse">
<stop stop-color="#FFB900"/>
<stop offset="0.17" stop-color="#EF8400"/>
<stop offset="0.31" stop-color="#E25C01"/>
<stop offset="0.43" stop-color="#DB4401"/>
<stop offset="0.5" stop-color="#D83B01"/>
</linearGradient>
<linearGradient id="paint1_linear_1798_8753" x1="147.789" y1="2.86856" x2="13.5288" y2="194.583" gradientUnits="userSpaceOnUse">
<stop stop-color="#800600"/>
<stop offset="0.6" stop-color="#C72127"/>
<stop offset="0.73" stop-color="#C13959"/>
<stop offset="0.85" stop-color="#BC4B81"/>
<stop offset="0.94" stop-color="#B95799"/>
<stop offset="1" stop-color="#B85BA2"/>
</linearGradient>
<linearGradient id="paint2_linear_1798_8753" x1="79.2033" y1="238.166" x2="254.478" y2="238.166" gradientUnits="userSpaceOnUse">
<stop stop-color="#F32B44"/>
<stop offset="0.6" stop-color="#A4070A"/>
</linearGradient>
<linearGradient id="paint3_linear_1798_8753" x1="150.529" y1="-1.02738" x2="122.101" y2="39.5589" gradientUnits="userSpaceOnUse">
<stop stop-opacity="0.4"/>
<stop offset="1" stop-opacity="0"/>
</linearGradient>
<linearGradient id="paint4_linear_1798_8753" x1="198.308" y1="242.105" x2="119.832" y2="235.255" gradientUnits="userSpaceOnUse">
<stop stop-opacity="0.4"/>
<stop offset="1" stop-opacity="0"/>
</linearGradient>
<clipPath id="clip0_1798_8753">
<rect width="274" height="274" fill="white"/>
</clipPath>
</defs>
</svg>
