<svg width="36" height="24" viewBox="0 0 36 24" fill="none" xmlns="http://www.w3.org/2000/svg">
<g clip-path="url(#clip0_2653_4263)">
<path d="M35.0468 23.5833H0.969873C0.633822 23.5833 0.361328 23.3108 0.361328 22.9747V1.06814C0.361328 0.732089 0.633822 0.459595 0.969873 0.459595H35.0468C35.3829 0.459595 35.6554 0.732089 35.6554 1.06814V22.9747C35.6553 23.3108 35.3828 23.5833 35.0468 23.5833Z" fill="#41479B"/>
<path d="M35.6553 1.06814C35.6553 0.732089 35.3828 0.459595 35.0468 0.459595H32.3242L21.0508 7.84562V0.459595H14.9657V7.84562L3.69234 0.459595H0.969874C0.633823 0.459595 0.361328 0.732089 0.361328 1.06814V2.64196L10.0333 8.97882H0.361328V15.064H10.0333L0.361328 21.4009V22.9747C0.361328 23.3108 0.633823 23.5833 0.969874 23.5833H3.6924L14.9658 16.1973V23.5833H21.051V16.1973L32.3244 23.5833H35.0469C35.383 23.5833 35.6554 23.3108 35.6554 22.9747V21.4009L25.9834 15.0641H35.6553V8.97889H25.9833L35.6553 2.64196V1.06814Z" fill="#F5F5F5"/>
<path d="M35.6553 10.1959H19.8339V0.459595H16.1827V10.1959H0.361328V13.847H16.1827V23.5833H19.8339V13.847H35.6553V10.1959Z" fill="#FF4B55"/>
<path d="M12.6972 15.0641L0.378906 23.0602C0.42199 23.354 0.664291 23.5834 0.970149 23.5834H1.80831L14.9326 15.0642H12.6972V15.0641Z" fill="#FF4B55"/>
<path d="M24.2393 15.0641H22.0039L35.1091 23.5708C35.4145 23.5382 35.6556 23.2888 35.6556 22.9748V22.4744L24.2393 15.0641Z" fill="#FF4B55"/>
<path d="M0.361328 1.73999L11.5133 8.97898H13.7487L0.715853 0.519043C0.507674 0.615757 0.361328 0.823591 0.361328 1.06824V1.73999Z" fill="#FF4B55"/>
<path d="M23.2862 8.97894L35.634 0.963552C35.5827 0.679408 35.3456 0.459717 35.0466 0.459717H34.1748L21.0508 8.97894H23.2862Z" fill="#FF4B55"/>
</g>
<defs>
<clipPath id="clip0_2653_4263">
<rect width="36" height="24" rx="8" fill="white"/>
</clipPath>
</defs>
</svg>
