<svg width="248" height="84" viewBox="0 0 248 84" fill="none" xmlns="http://www.w3.org/2000/svg">
<g opacity="0.2">
<path d="M84.6085 75.4362C48.905 85.2706 18.8935 83.0304 -0.731534 72.5171C-10.5436 67.2607 -17.5531 59.9984 -21.1475 51.065C-24.7423 42.1305 -24.9527 31.446 -21.0198 19.2937C-13.2063 -4.8495 10.5837 -31.6061 41.1245 -55.22C71.3322 -78.5764 107.423 -97.8581 142.325 -106.921C177.087 -115.946 206.188 -113.667 225.062 -103.14C234.385 -97.9399 240.822 -90.7536 244.008 -81.9765C247.196 -73.193 247.153 -62.744 243.38 -50.9862C235.875 -27.6028 213.691 -1.86016 184.618 21.3034C154.967 44.9281 119.643 65.786 84.6085 75.4362Z" stroke="#640DC6" stroke-width="1.5"/>
<path d="M84.6085 75.4362C48.905 85.2706 18.8935 83.0304 -0.731534 72.5171C-10.5436 67.2607 -17.5531 59.9984 -21.1475 51.065C-24.7423 42.1305 -24.9527 31.446 -21.0198 19.2937C-13.2063 -4.8495 10.5837 -31.6061 41.1245 -55.22C71.3322 -78.5764 107.423 -97.8581 142.325 -106.921C177.087 -115.946 206.188 -113.667 225.062 -103.14C234.385 -97.9399 240.822 -90.7536 244.008 -81.9765C247.196 -73.193 247.153 -62.744 243.38 -50.9862C235.875 -27.6028 213.691 -1.86016 184.618 21.3034C154.967 44.9281 119.643 65.786 84.6085 75.4362Z" stroke="url(#paint0_radial_5649_15671)" stroke-width="1.5"/>
<path d="M74.8231 72.3016C40.7638 81.7676 12.1858 79.7593 -6.45808 69.8733C-15.7786 64.9311 -22.4184 58.0793 -25.8012 49.6342C-29.1844 41.1876 -29.3418 31.0663 -25.5453 19.5324C-18.0021 -3.38446 4.77285 -28.8477 33.9727 -51.3609C62.8526 -73.6276 97.3205 -92.0531 130.612 -100.784C163.77 -109.479 191.48 -107.43 209.409 -97.5285C218.263 -92.6383 224.358 -85.857 227.352 -77.5585C230.349 -69.2531 230.267 -59.3535 226.623 -48.1937C219.378 -25.9984 198.136 -1.50312 170.338 20.5772C141.986 43.0965 108.243 63.0134 74.8231 72.3016Z" stroke="#640DC6" stroke-width="1.5"/>
<path d="M74.8231 72.3016C40.7638 81.7676 12.1858 79.7593 -6.45808 69.8733C-15.7786 64.9311 -22.4184 58.0793 -25.8012 49.6342C-29.1844 41.1876 -29.3418 31.0663 -25.5453 19.5324C-18.0021 -3.38446 4.77285 -28.8477 33.9727 -51.3609C62.8526 -73.6276 97.3205 -92.0531 130.612 -100.784C163.77 -109.479 191.48 -107.43 209.409 -97.5285C218.263 -92.6383 224.358 -85.857 227.352 -77.5585C230.349 -69.2531 230.267 -59.3535 226.623 -48.1937C219.378 -25.9984 198.136 -1.50312 170.338 20.5772C141.986 43.0965 108.243 63.0134 74.8231 72.3016Z" stroke="url(#paint1_radial_5649_15671)" stroke-width="1.5"/>
</g>
<defs>
<radialGradient id="paint0_radial_5649_15671" cx="0" cy="0" r="1" gradientUnits="userSpaceOnUse" gradientTransform="translate(279.133 -26.4248) rotate(176.278) scale(335.95 1034.28)">
<stop stop-color="#976EFC"/>
<stop offset="1" stop-color="#6A38F6" stop-opacity="0"/>
</radialGradient>
<radialGradient id="paint1_radial_5649_15671" cx="0" cy="0" r="1" gradientUnits="userSpaceOnUse" gradientTransform="translate(260.623 -25.0244) rotate(176.062) scale(320.294 980.284)">
<stop stop-color="#976EFC"/>
<stop offset="1" stop-color="#6A38F6" stop-opacity="0"/>
</radialGradient>
</defs>
</svg>
