<svg width="65" height="64" viewBox="0 0 65 64" fill="none" xmlns="http://www.w3.org/2000/svg">
<g clip-path="url(#clip0_6257_39092)">
<path d="M64.8296 32.0193C64.8296 49.715 50.5451 63.9995 32.8494 63.9995C15.1536 63.9995 0.869141 49.715 0.869141 32.0193C0.869141 14.3236 15.1536 0.0390625 32.8494 0.0390625C50.5451 0.0390625 64.8296 14.3236 64.8296 32.0193Z" fill="#FFDD67"/>
<path d="M64.6172 11.9786C64.0841 9.10039 62.4851 6.75518 59.8201 6.00897C56.9419 5.26276 54.3835 6.32877 51.9317 8.88719C50.5459 5.04956 48.4138 2.17134 45.0026 0.678932C41.5914 -0.813478 38.1802 0.252529 36.0482 2.91755C33.8095 5.68917 32.9567 10.0598 35.3019 15.7096C37.5406 21.0397 47.4544 31.6997 47.7742 32.0196C48.2006 31.8064 59.2871 24.8773 61.9521 21.4661C64.6172 18.1615 65.1502 14.8568 64.6172 11.9786ZM29.6521 2.91755C27.5201 0.252529 24.1089 -0.813478 20.6977 0.678932C17.2864 2.17134 15.1544 5.04956 13.7686 8.88719C11.2102 6.43537 8.65177 5.26276 5.77355 6.11557C3.21513 6.86178 1.50952 9.20699 0.976513 12.0852C0.443509 14.8568 1.08311 18.2681 3.64153 21.5727C6.41315 24.8773 17.4996 31.8064 17.926 32.0196C18.2458 31.6997 28.1597 21.0397 30.3983 15.7096C32.7435 10.0598 31.8907 5.79577 29.6521 2.91755Z" fill="#F46767"/>
<path d="M50.9708 38.5229C50.9708 37.6701 50.4378 36.604 49.052 36.2842C45.321 35.538 39.8843 34.8984 32.8487 34.8984C25.813 34.8984 20.3764 35.6446 16.6454 36.2842C15.153 36.604 14.7266 37.6701 14.7266 38.5229C14.7266 46.3047 20.6962 54.0866 32.8487 54.0866C45.0012 53.98 50.9708 46.1981 50.9708 38.5229Z" fill="#664E27"/>
<path d="M46.3895 38.735C44.0443 38.3085 39.1407 37.6689 32.8513 37.6689C26.5618 37.6689 21.6582 38.3085 19.313 38.735C17.9271 38.9482 17.8205 39.4812 17.9271 40.334C18.0338 40.7604 18.0337 41.4 18.247 42.0396C18.3536 42.6792 18.5668 42.999 19.6328 42.8924C21.6582 42.6792 44.1509 42.6792 46.1763 42.8924C47.2424 42.999 47.349 42.6792 47.5622 42.0396C47.6688 41.4 47.7754 40.867 47.882 40.334C47.882 39.4812 47.7754 38.9482 46.3895 38.735Z" fill="white"/>
</g>
<defs>
<clipPath id="clip0_6257_39092">
<rect width="64.0271" height="64" fill="white" transform="translate(0.802734)"/>
</clipPath>
</defs>
</svg>
