<svg width="65" height="64" viewBox="0 0 65 64" fill="none" xmlns="http://www.w3.org/2000/svg">
<g clip-path="url(#clip0_6257_39067)">
<path d="M32.1699 64C49.843 64 64.1699 49.6731 64.1699 32C64.1699 14.3269 49.843 0 32.1699 0C14.4968 0 0.169922 14.3269 0.169922 32C0.169922 49.6731 14.4968 64 32.1699 64Z" fill="#EF5350"/>
<path d="M41.7697 50.8805C35.583 45.7605 28.7563 45.7605 22.5697 50.8805C21.823 51.5205 21.183 50.4539 21.7163 49.4939C23.6363 45.8672 27.3697 42.5605 32.1697 42.5605C36.9697 42.5605 40.8097 45.8672 42.623 49.4939C43.1563 50.3472 42.5163 51.4139 41.7697 50.8805Z" fill="#302424"/>
<path d="M8.91829 24.4268C7.31829 29.4401 9.55829 35.0934 14.5716 37.3334C19.4783 39.6801 25.2383 37.8668 28.1183 33.3868L20.7583 25.1734L8.91829 24.4268Z" fill="white"/>
<path d="M13.185 25.3864C11.6917 28.4797 13.0784 32.2131 16.1717 33.5997C19.265 35.0931 22.9984 33.7064 24.385 30.6131C25.4517 28.5864 14.145 23.3597 13.185 25.3864Z" fill="#302424"/>
<path d="M8.91797 24.4262C10.6246 23.3595 12.6513 22.8262 14.678 22.8262C16.7046 22.8262 18.7313 23.3595 20.6513 24.2128C22.4646 25.0662 24.1713 26.3462 25.558 27.8395C26.838 29.4395 27.9046 31.2528 28.118 33.2795C26.7313 31.8928 25.3446 30.7195 23.8513 29.6528C22.358 28.5862 20.8646 27.7328 19.3713 27.0928C17.7713 26.3462 16.1713 25.8128 14.4646 25.2795C12.5446 24.9595 10.838 24.6395 8.91797 24.4262Z" fill="#302424"/>
<path d="M55.4246 24.4268C57.0246 29.4401 54.7846 35.0934 49.7713 37.3334C44.8646 39.6801 39.1046 37.8668 36.2246 33.3868L43.5846 25.1734L55.4246 24.4268Z" fill="white"/>
<path d="M51.1557 25.3864C52.649 28.4797 51.2623 32.2131 48.169 33.5997C45.0757 35.0931 41.3423 33.7064 39.9557 30.6131C38.889 28.5864 50.1957 23.3597 51.1557 25.3864Z" fill="#302424"/>
<path d="M55.4227 24.4262C53.716 23.3595 51.6893 22.8262 49.6627 22.8262C47.636 22.8262 45.6093 23.3595 43.6893 24.2128C41.876 25.0662 40.1693 26.3462 38.7827 27.8395C37.5027 29.4395 36.436 31.2528 36.2227 33.2795C37.6093 31.8928 38.996 30.7195 40.4893 29.6528C41.9827 28.5862 43.476 27.7328 44.9693 27.0928C46.5693 26.3462 48.1693 25.8128 49.876 25.2795C51.796 24.9595 53.5027 24.6395 55.4227 24.4262Z" fill="#302424"/>
</g>
<defs>
<clipPath id="clip0_6257_39067">
<rect width="64" height="64" fill="white" transform="translate(0.169922)"/>
</clipPath>
</defs>
</svg>
