<svg width="60" height="64" viewBox="0 0 60 64" fill="none" xmlns="http://www.w3.org/2000/svg">
<g clip-path="url(#clip0_6257_39080)">
<path d="M0.169922 29.8168C0.169922 46.3226 13.481 59.6336 29.9867 59.6336C46.4925 59.6336 59.8036 46.3226 59.8036 29.8168C59.8036 13.3111 46.4925 0 29.9867 0C13.481 0 0.169922 13.3111 0.169922 29.8168Z" fill="#FFDD67"/>
<path d="M11.0319 10.6486C14.6526 8.51886 19.0186 8.19939 23.0652 9.58374C23.5976 9.79672 24.4495 7.77344 23.8106 7.56046C19.2316 5.85664 14.2266 6.2826 9.96706 8.73184C9.32813 9.0513 10.4995 10.9681 11.0319 10.6486ZM36.5892 13.8433C40.2098 11.7135 44.5759 11.3941 48.6224 12.7784C49.1549 12.9914 50.0068 10.9681 49.3679 10.7551C44.7888 9.0513 39.7839 9.47726 35.5243 11.9265C34.8854 12.246 36.0568 14.0563 36.5892 13.8433Z" fill="#917524"/>
<path d="M21.5746 34.8214C27.0055 33.437 32.9689 34.3954 37.5479 37.5901C38.7193 38.3355 36.5895 41.3172 35.4181 40.4653C32.3299 38.442 27.538 36.9511 22.533 38.229C21.2551 38.5485 20.1902 35.2473 21.5746 34.8214Z" fill="#664E27"/>
<path d="M41.4886 28.859C37.1226 28.859 33.502 25.2384 33.502 20.8724C33.502 19.0621 34.1409 17.3582 35.0993 16.0804C36.9096 15.5479 38.9329 15.335 41.0626 15.335C43.6184 15.335 46.0676 15.7609 48.1974 16.5063C49.0493 17.7842 49.5817 19.275 49.5817 20.9789C49.4753 25.3449 45.9611 28.859 41.4886 28.859Z" fill="white"/>
<path d="M42.5518 15.335C42.9777 15.9739 43.2972 16.7193 43.2972 17.5712C43.2972 19.8075 41.4869 21.6178 39.2506 21.6178C37.0144 21.6178 35.3105 19.8075 35.3105 17.6777C35.3105 17.0388 35.417 16.5063 35.7365 15.9739C37.3338 15.5479 39.1441 15.335 41.0609 15.335H42.5518Z" fill="#664E27"/>
<path d="M18.4847 28.859C14.1187 28.859 10.498 25.2384 10.498 20.8724C10.498 19.0621 11.137 17.3582 12.0954 16.0804C13.9057 15.5479 15.929 15.335 18.0587 15.335C20.6145 15.335 23.0637 15.7609 25.1935 16.5063C26.0454 17.7842 26.5778 19.275 26.5778 20.9789C26.4713 25.3449 22.8507 28.859 18.4847 28.859Z" fill="white"/>
<path d="M19.5508 15.334C19.9768 15.973 20.2963 16.7184 20.2963 17.5703C20.2963 19.8066 18.486 21.6169 16.2497 21.6169C14.0134 21.6169 12.2031 19.8066 12.2031 17.5703C12.2031 16.9314 12.3096 16.3989 12.6291 15.8665C14.2264 15.4405 16.0367 15.2275 17.9535 15.2275C18.5924 15.334 19.0184 15.334 19.5508 15.334Z" fill="#664E27"/>
<path d="M30.6253 44.7253C26.1527 45.7902 14.7585 47.1746 12.7352 45.0448C11.7768 44.0864 11.9898 42.7021 12.3092 40.2528C12.6287 37.8036 10.2859 35.2479 8.58212 35.0349C6.55884 34.8219 5.38746 36.3127 6.13288 38.4425C7.62372 43.2345 4.64204 44.7253 4.42906 48.2395C4.32257 50.2628 3.68364 53.6704 6.77181 58.0364C10.2859 62.9349 16.3558 63.0414 18.4856 62.9349C20.9348 62.8284 21.9997 62.7219 22.5321 61.657C23.1711 60.3792 22.8516 60.0597 23.1711 59.6338C23.7035 58.6754 24.023 58.7818 24.3424 57.6105C24.6619 56.4391 23.81 55.6937 24.023 55.1612C24.4489 53.8834 25.5138 54.0963 24.4489 51.1147C28.0695 50.5822 30.4123 50.0498 32.5421 48.7719C36.4821 46.6421 33.0745 44.1929 30.6253 44.7253Z" fill="white"/>
<path d="M14.5461 63.5736C10.9255 62.9347 7.94383 61.1244 6.02704 58.4622C3.04535 54.3091 3.25833 51.008 3.47131 48.7717V48.0263C3.5778 46.5354 4.00375 45.3641 4.5362 44.1927C5.28162 42.4889 5.92055 41.1045 5.06864 38.5488C4.64268 37.2709 4.74917 35.9931 5.60108 35.1412C6.3465 34.3957 7.41139 33.9698 8.68925 34.1828H8.79574C11.032 34.6087 13.5877 37.5904 13.2683 40.4656C12.9488 42.8083 12.8423 43.8732 13.4812 44.5122C13.5877 44.6186 13.9072 44.9381 15.0786 45.0446C19.1251 45.79 27.1118 44.6186 30.4129 43.8732C30.9454 43.7667 31.5843 43.7667 32.2232 43.8732C33.8206 44.1927 34.9919 45.1511 35.3114 46.3225C35.4179 47.0679 35.4179 48.4522 33.1816 49.7301C31.0519 50.9015 28.8156 51.5404 25.7274 51.9664C26.5793 54.0961 24.5561 54.8415 24.982 55.6935C25.5145 56.8648 25.408 57.8232 24.2366 58.9946C23.3847 59.74 24.4496 60.6984 23.5977 62.1893C22.6393 63.7866 21.0419 63.8931 18.6992 63.9996C17.1019 63.8931 15.824 63.8931 14.5461 63.5736ZM6.45299 37.4839C7.19841 40.998 7.41139 42.2759 6.13353 45.1511C4.21673 48.9847 3.47131 59.8465 14.8656 61.8698C21.7874 63.1477 22.8522 61.4438 22.5328 59.6335C22.3198 58.4622 23.2782 58.0362 23.5977 57.6103C24.3431 56.3324 23.2782 55.6935 23.2782 55.161C23.2782 54.2026 24.2366 54.2026 24.4496 53.2442C24.769 51.5404 22.6393 50.9015 24.4496 50.795C27.9637 50.582 30.3064 49.9431 32.3297 48.5587C34.2465 47.2809 32.8622 44.6186 30.3064 45.1511C24.3431 46.4289 15.398 47.9198 12.4164 45.1511C11.032 43.8732 12.0969 42.3824 11.9904 39.5072C11.7774 35.6736 5.70757 34.1828 6.45299 37.4839Z" fill="#CCCFD4"/>
</g>
<defs>
<clipPath id="clip0_6257_39080">
<rect width="59.6336" height="64" fill="white" transform="translate(0.169922)"/>
</clipPath>
</defs>
</svg>
