<svg width="24" height="24" viewBox="0 0 24 24" fill="none" xmlns="http://www.w3.org/2000/svg">
<path fill-rule="evenodd" clip-rule="evenodd" d="M4 17.1191V7.52351V6.90008C4 6.41355 4.36485 6.01913 4.81492 6.01913L4 6.01913H12.1739H12.8672V15.7564H14.2755C14.2755 15.7564 15.5048 15.8654 16.4882 15.0341C17.5734 14.1168 17.6714 13.2847 17.6714 11.9625C17.6714 10.7637 17.5734 9.98639 16.4882 9.031C15.4996 8.16068 14.2065 8.24258 14.2065 8.24258C14.2065 8.24258 13.7965 8.24326 13.7965 7.11057C13.7965 5.97788 14.2065 6.01913 14.2065 6.01913C14.2065 6.01913 16.4167 5.73925 18.3419 7.32038C20.637 9.20534 20.5097 15.0341 18.2069 16.8266C16.896 17.8469 14.5221 18 14.5221 18L4.81492 18L4.81363 18C4.36415 17.9992 4 17.6051 4 17.1191ZM10.3549 11.9439C10.3404 11.2807 9.81817 10.7582 9.18859 10.7767C8.71099 10.7908 8.30879 11.1123 8.14879 11.5562L6.36297 11.6071C5.97772 11.6181 5.81069 12.14 6.10761 12.405C6.18504 12.4741 6.283 12.5106 6.38346 12.5077L8.16686 12.4569C8.16948 12.4633 8.17486 12.476 8.17486 12.476C8.35739 12.9019 8.76916 13.1924 9.24135 13.1785C9.87093 13.1599 10.3695 12.6072 10.3549 11.9439Z" fill="#7C0DC6"/>
</svg>
