<svg width="188" height="40" viewBox="0 0 188 40" fill="none" xmlns="http://www.w3.org/2000/svg">
<g clip-path="url(#clip0_4938_17507)">
<path d="M78.1301 8.00043V32.0004H73.9832V13.1671H73.9279L66.5187 32.0004H63.7541L56.1791 13.1671H56.1238V32.0004H52.3086V8.00043H58.2802L65.1364 25.7782H65.247L72.4903 8.00043H78.1301ZM81.5582 9.83377C81.5582 9.1671 81.7794 8.61155 82.277 8.1671C82.7746 7.72266 83.3276 7.50043 83.9911 7.50043C84.7099 7.50043 85.3181 7.72266 85.7604 8.1671C86.2028 8.61155 86.4792 9.1671 86.4792 9.83377C86.4792 10.5004 86.258 11.056 85.7604 11.5004C85.2628 11.9449 84.7099 12.1671 83.9911 12.1671C83.2723 12.1671 82.7193 11.9449 82.277 11.5004C81.8347 11.0004 81.5582 10.4449 81.5582 9.83377ZM86.0369 14.7782V32.0004H82.0005V14.7782H86.0369ZM98.2565 29.056C98.8647 29.056 99.5282 28.9449 100.247 28.6115C100.966 28.3338 101.629 27.9449 102.238 27.5004V31.2782C101.574 31.6671 100.855 31.9449 100.026 32.1115C99.1964 32.2782 98.3118 32.3893 97.3165 32.3893C94.7731 32.3893 92.7272 31.6115 91.1791 30.0004C89.5756 28.3893 88.8015 26.3338 88.8015 23.8893C88.8015 21.1115 89.6309 18.8338 91.2344 17.056C92.8378 15.2782 95.1048 14.3893 98.0906 14.3893C98.8647 14.3893 99.6388 14.5004 100.358 14.6671C101.132 14.8338 101.74 15.1115 102.182 15.3338V19.2227C101.574 18.7782 100.91 18.3893 100.302 18.1671C99.6388 17.9449 98.9753 17.7782 98.3118 17.7782C96.7083 17.7782 95.4366 18.2782 94.4413 19.3338C93.446 20.3893 93.0037 21.7782 93.0037 23.556C93.0037 25.2782 93.5013 26.6671 94.4413 27.6115C95.3813 28.556 96.653 29.056 98.2565 29.056ZM113.683 14.5004C114.015 14.5004 114.291 14.5004 114.568 14.556C114.844 14.6115 115.065 14.6671 115.231 14.7227V18.8338C115.01 18.6671 114.734 18.5004 114.291 18.3893C113.849 18.2782 113.407 18.1671 112.798 18.1671C111.803 18.1671 110.974 18.6115 110.31 19.4449C109.647 20.2782 109.26 21.556 109.26 23.3338V32.0004H105.223V14.7782H109.26V17.5004H109.315C109.702 16.556 110.255 15.8338 110.974 15.2782C111.748 14.7782 112.632 14.5004 113.683 14.5004ZM115.452 23.6671C115.452 20.8338 116.282 18.556 117.83 16.8893C119.433 15.2227 121.645 14.3893 124.465 14.3893C127.119 14.3893 129.22 15.1671 130.713 16.7782C132.206 18.3893 132.98 20.556 132.98 23.2782C132.98 26.056 132.151 28.2782 130.602 29.9449C128.999 31.6115 126.843 32.4449 124.078 32.4449C121.424 32.4449 119.323 31.6671 117.775 30.1115C116.226 28.5004 115.452 26.3338 115.452 23.6671ZM119.655 23.5004C119.655 25.2782 120.042 26.6671 120.871 27.6115C121.7 28.556 122.862 29.056 124.354 29.056C125.792 29.056 126.953 28.6115 127.727 27.6115C128.501 26.6671 128.888 25.2782 128.888 23.3893C128.888 21.556 128.501 20.1671 127.727 19.1671C126.953 18.2227 125.792 17.7227 124.41 17.7227C122.917 17.7227 121.811 18.2227 120.982 19.2227C120.042 20.2782 119.655 21.6671 119.655 23.5004ZM139.007 19.3338C139.007 19.8893 139.173 20.3893 139.56 20.7227C139.947 21.056 140.721 21.4449 141.993 21.9449C143.596 22.6115 144.757 23.3338 145.365 24.1115C146.029 24.9449 146.361 25.8893 146.361 27.056C146.361 28.6671 145.753 29.9449 144.481 30.9449C143.264 31.9449 141.55 32.3893 139.449 32.3893C138.73 32.3893 137.956 32.2782 137.072 32.1115C136.187 31.9449 135.468 31.7227 134.86 31.4449V27.4449C135.579 27.9449 136.408 28.3893 137.238 28.6671C138.067 28.9449 138.841 29.1115 139.56 29.1115C140.444 29.1115 141.163 29.0004 141.55 28.7227C141.993 28.4449 142.214 28.056 142.214 27.4449C142.214 26.8893 141.993 26.4449 141.55 26.0004C141.108 25.6115 140.223 25.1671 139.007 24.6671C137.514 24.056 136.463 23.3338 135.855 22.556C135.247 21.7782 134.915 20.7782 134.915 19.556C134.915 18.0004 135.523 16.7227 136.74 15.7227C137.956 14.7227 139.56 14.2227 141.495 14.2227C142.103 14.2227 142.767 14.2782 143.486 14.4449C144.204 14.6115 144.868 14.7782 145.365 14.9449V18.8893C144.813 18.556 144.204 18.2227 143.486 17.9449C142.767 17.6671 142.048 17.556 141.384 17.556C140.61 17.556 140.002 17.7227 139.615 18.0004C139.228 18.3893 139.007 18.7782 139.007 19.3338ZM148.075 23.6671C148.075 20.8338 148.904 18.556 150.452 16.8893C152.056 15.2227 154.268 14.3893 157.087 14.3893C159.741 14.3893 161.843 15.1671 163.335 16.7782C164.828 18.3893 165.602 20.556 165.602 23.2782C165.602 26.056 164.773 28.2782 163.225 29.9449C161.621 31.6115 159.465 32.4449 156.7 32.4449C154.046 32.4449 151.945 31.6671 150.397 30.1115C148.904 28.5004 148.075 26.3338 148.075 23.6671ZM152.277 23.5004C152.277 25.2782 152.664 26.6671 153.493 27.6115C154.323 28.556 155.484 29.056 156.977 29.056C158.414 29.056 159.576 28.6115 160.35 27.6115C161.124 26.6671 161.511 25.2782 161.511 23.3893C161.511 21.556 161.124 20.1671 160.35 19.1671C159.576 18.2227 158.414 17.7227 157.032 17.7227C155.539 17.7227 154.433 18.2227 153.604 19.2227C152.719 20.2782 152.277 21.6671 152.277 23.5004ZM179.038 18.1115H173.012V32.0004H168.92V18.1115H166.045V14.7782H168.92V12.3893C168.92 10.6115 169.528 9.11155 170.689 7.94488C171.85 6.77821 173.343 6.22266 175.168 6.22266C175.666 6.22266 176.108 6.27821 176.495 6.27821C176.882 6.27821 177.214 6.38932 177.49 6.50043V10.0004C177.38 9.94488 177.103 9.83377 176.771 9.72266C176.44 9.61155 176.053 9.55599 175.61 9.55599C174.781 9.55599 174.117 9.83377 173.675 10.3338C173.233 10.8338 173.012 11.6671 173.012 12.6671V14.7227H179.038V10.8338L183.075 9.61155V14.7227H187.166V18.056H183.075V26.1115C183.075 27.1671 183.296 27.8893 183.628 28.3338C184.015 28.7782 184.623 29.0004 185.452 29.0004C185.674 29.0004 185.95 28.9449 186.282 28.8338C186.613 28.7227 186.89 28.6115 187.111 28.4449V31.7782C186.835 31.9449 186.448 32.056 185.839 32.1671C185.231 32.2782 184.678 32.3338 184.07 32.3338C182.356 32.3338 181.084 31.8893 180.255 31.0004C179.426 30.1115 178.983 28.7227 178.983 26.8893L179.038 18.1115Z" fill="#737373"/>
<path d="M19.41 0H0.5V19H19.41V0Z" fill="#F25022"/>
<path d="M40.3103 0H21.4004V19H40.3103V0Z" fill="#7FBA00"/>
<path d="M19.41 21H0.5V40H19.41V21Z" fill="#00A4EF"/>
<path d="M40.3103 21H21.4004V40H40.3103V21Z" fill="#FFB900"/>
</g>
<defs>
<clipPath id="clip0_4938_17507">
<rect width="186.667" height="40" fill="white" transform="translate(0.5)"/>
</clipPath>
</defs>
</svg>
