<svg width="152" height="40" viewBox="0 0 152 40" fill="none" xmlns="http://www.w3.org/2000/svg">
<g clip-path="url(#clip0_4938_17514)">
<path d="M16.7257 0H0V40L16.7257 0Z" fill="#FA0C00"/>
<path d="M28.4941 0H45.198V40L28.4941 0Z" fill="#FA0C00"/>
<path d="M22.6102 14.7422L33.2558 39.9996H26.2713L23.0896 31.9582H15.2988L22.6102 14.7422Z" fill="#FA0C00"/>
<path d="M72.4841 25.437L74.4563 31.0922C74.5217 31.2338 74.6197 31.2992 74.7941 31.2992H78.586C78.793 31.2992 78.8257 31.2011 78.793 30.9941L70.9586 9.23437C70.9259 9.06003 70.8932 9.02734 70.7189 9.02734H66.0117C65.881 9.02734 65.8047 9.12541 65.8047 9.26706C65.7393 10.4112 65.6413 10.7598 65.4996 11.0976L58.5151 30.9614C58.4824 31.2011 58.5587 31.2992 58.7549 31.2992H62.1436C62.3506 31.2992 62.4487 31.2338 62.5249 31.0268L64.3882 25.437H72.4841ZM65.4669 21.7432C66.4912 18.6487 67.8423 14.6825 68.3871 12.4161H68.4198C69.0954 14.7914 70.6862 19.4986 71.4054 21.7432H65.4669Z" fill="#FA0C00"/>
<path d="M88.8648 31.637C90.9024 31.637 93.0707 31.2665 95.2718 30.3185C95.4461 30.2531 95.4788 30.1769 95.4788 30.0134C95.4134 29.4032 95.3372 28.5206 95.3372 27.8451V7.3602C95.3372 7.22944 95.3372 7.16406 95.1737 7.16406H91.4799C91.3383 7.16406 91.2729 7.22944 91.2729 7.40378V14.3447C90.6954 14.2793 90.2922 14.2466 89.8128 14.2466C83.8525 14.2466 80.1914 18.1801 80.1914 23.0943C80.1914 28.793 83.9506 31.637 88.8648 31.637ZM91.2729 27.8451C90.6627 28.0412 89.9871 28.1175 89.3006 28.1175C86.5984 28.1175 84.3864 26.592 84.3864 22.8873C84.3864 19.6075 86.6638 17.668 89.682 17.668C90.2922 17.668 90.8261 17.7334 91.2729 17.9077V27.8451Z" fill="#FA0C00"/>
<path d="M107.263 14.2471C102.174 14.2471 99.0254 18.1479 99.0254 22.964C99.0254 27.268 101.532 31.6374 107.187 31.6374C111.97 31.6374 115.326 28.1179 115.326 22.8551C115.326 18.2133 112.482 14.2471 107.263 14.2471ZM107.056 17.6685C109.933 17.6685 111.153 20.1419 111.153 22.964C111.153 26.4508 109.355 28.1833 107.263 28.1833C104.681 28.1833 103.155 26.015 103.155 22.8878C103.155 19.6734 104.779 17.6685 107.056 17.6685Z" fill="#FA0C00"/>
<path d="M119.144 7.16406C119.002 7.16406 118.904 7.22944 118.904 7.40378V30.5909C118.904 30.689 119.002 30.8633 119.144 30.896C120.768 31.3972 122.467 31.637 124.222 31.637C129.245 31.637 134.126 28.5206 134.126 22.2444C134.126 17.7007 131.01 14.2466 126.128 14.2466C125.006 14.2466 123.96 14.4209 123.045 14.726L123.001 7.43647C123.001 7.19675 122.936 7.16406 122.696 7.16406H119.144ZM129.953 22.6585C129.953 26.4177 127.382 28.1829 124.603 28.1829C124.026 28.1829 123.513 28.1502 123.045 28.0085V18.1148C123.579 17.9077 124.222 17.7334 125.409 17.7334C128.09 17.7334 129.953 19.4332 129.953 22.6585Z" fill="#FA0C00"/>
<path d="M147.913 23.8793C149.569 23.8793 150.931 23.8466 151.399 23.7377C151.574 23.705 151.639 23.6396 151.672 23.498C151.77 23.1275 151.813 22.3539 151.813 21.4059C151.813 18.1806 149.874 14.2471 144.862 14.2471C139.74 14.2471 136.896 18.4203 136.896 23.1275C136.896 27.3007 139.098 31.6374 145.265 31.6374C147.575 31.6374 149.068 31.267 150.353 30.6568C150.484 30.5914 150.549 30.4824 150.549 30.2863V27.4642C150.549 27.3007 150.451 27.268 150.353 27.3334C149.068 27.8782 147.673 28.1506 146.147 28.1506C142.693 28.1506 141.124 26.2438 141.026 23.8793H147.913ZM141.026 20.9591C141.299 19.3029 142.345 17.505 144.687 17.505C147.27 17.505 147.945 19.6734 147.945 20.654C147.945 20.6867 147.945 20.8284 147.945 20.9264C147.804 20.9591 147.368 20.9591 146.082 20.9591H141.026Z" fill="#FA0C00"/>
</g>
<defs>
<clipPath id="clip0_4938_17514">
<rect width="151.813" height="40" fill="white"/>
</clipPath>
</defs>
</svg>
