<svg width="274" height="30" viewBox="0 0 274 30" fill="none" xmlns="http://www.w3.org/2000/svg">
<path d="M149.148 1.13477C139.533 1.13477 134.552 7.0496 134.552 15.0149C134.552 23.0118 139.533 28.9583 149.148 28.9583C158.795 28.9583 163.776 23.0118 163.776 15.0149C163.791 7.0496 158.795 1.13477 149.148 1.13477ZM232.502 1.13477C224.368 1.13477 220.286 4.36825 220.286 10.0942C220.286 14.747 222.998 16.9389 228.609 17.5378L234.851 18.2016C237.231 18.4695 238.319 19.3836 238.319 20.5822C238.319 21.9386 236.728 23.154 232.897 23.154C228.468 23.154 226.686 22.0332 226.386 19.7776H219.908C220.208 25.8661 224.164 28.9742 232.66 28.9742C240.415 28.9742 244.749 25.5662 244.749 20.4399C244.749 15.9765 242.181 13.2954 237.326 12.7435L231.179 12.0495C227.585 11.6554 226.686 10.7558 226.686 9.54096C226.686 8.18454 228.53 6.97073 232.14 6.97073C235.608 6.97073 237.42 8.26491 237.751 10.2049H244.357C244.025 4.60516 239.343 1.13477 232.502 1.13477ZM81.652 1.76547V18.8956C81.652 26.5291 88.4607 28.9109 94.1665 28.9109C99.8414 28.9109 106.619 26.5291 106.619 18.8956V1.76547H99.8728V18.1226H99.9045C99.9045 21.5614 97.7935 22.9485 94.1839 22.9485C90.6844 22.9485 88.3985 21.4983 88.3985 18.1226V1.76547H81.652ZM25.047 1.86031L1.4502 16.5277V28.3103H1.65413L25.3141 13.5797H37.5931C37.9718 13.5797 38.3186 13.8787 38.3186 14.3052C38.3186 14.6516 38.1611 14.7942 37.9724 14.9043L26.3542 21.8752C25.5975 22.3325 25.3299 23.2314 25.3299 23.9096L25.313 28.3103H40.0831V2.77553C40.0831 2.28671 39.7052 1.86031 39.1378 1.86031L25.047 1.86031ZM61.9485 1.86031L51.8115 28.3118H58.7792L60.5449 23.3579H71.8627L73.5968 28.3118H80.8L70.5381 1.86031L61.9485 1.86031ZM109.71 1.86031V7.58562H118.237V28.3118H124.968V7.58563H133.464V1.86031L109.71 1.86031ZM167.448 1.86031V28.3118H179.808C189.281 28.3118 191.897 24.7776 191.897 14.8885C191.897 5.59829 189.392 1.86031 179.808 1.86031H167.448ZM195.665 1.86031V28.3118H216.945V22.5849H202.412V17.7907H214.107V12.0495H202.412V7.58563H216.945V1.86031L195.665 1.86031ZM248.186 1.86031L248.217 28.3118H254.934V18.2649L264.045 28.3118H272.573L260.277 15.2521L272.573 1.86031H264.549L254.934 12.6012V1.86031L248.186 1.86031ZM149.148 7.08139C154.176 7.08139 156.873 10.1566 156.873 15.0149C156.888 19.9834 154.176 23.0117 149.148 23.0117C144.167 23.0117 141.425 19.9672 141.425 15.0149C141.425 10.1566 144.167 7.08139 149.148 7.08139ZM66.2512 7.36591L69.8916 17.7274H62.5461L66.2512 7.36591ZM174.18 7.58563H179.539C183.763 7.58563 185.024 8.73684 185.024 14.8885C185.024 20.5036 183.606 22.5849 179.539 22.5849H174.18V7.58563Z" fill="black"/>
</svg>
