<svg width="150" height="22" viewBox="0 0 150 22" fill="none" xmlns="http://www.w3.org/2000/svg">
<g clip-path="url(#clip0_442_141)">
<path fill-rule="evenodd" clip-rule="evenodd" d="M0 19.8279V3.39804V2.33058C0 1.49752 0.670126 0.822191 1.49677 0.822191L0 0.822191H15.0131H16.2866V17.4947H18.8732C18.8732 17.4947 21.1311 17.6813 22.9372 16.258C24.9304 14.6873 25.1105 13.2626 25.1105 10.9987C25.1105 8.94602 24.9304 7.61508 22.9372 5.97923C21.1214 4.48903 18.7465 4.62925 18.7465 4.62925C18.7465 4.62925 17.9934 4.63041 17.9934 2.69098C17.9934 0.751547 18.7465 0.822191 18.7465 0.822191C18.7465 0.822191 22.806 0.342961 26.3419 3.05024C30.5574 6.27773 30.3237 16.258 26.094 19.3271C23.6864 21.0741 19.3261 21.3363 19.3261 21.3363L1.49677 21.3363L1.4944 21.3363C0.668846 21.335 0 20.6601 0 19.8279ZM11.6722 10.9669C11.6454 9.83129 10.6863 8.93651 9.52997 8.96833C8.65275 8.99247 7.91401 9.5429 7.62015 10.303L4.34011 10.3901C3.63252 10.4089 3.32573 11.3026 3.87108 11.7563C4.01329 11.8747 4.19323 11.9371 4.37774 11.9322L7.65334 11.8452C7.65815 11.8562 7.66804 11.8779 7.66804 11.8779C8.00328 12.6072 8.7596 13.1045 9.62687 13.0806C10.7832 13.0488 11.699 12.1025 11.6722 10.9669Z" fill="#7C0DC6"/>
<path d="M32.4475 21.3624C31.9636 21.3624 31.6108 21.2616 31.3891 21.06C31.1875 20.8382 31.0867 20.5056 31.0867 20.0621V2.12987C31.0867 1.68635 31.1875 1.35371 31.3891 1.13195C31.6108 0.910195 31.9636 0.799316 32.4475 0.799316H34.7154C35.2194 0.799316 35.5722 0.910195 35.7738 1.13195C35.9754 1.33355 36.0762 1.66619 36.0762 2.12987V20.0621C36.0762 20.5056 35.9754 20.8382 35.7738 21.06C35.5722 21.2616 35.2194 21.3624 34.7154 21.3624H32.4475Z" fill="black"/>
<path d="M32.4475 21.3624C31.9636 21.3624 31.6108 21.2616 31.3891 21.06C31.1875 20.8382 31.0867 20.5056 31.0867 20.0621V2.12987C31.0867 1.68635 31.1875 1.35371 31.3891 1.13195C31.6108 0.910195 31.9636 0.799316 32.4475 0.799316H34.7154C35.2194 0.799316 35.5722 0.910195 35.7738 1.13195C35.9754 1.33355 36.0762 1.66619 36.0762 2.12987V20.0621C36.0762 20.5056 35.9754 20.8382 35.7738 21.06C35.5722 21.2616 35.2194 21.3624 34.7154 21.3624H32.4475Z" fill="black"/>
<path d="M48.7347 21.816C45.2269 21.816 42.5053 20.8987 40.5699 19.0641C38.6547 17.2094 37.6971 14.5483 37.6971 11.0808C37.6971 7.61334 38.6648 4.96231 40.6002 3.12777C42.5355 1.27306 45.247 0.345703 48.7347 0.345703C50.2063 0.345703 51.5571 0.496903 52.7868 0.799302C54.0166 1.08154 55.0346 1.49482 55.841 2.03913C56.0628 2.18025 56.1737 2.34153 56.1737 2.52297C56.1737 2.60361 56.1233 2.74473 56.0225 2.94633L54.8734 4.88168C54.7322 5.10343 54.5911 5.21431 54.45 5.21431C54.3492 5.21431 54.1879 5.15383 53.9662 5.03287C52.6356 4.30712 51.1035 3.94424 49.3697 3.94424C47.2731 3.94424 45.6301 4.53896 44.4406 5.72839C43.2512 6.91782 42.6565 8.70197 42.6565 11.0808C42.6565 13.4799 43.2109 15.264 44.3197 16.4333C45.4285 17.6026 46.9908 18.1872 49.0068 18.1872C49.6519 18.1872 50.287 18.1368 50.9119 18.036C51.5369 17.9352 52.0409 17.7941 52.4239 17.6126V12.9557H49.1278C48.644 12.9557 48.3113 12.865 48.1299 12.6835C47.9484 12.4819 47.8577 12.1493 47.8577 11.6856V10.597C47.8577 10.1535 47.9484 9.841 48.1299 9.65956C48.3113 9.45797 48.644 9.35717 49.1278 9.35717H55.5386C56.1031 9.35717 56.4962 9.48821 56.718 9.75029C56.9599 10.0124 57.0809 10.4156 57.0809 10.9599V18.6408C57.0809 18.9835 57.0405 19.2456 56.9599 19.427C56.8793 19.6085 56.718 19.7798 56.4761 19.9411C54.5206 21.191 51.9401 21.816 48.7347 21.816Z" fill="black"/>
<path d="M59.9912 21.4703C59.5074 21.4703 59.1546 21.3695 58.9328 21.1679C58.7312 20.9461 58.6304 20.6135 58.6304 20.17V2.23778C58.6304 1.79426 58.7312 1.46162 58.9328 1.23986C59.1546 1.01811 59.5074 0.907227 59.9912 0.907227H62.2592C62.7632 0.907227 63.116 1.01811 63.3176 1.23986C63.5192 1.44146 63.62 1.7741 63.62 2.23778V20.17C63.62 20.6135 63.5192 20.9461 63.3176 21.1679C63.116 21.3695 62.7632 21.4703 62.2592 21.4703H59.9912Z" fill="black"/>
<path d="M66.9545 16.6448C66.511 16.6448 66.2086 16.5541 66.0473 16.3727C65.886 16.1711 65.8054 15.8687 65.8054 15.4655V14.1349C65.8054 13.7317 65.886 13.4394 66.0473 13.258C66.2086 13.0564 66.511 12.9556 66.9545 12.9556H76.9941C77.4174 12.9556 77.7098 13.0564 77.871 13.258C78.0525 13.4394 78.1432 13.7317 78.1432 14.1349V15.4655C78.1432 15.8687 78.0525 16.1711 77.871 16.3727C77.7098 16.5541 77.4174 16.6448 76.9941 16.6448H66.9545Z" fill="black"/>
<path d="M96.6101 20.3645C96.731 20.5056 96.7915 20.6669 96.7915 20.8483C96.7915 21.191 96.6101 21.3624 96.2472 21.3624H92.4672C92.2253 21.3624 92.0338 21.3422 91.8926 21.3019C91.7717 21.2414 91.6507 21.1406 91.5298 20.9995L84.8468 12.23L84.7561 12.109V20.0621C84.7561 20.5056 84.6553 20.8382 84.4537 21.06C84.2521 21.2616 83.8993 21.3624 83.3953 21.3624H81.1273C80.6434 21.3624 80.2906 21.2616 80.0689 21.06C79.8673 20.8382 79.7665 20.5056 79.7665 20.0621V2.12987C79.7665 1.68635 79.8673 1.35371 80.0689 1.13195C80.2906 0.910196 80.6434 0.799316 81.1273 0.799316H83.3953C83.8993 0.799316 84.2521 0.910196 84.4537 1.13195C84.6553 1.33355 84.7561 1.66619 84.7561 2.12987V9.93174L91.3181 1.19243C91.439 1.03115 91.56 0.930355 91.681 0.890035C91.8221 0.829556 92.0338 0.799316 92.316 0.799316H96.0355C96.3984 0.799316 96.5798 0.970675 96.5798 1.31339C96.5798 1.47467 96.5193 1.63595 96.3984 1.79723L89.2315 11.0204L96.6101 20.3645Z" fill="black"/>
<path d="M99.7466 21.3924C99.2628 21.3924 98.91 21.2916 98.6882 21.09C98.4866 20.8683 98.3858 20.5356 98.3858 20.0921V2.1599C98.3858 1.71638 98.4866 1.38374 98.6882 1.16198C98.91 0.940225 99.2628 0.829346 99.7466 0.829346H112.296C112.78 0.829346 113.113 0.930145 113.294 1.13174C113.475 1.31318 113.566 1.63574 113.566 2.09942V3.21829C113.566 3.68197 113.475 4.01461 113.294 4.2162C113.113 4.4178 112.78 4.5186 112.296 4.5186H103.375V9.29649H109.605C110.089 9.29649 110.421 9.39729 110.603 9.59889C110.784 9.78033 110.875 10.1029 110.875 10.5666V11.625C110.875 12.0886 110.784 12.4213 110.603 12.6229C110.421 12.8245 110.089 12.9253 109.605 12.9253H103.375V17.7334H112.266C112.75 17.7334 113.082 17.8342 113.264 18.0358C113.445 18.2374 113.536 18.57 113.536 19.0337V20.1223C113.536 20.586 113.445 20.9187 113.264 21.1203C113.082 21.3017 112.75 21.3924 112.266 21.3924H99.7466Z" fill="black"/>
<path d="M123.389 21.5135C122.905 21.5135 122.552 21.4127 122.331 21.2111C122.129 20.9894 122.028 20.6567 122.028 20.2132V14.4979L114.71 1.94835C114.609 1.78707 114.559 1.62579 114.559 1.46451C114.559 1.3234 114.609 1.20244 114.71 1.10164C114.831 1.00084 114.982 0.950439 115.164 0.950439H118.793C119.075 0.950439 119.276 1.00084 119.397 1.10164C119.518 1.18228 119.639 1.33348 119.76 1.55523L124.538 9.93166L129.316 1.55523C129.437 1.33348 129.558 1.18228 129.679 1.10164C129.8 1.00084 129.991 0.950439 130.253 0.950439H133.912C134.094 0.950439 134.235 1.00084 134.336 1.10164C134.457 1.20244 134.517 1.3234 134.517 1.46451C134.517 1.62579 134.467 1.78707 134.366 1.94835L127.048 14.5281V20.2132C127.048 20.6567 126.937 20.9894 126.715 21.2111C126.514 21.4127 126.161 21.5135 125.657 21.5135H123.389Z" fill="black"/>
<path d="M142.289 21.4703C140.716 21.4703 139.204 21.309 137.753 20.9864C136.322 20.6437 135.162 20.17 134.275 19.5652C133.973 19.3434 133.822 19.1418 133.822 18.9604C133.822 18.8394 133.872 18.6983 133.973 18.537L135.213 16.5714C135.334 16.3698 135.465 16.269 135.606 16.269C135.727 16.269 135.878 16.3295 136.059 16.4505C136.805 16.8738 137.662 17.2165 138.63 17.4786C139.598 17.7407 140.575 17.8717 141.563 17.8717C142.732 17.8717 143.599 17.6903 144.164 17.3274C144.728 16.9444 145.01 16.3497 145.01 15.5433C145.01 14.9989 144.869 14.5554 144.587 14.2127C144.325 13.87 143.922 13.5676 143.377 13.3055C142.853 13.0434 142.037 12.7007 140.928 12.2774C139.638 11.7935 138.539 11.2996 137.632 10.7956C136.745 10.2916 136.009 9.6465 135.424 8.86027C134.86 8.05387 134.578 7.07612 134.578 5.927C134.578 4.01182 135.273 2.55022 136.664 1.54223C138.055 0.514077 139.89 0 142.168 0C145.172 0 147.47 0.564476 149.063 1.69343C149.365 1.93535 149.516 2.13695 149.516 2.29823C149.516 2.41919 149.466 2.5603 149.365 2.72158L148.125 4.68717C148.004 4.88877 147.873 4.98957 147.732 4.98957C147.611 4.98957 147.46 4.92909 147.278 4.80813C146.049 4.00174 144.557 3.59854 142.803 3.59854C140.626 3.59854 139.537 4.38477 139.537 5.95724C139.537 6.4814 139.658 6.91484 139.9 7.25756C140.162 7.58011 140.515 7.86235 140.958 8.10427C141.402 8.32603 142.097 8.61835 143.045 8.98122L143.892 9.31386C145.363 9.8985 146.522 10.4529 147.369 10.9771C148.216 11.481 148.861 12.106 149.304 12.8519C149.768 13.5978 150 14.5554 150 15.7247C150 17.4786 149.335 18.8797 148.004 19.928C146.694 20.9562 144.789 21.4703 142.289 21.4703Z" fill="black"/>
</g>
<defs>
<clipPath id="clip0_442_141">
<rect width="150" height="21.8159" fill="white"/>
</clipPath>
</defs>
</svg>
