<svg width="24" height="24" viewBox="0 0 24 24" fill="none" xmlns="http://www.w3.org/2000/svg">
<path fill-rule="evenodd" clip-rule="evenodd" d="M20 12V17.7646C20 18.7916 18.9192 19.4596 18.0006 19.0003C17.2582 18.6291 16.3738 18.6842 15.6831 19.1446C14.9061 19.6626 13.8939 19.6626 13.1169 19.1446L12.8348 18.9565C12.3293 18.6195 11.6707 18.6195 11.1652 18.9565L10.8831 19.1446C10.1061 19.6626 9.09389 19.6626 8.31691 19.1446C7.62624 18.6842 6.74181 18.6291 5.99936 19.0003C5.08078 19.4596 4 18.7916 4 17.7646V12C4 7.58172 7.58172 4 12 4C16.4183 4 20 7.58172 20 12ZM9.95729 13.918C9.69108 13.7207 9.31531 13.7765 9.11798 14.0427C8.92065 14.3089 8.9765 14.6847 9.24271 14.882C10.0206 15.4586 10.972 15.8 12 15.8C13.028 15.8 13.9794 15.4586 14.7573 14.882C15.0235 14.6847 15.0793 14.3089 14.882 14.0427C14.6847 13.7765 14.3089 13.7207 14.0427 13.918C13.46 14.3499 12.7567 14.6 12 14.6C11.2433 14.6 10.54 14.3499 9.95729 13.918ZM15.2 10C15.2 10.6627 14.8418 11.2 14.4 11.2C13.9582 11.2 13.6 10.6627 13.6 10C13.6 9.33726 13.9582 8.8 14.4 8.8C14.8418 8.8 15.2 9.33726 15.2 10ZM9.6 11.2C10.0418 11.2 10.4 10.6627 10.4 10C10.4 9.33726 10.0418 8.8 9.6 8.8C9.15817 8.8 8.8 9.33726 8.8 10C8.8 10.6627 9.15817 11.2 9.6 11.2Z" fill="#767676"/>
</svg>
