<svg width="196" height="25" viewBox="0 0 196 25" fill="none" xmlns="http://www.w3.org/2000/svg">
<mask id="mask0_533_1666" style="mask-type:luminance" maskUnits="userSpaceOnUse" x="0" y="0" width="116" height="25">
<path d="M115.722 0H0V25H115.722V0Z" fill="white"/>
</mask>
<g mask="url(#mask0_533_1666)">
<path d="M40.8542 14.3994L40.1644 16.3761H40.1069C39.9919 15.9304 39.7811 15.2521 39.4362 14.4381L35.7379 5.03892H32.1162V20.0195H34.5115V10.7753C34.5115 10.1939 34.5115 9.53503 34.4923 8.72108C34.4732 8.31411 34.4349 8.00403 34.4157 7.77147H34.4732C34.5882 8.35286 34.7223 8.77922 34.8181 9.05054L39.2638 19.9807H40.9501L45.3574 8.95364C45.4532 8.7017 45.549 8.19783 45.6448 7.77147H45.7023C45.6448 8.87612 45.6065 9.86449 45.5873 10.4652V19.9614H48.1359V5.00016H44.6484L40.8542 14.3994ZM50.5504 9.22496H53.0415V19.9614H50.5504V9.22496ZM51.8151 4.69008C51.3935 4.69008 51.0486 4.84512 50.7612 5.11643C50.4737 5.38775 50.3204 5.73659 50.3204 6.16294C50.3204 6.56992 50.4737 6.91876 50.7612 7.19008C51.0486 7.46139 51.3935 7.59705 51.8151 7.59705C52.2367 7.59705 52.6008 7.44201 52.869 7.19008C53.1565 6.91876 53.3098 6.56992 53.3098 6.16294C53.3098 5.75597 53.1565 5.40713 52.869 5.11643C52.6199 4.84512 52.2558 4.69008 51.8151 4.69008ZM61.8753 9.12806C61.4154 9.03116 60.9364 8.97302 60.4765 8.97302C59.3459 8.97302 58.3111 9.22496 57.4488 9.72883C56.5865 10.2327 55.8967 10.9304 55.4559 11.8025C54.996 12.6939 54.7661 13.7211 54.7661 14.9032C54.7661 15.9304 54.996 16.8412 55.4368 17.6745C55.8775 18.4885 56.4907 19.1474 57.3147 19.5931C58.1004 20.0389 59.0201 20.2714 60.0549 20.2714C61.243 20.2714 62.2586 20.0195 63.0634 19.5544L63.0826 19.535V17.2094L62.9867 17.2869C62.6227 17.5583 62.2011 17.7908 61.7795 17.9265C61.3388 18.0815 60.9364 18.159 60.5915 18.159C59.595 18.159 58.8094 17.8683 58.2536 17.2288C57.6788 16.6087 57.3913 15.7559 57.3913 14.69C57.3913 13.5854 57.6788 12.7133 58.2728 12.0738C58.8668 11.4342 59.6525 11.1048 60.6106 11.1048C61.4154 11.1048 62.2394 11.3761 62.9867 11.9187L63.0826 11.9963V9.53503L63.0634 9.51565C62.7376 9.38 62.3736 9.22496 61.8753 9.12806ZM70.096 9.05054C69.4828 9.05054 68.9079 9.24434 68.4097 9.65131C67.9881 10.0001 67.7007 10.504 67.4516 11.1048H67.4324V9.22496H64.9413V19.9614H67.4324V14.4769C67.4324 13.5466 67.624 12.7714 68.0456 12.2094C68.4672 11.628 69.0037 11.3373 69.6552 11.3373C69.8852 11.3373 70.1151 11.3955 70.4026 11.4342C70.6708 11.5118 70.8625 11.5893 70.9966 11.6862L71.0924 11.7637V9.24434L71.0349 9.22496C70.8625 9.10868 70.5175 9.05054 70.096 9.05054ZM76.8795 8.9924C75.1357 8.9924 73.7368 9.51565 72.7595 10.5428C71.7631 11.5699 71.284 12.9846 71.284 14.7676C71.284 16.4342 71.7823 17.7908 72.7404 18.7792C73.6985 19.7482 75.0015 20.2521 76.6303 20.2521C78.3358 20.2521 79.6963 19.7288 80.6736 18.6823C81.67 17.6358 82.1491 16.2404 82.1491 14.5156C82.1491 12.8102 81.6892 11.4536 80.7502 10.4652C79.8496 9.4769 78.5274 8.9924 76.8795 8.9924ZM78.8723 17.2482C78.4124 17.849 77.6843 18.1397 76.7836 18.1397C75.883 18.1397 75.1548 17.849 74.6375 17.2094C74.1201 16.6087 73.871 15.7366 73.871 14.6319C73.871 13.4885 74.1392 12.6164 74.6375 11.9963C75.1548 11.3761 75.8638 11.066 76.7645 11.066C77.6459 11.066 78.3358 11.3567 78.834 11.9575C79.3322 12.5583 79.6005 13.4304 79.6005 14.5738C79.5622 15.7366 79.3514 16.6474 78.8723 17.2482ZM87.7062 13.6823C86.9205 13.3528 86.4223 13.1009 86.1923 12.8877C86.0007 12.6939 85.9049 12.4226 85.9049 12.0738C85.9049 11.7831 86.0199 11.4924 86.3073 11.2986C86.5948 11.1048 86.9205 11.0079 87.3996 11.0079C87.8211 11.0079 88.2619 11.0854 88.6834 11.2017C89.105 11.318 89.4883 11.4924 89.7949 11.7249L89.8907 11.8025V9.43813L89.8332 9.41875C89.5458 9.30248 89.1625 9.1862 88.7026 9.0893C88.2427 9.01178 87.8211 8.97302 87.4762 8.97302C86.2882 8.97302 85.3109 9.26372 84.5444 9.90325C83.7779 10.504 83.4138 11.318 83.4138 12.2676C83.4138 12.7714 83.4905 13.2172 83.6629 13.5854C83.8354 13.9536 84.0845 14.3025 84.4294 14.5931C84.7743 14.8645 85.2726 15.1745 85.9624 15.4652C86.5373 15.7172 86.978 15.911 87.2463 16.066C87.5145 16.2211 87.687 16.3955 87.8211 16.5311C87.917 16.6862 87.9744 16.88 87.9744 17.1319C87.9744 17.849 87.4379 18.1978 86.3456 18.1978C85.9241 18.1978 85.4833 18.1203 84.966 17.9459C84.4486 17.7714 83.9695 17.5195 83.5671 17.2288L83.4713 17.1513V19.6125L83.5288 19.6319C83.8929 19.8063 84.3336 19.9226 84.8701 20.0583C85.4067 20.1552 85.8857 20.2327 86.3073 20.2327C87.5912 20.2327 88.6451 19.942 89.3925 19.3024C90.159 18.6823 90.5614 17.8877 90.5614 16.8606C90.5614 16.1435 90.3697 15.504 89.9482 15.0195C89.3925 14.5544 88.7026 14.0699 87.7062 13.6823ZM97.134 8.9924C95.3903 8.9924 93.9914 9.51565 93.0141 10.5428C92.0369 11.5699 91.5386 12.9846 91.5386 14.7676C91.5386 16.4342 92.0369 17.7908 92.995 18.7792C93.9531 19.7482 95.2561 20.2521 96.8849 20.2521C98.5904 20.2521 99.9509 19.7288 100.928 18.6823C101.925 17.6358 102.404 16.2404 102.404 14.5156C102.404 12.8102 101.944 11.4536 101.005 10.4652C100.104 9.4769 98.782 8.9924 97.134 8.9924ZM99.1078 17.2482C98.6479 17.849 97.9197 18.1397 97.0191 18.1397C96.0993 18.1397 95.3903 17.849 94.8729 17.2094C94.3555 16.6087 94.1064 15.7366 94.1064 14.6319C94.1064 13.4885 94.3747 12.6164 94.8729 11.9963C95.3903 11.3761 96.0993 11.066 96.9999 11.066C97.8622 11.066 98.5712 11.3567 99.0694 11.9575C99.5677 12.5583 99.8359 13.4304 99.8359 14.5738C99.8359 15.7366 99.5868 16.6474 99.1078 17.2482ZM115.722 11.2986V9.22496H113.211V6.04667L113.135 6.06605L110.758 6.7831L110.701 6.80248V9.22496H106.945V7.86837C106.945 7.24821 107.098 6.76372 107.367 6.45364C107.635 6.14357 108.037 5.98853 108.536 5.98853C108.881 5.98853 109.245 6.06605 109.647 6.24046L109.743 6.2986V4.10868L109.685 4.0893C109.34 3.97303 108.881 3.89551 108.287 3.89551C107.539 3.89551 106.888 4.06992 106.294 4.36062C105.7 4.69008 105.259 5.13581 104.933 5.73659C104.607 6.31798 104.435 6.9769 104.435 7.73271V9.22496H102.691V11.2792H104.435V19.9614H106.945V11.2986H110.701V16.8218C110.701 19.0893 111.755 20.2327 113.863 20.2327C114.208 20.2327 114.572 20.1745 114.917 20.1164C115.281 20.0389 115.549 19.942 115.702 19.8645L115.722 19.8451V17.7714L115.626 17.849C115.472 17.9459 115.338 18.0234 115.108 18.0815C114.917 18.1397 114.744 18.159 114.61 18.159C114.112 18.159 113.767 18.0428 113.518 17.7521C113.288 17.4807 113.173 17.035 113.173 16.3761V11.2986H115.722Z" fill="#737373"/>
<path d="M0 0H11.7465V11.8798H0V0Z" fill="#F25022"/>
<path d="M12.9727 0H24.7192V11.8798H12.9727V0Z" fill="#7FBA00"/>
<path d="M0 13.1201H11.7465V24.9999H0V13.1201Z" fill="#00A4EF"/>
<path d="M12.9727 13.1201H24.7192V24.9999H12.9727V13.1201Z" fill="#FFB900"/>
</g>
<path d="M124.435 20V5.45459H129.889C131.007 5.45459 131.944 5.66292 132.702 6.07959C133.464 6.49625 134.039 7.06917 134.428 7.79834C134.821 8.52277 135.017 9.34663 135.017 10.2699C135.017 11.2027 134.821 12.0312 134.428 12.7557C134.035 13.4801 133.455 14.0507 132.688 14.4673C131.92 14.8793 130.976 15.0852 129.854 15.0852H126.239V12.919H129.499C130.152 12.919 130.687 12.8054 131.104 12.5781C131.52 12.3509 131.828 12.0384 132.027 11.6406C132.231 11.2429 132.332 10.786 132.332 10.2699C132.332 9.75383 132.231 9.29928 132.027 8.90629C131.828 8.5133 131.518 8.2079 131.097 7.9901C130.68 7.76756 130.143 7.65629 129.484 7.65629H127.07V20H124.435ZM140.136 20.2202C139.445 20.2202 138.822 20.0971 138.268 19.8509C137.719 19.5999 137.283 19.2306 136.961 18.7429C136.644 18.2552 136.485 17.6539 136.485 16.9389C136.485 16.3234 136.599 15.8144 136.826 15.4119C137.054 15.0095 137.364 14.6875 137.757 14.446C138.15 14.2045 138.592 14.0223 139.085 13.8991C139.582 13.7713 140.096 13.679 140.626 13.6222C141.265 13.5559 141.784 13.4967 142.181 13.4446C142.579 13.3878 142.868 13.3026 143.048 13.1889C143.233 13.0705 143.325 12.8883 143.325 12.642V12.5994C143.325 12.0644 143.166 11.6501 142.849 11.3565C142.532 11.063 142.075 10.9162 141.478 10.9162C140.849 10.9162 140.349 11.0535 139.98 11.3281C139.615 11.6027 139.369 11.9271 139.241 12.3011L136.841 11.9602C137.03 11.2973 137.342 10.7434 137.778 10.2983C138.214 9.84852 138.746 9.51235 139.376 9.28981C140.006 9.06254 140.702 8.9489 141.464 8.9489C141.99 8.9489 142.513 9.01046 143.034 9.13356C143.555 9.25667 144.03 9.46027 144.461 9.74436C144.892 10.0237 145.238 10.4048 145.498 10.8878C145.763 11.3707 145.896 11.9744 145.896 12.6989V20H143.424V18.5014H143.339C143.183 18.8045 142.963 19.0885 142.679 19.3537C142.399 19.6141 142.047 19.8248 141.62 19.9858C141.199 20.142 140.704 20.2202 140.136 20.2202ZM140.804 18.331C141.32 18.331 141.767 18.2292 142.146 18.0256C142.525 17.8172 142.816 17.5426 143.02 17.2017C143.228 16.8608 143.332 16.4891 143.332 16.0866V14.8011C143.252 14.8674 143.114 14.929 142.92 14.9858C142.731 15.0426 142.518 15.0923 142.281 15.1349C142.044 15.1776 141.81 15.2154 141.578 15.2486C141.346 15.2817 141.145 15.3101 140.974 15.3338C140.591 15.3859 140.247 15.4711 139.944 15.5895C139.641 15.7079 139.402 15.8736 139.227 16.0866C139.052 16.295 138.964 16.5649 138.964 16.8963C138.964 17.3698 139.137 17.7273 139.483 17.9688C139.828 18.2102 140.269 18.331 140.804 18.331ZM148.481 20V9.09095H150.974V10.9091H151.088C151.287 10.2794 151.627 9.79407 152.11 9.45316C152.598 9.10752 153.154 8.9347 153.779 8.9347C153.922 8.9347 154.08 8.9418 154.255 8.95601C154.435 8.96548 154.584 8.98205 154.703 9.00572V11.3707C154.594 11.3329 154.421 11.2997 154.184 11.2713C153.952 11.2382 153.727 11.2216 153.51 11.2216C153.041 11.2216 152.619 11.3234 152.245 11.527C151.876 11.7259 151.585 12.0028 151.372 12.358C151.159 12.7131 151.052 13.1226 151.052 13.5866V20H148.481ZM162.444 9.09095V11.0795H156.173V9.09095H162.444ZM157.721 6.47731H160.292V16.7188C160.292 17.0644 160.344 17.3295 160.449 17.5142C160.557 17.6941 160.699 17.8172 160.875 17.8835C161.05 17.9498 161.244 17.983 161.457 17.983C161.618 17.983 161.765 17.9711 161.897 17.9474C162.035 17.9238 162.139 17.9025 162.21 17.8835L162.643 19.8935C162.506 19.9408 162.309 19.9929 162.054 20.0497C161.803 20.1065 161.495 20.1397 161.13 20.1491C160.486 20.1681 159.906 20.071 159.39 19.858C158.874 19.6402 158.465 19.304 158.162 18.8494C157.863 18.3949 157.717 17.8267 157.721 17.1449V6.47731ZM167.165 13.608V20H164.594V9.09095H167.052V10.9446H167.18C167.431 10.3338 167.831 9.84852 168.38 9.48868C168.934 9.12883 169.618 8.9489 170.433 8.9489C171.185 8.9489 171.841 9.10989 172.4 9.43186C172.963 9.75383 173.399 10.2202 173.707 10.831C174.019 11.4418 174.173 12.1828 174.168 13.054V20H171.597V13.4517C171.597 12.7225 171.408 12.152 171.029 11.7401C170.655 11.3281 170.137 11.1222 169.474 11.1222C169.024 11.1222 168.624 11.2216 168.273 11.4205C167.928 11.6146 167.656 11.8963 167.457 12.2656C167.263 12.6349 167.165 13.0824 167.165 13.608ZM181.612 20.2131C180.518 20.2131 179.573 19.9858 178.778 19.5312C177.987 19.072 177.379 18.4233 176.952 17.5852C176.526 16.7424 176.313 15.7505 176.313 14.6094C176.313 13.4872 176.526 12.5024 176.952 11.6548C177.383 10.8026 177.985 10.1397 178.756 9.66623C179.528 9.18801 180.435 8.9489 181.477 8.9489C182.149 8.9489 182.783 9.05781 183.38 9.27561C183.981 9.48868 184.512 9.82012 184.971 10.2699C185.435 10.7197 185.799 11.2926 186.065 11.9886C186.33 12.6799 186.462 13.5038 186.462 14.4602V15.2486H177.521V13.5156H183.998C183.993 13.0232 183.887 12.5852 183.678 12.2017C183.47 11.8134 183.179 11.508 182.805 11.2855C182.435 11.063 182.004 10.9517 181.512 10.9517C180.987 10.9517 180.525 11.0795 180.127 11.3352C179.729 11.5862 179.419 11.9176 179.197 12.3295C178.979 12.7367 178.868 13.1842 178.863 13.6719V15.1847C178.863 15.8191 178.979 16.3636 179.211 16.8182C179.443 17.268 179.767 17.6136 180.184 17.8551C180.601 18.0919 181.088 18.2102 181.647 18.2102C182.021 18.2102 182.36 18.1581 182.663 18.054C182.966 17.9451 183.228 17.7865 183.451 17.5781C183.674 17.3698 183.842 17.1117 183.955 16.804L186.356 17.0739C186.204 17.7083 185.915 18.2623 185.489 18.7358C185.068 19.2045 184.528 19.5691 183.87 19.8295C183.212 20.0852 182.459 20.2131 181.612 20.2131ZM188.637 20V9.09095H191.13V10.9091H191.244C191.443 10.2794 191.784 9.79407 192.267 9.45316C192.754 9.10752 193.311 8.9347 193.936 8.9347C194.078 8.9347 194.236 8.9418 194.412 8.95601C194.592 8.96548 194.741 8.98205 194.859 9.00572V11.3707C194.75 11.3329 194.577 11.2997 194.341 11.2713C194.109 11.2382 193.884 11.2216 193.666 11.2216C193.197 11.2216 192.776 11.3234 192.402 11.527C192.032 11.7259 191.741 12.0028 191.528 12.358C191.315 12.7131 191.208 13.1226 191.208 13.5866V20H188.637Z" fill="#737373"/>
</svg>
