<svg width="24" height="24" viewBox="0 0 24 24" fill="none" xmlns="http://www.w3.org/2000/svg">
<path opacity="0.5" d="M20 12C20 16.4183 16.4183 20 12 20C7.58172 20 4 16.4183 4 12C4 7.58172 7.58172 4 12 4C16.4183 4 20 7.58172 20 12Z" fill="#EB5757"/>
<path d="M9.57564 9.57564C9.80995 9.34132 10.1899 9.34132 10.4242 9.57564L11.9999 11.1514L13.5756 9.57565C13.81 9.34134 14.1899 9.34134 14.4242 9.57565C14.6585 9.80997 14.6585 10.1899 14.4242 10.4242L12.8484 11.9999L14.4241 13.5756C14.6585 13.8099 14.6585 14.1898 14.4241 14.4242C14.1898 14.6585 13.8099 14.6585 13.5756 14.4242L11.9999 12.8484L10.4242 14.4242C10.1899 14.6585 9.80997 14.6585 9.57566 14.4242C9.34134 14.1899 9.34134 13.81 9.57566 13.5756L11.1514 11.9999L9.57564 10.4242C9.34132 10.1899 9.34132 9.80995 9.57564 9.57564Z" fill="#EB5757"/>
</svg>
