<svg width="24" height="24" viewBox="0 0 24 24" fill="none" xmlns="http://www.w3.org/2000/svg">
<path d="M12 24C18.6274 24 24 18.6274 24 12C24 5.37258 18.6274 0 12 0C5.37258 0 0 5.37258 0 12C0 18.6274 5.37258 24 12 24Z" fill="#FAFAFA"/>
<path fill-rule="evenodd" clip-rule="evenodd" d="M12 15.444C11.1527 16.1583 10.0535 16.5894 8.85246 16.5894C6.17252 16.5894 4 14.4428 4 11.7947C4 9.1467 6.17252 7 8.85246 7C10.0535 7 11.1527 7.43116 12 8.14539C12.8473 7.43116 13.9465 7 15.1475 7C17.8275 7 20 9.1467 20 11.7947C20 14.4428 17.8275 16.5894 15.1475 16.5894C13.9465 16.5894 12.8473 16.1583 12 15.444Z" fill="#ED0006"/>
</svg>
