<svg width="24" height="24" viewBox="0 0 24 24" fill="none" xmlns="http://www.w3.org/2000/svg">
<path d="M12 24C18.6274 24 24 18.6274 24 12C24 5.37258 18.6274 0 12 0C5.3726 0 0 5.37258 0 12C0 18.6274 5.3726 24 12 24Z" fill="#EFF2FF"/>
<path fill-rule="evenodd" clip-rule="evenodd" d="M7.5002 14.8675H5.9424L4.7743 10.2799C4.7188 10.0689 4.6011 9.8823 4.4279 9.7944C3.9957 9.5734 3.5195 9.3975 3 9.3088V9.1322H5.5095C5.8558 9.1322 6.1156 9.3975 6.1589 9.7057L6.765 13.0149L8.322 9.1322H9.8365L7.5002 14.8675ZM10.7024 14.8675H9.2312L10.4426 9.1322H11.9138L10.7024 14.8675ZM13.8172 10.7211C13.8605 10.4122 14.1202 10.2356 14.4233 10.2356C14.8995 10.1913 15.4183 10.28 15.8512 10.5002L16.1109 9.2653C15.678 9.0887 15.2018 9 14.7696 9C13.3417 9 12.3027 9.7944 12.3027 10.897C12.3027 11.7358 13.0387 12.1762 13.5582 12.4415C14.1202 12.706 14.3367 12.8827 14.2934 13.1472C14.2934 13.5441 13.8605 13.7207 13.4283 13.7207C12.9088 13.7207 12.3893 13.5884 11.9138 13.3674L11.654 14.603C12.1736 14.8232 12.7356 14.9119 13.2551 14.9119C14.8562 14.9555 15.8512 14.1619 15.8512 12.9706C15.8512 11.4704 13.8172 11.3825 13.8172 10.7211ZM21 14.8675L19.8318 9.1322H18.5771C18.3174 9.1322 18.0576 9.3088 17.971 9.5734L15.8079 14.8675H17.3224L17.6247 14.0295H19.4855L19.6587 14.8675H21ZM18.7936 10.6768L19.2258 12.8384H18.0143L18.7936 10.6768Z" fill="#172B85"/>
</svg>
