<svg width="24" height="24" viewBox="0 0 24 24" fill="none" xmlns="http://www.w3.org/2000/svg">
<path d="M12 24C18.6274 24 24 18.6274 24 12C24 5.37258 18.6274 0 12 0C5.3726 0 0 5.37258 0 12C0 18.6274 5.3726 24 12 24Z" fill="#FAFAFA"/>
<path d="M14.1634 8.11914H9.83691V15.8939H14.1634V8.11914Z" fill="#7375CF"/>
<path d="M10.1116 12.007C10.1109 11.2583 10.2806 10.5192 10.6078 9.84566C10.935 9.17217 11.4111 8.58193 12.0001 8.11964C11.2707 7.5463 10.3947 7.18975 9.4722 7.09074C8.5497 6.99173 7.618 7.15426 6.7835 7.55974C5.949 7.96523 5.2455 8.59732 4.7533 9.38376C4.261 10.1702 4 11.0793 4 12.007C4 12.9348 4.261 13.8439 4.7533 14.6303C5.2455 15.4168 5.949 16.0489 6.7835 16.4543C7.618 16.8598 8.5497 17.0224 9.4722 16.9233C10.3947 16.8243 11.2707 16.4678 12.0001 15.8944C11.4111 15.4322 10.935 14.8419 10.6078 14.1684C10.2806 13.4949 10.1109 12.7558 10.1116 12.007Z" fill="#EB001B"/>
<path d="M19.528 15.0708V14.9117H19.5922V14.8792H19.4287V14.9117H19.4929V15.0708H19.528ZM19.8453 15.0708V14.8789H19.7952L19.7376 15.0109L19.6799 14.8789H19.6298V15.0708H19.6652V14.9261L19.7192 15.0509H19.7559L19.81 14.9257V15.0708H19.8453Z" fill="#00A2E5"/>
<path d="M19.9999 12.007C19.9999 12.9348 19.7389 13.8439 19.2467 14.6303C18.7545 15.4167 18.051 16.0488 17.2165 16.4543C16.382 16.8598 15.4503 17.0224 14.5279 16.9233C13.6054 16.8243 12.7294 16.4678 12 15.8944C12.5885 15.4317 13.0643 14.8414 13.3914 14.168C13.7185 13.4946 13.8885 12.7557 13.8885 12.007C13.8885 11.2584 13.7185 10.5195 13.3914 9.84612C13.0643 9.17273 12.5885 8.5824 12 8.11964C12.7294 7.5463 13.6054 7.18975 14.5279 7.09074C15.4503 6.99173 16.382 7.15426 17.2165 7.55975C18.051 7.96524 18.7545 8.59733 19.2467 9.38377C19.7389 10.1702 19.9999 11.0793 19.9999 12.007Z" fill="#00A2E5"/>
</svg>
