<svg width="24" height="24" viewBox="0 0 24 24" fill="none" xmlns="http://www.w3.org/2000/svg">
<path d="M12 24C18.627 24 24 18.6274 24 12C24 5.37258 18.627 0 12 0C5.3726 0 0 5.37258 0 12C0 18.6274 5.3726 24 12 24Z" fill="#F1FFFB"/>
<mask id="mask0_112_366" style="mask-type:luminance" maskUnits="userSpaceOnUse" x="3" y="9" width="18" height="6">
<path d="M21 9.5H3V14.54H21V9.5Z" fill="white"/>
</mask>
<g mask="url(#mask0_112_366)">
<path d="M6.9371 10.1615L6.2688 12.4767H6.1544L5.4861 10.1615C5.3717 9.7697 5.0129 9.5 4.6028 9.5H3V14.54H4.6048V11.5613H4.7192L5.6379 14.54H6.7853L7.7021 11.5613H7.8164V14.54H9.4213V9.5H7.8184C7.4103 9.5 7.0515 9.7697 6.9371 10.1615ZM15.823 14.54H17.437V13.0497H19.062C19.912 13.0497 20.635 12.5693 20.915 11.894H15.823V14.54ZM12.962 10.0316L11.832 12.4787H11.718V9.5H10.113V14.54H11.476C11.834 14.54 12.16 14.3313 12.31 14.0084L13.439 11.5632H13.554V14.54H15.158V9.5H13.796C13.437 9.5 13.112 9.7087 12.962 10.0316Z" fill="#006848"/>
<path d="M19.222 9.5C19.685 9.5 20.105 9.6772 20.423 9.9686C20.777 10.2914 21 10.7561 21 11.2738C21 11.3802 20.988 11.4845 20.971 11.5869H17.99C16.98 11.5869 16.125 10.9254 15.837 10.0119C15.833 10.002 15.831 9.9902 15.827 9.9784C15.819 9.9508 15.813 9.9213 15.805 9.8937C15.776 9.7658 15.756 9.6358 15.748 9.5H19.222Z" fill="url(#paint0_linear_112_366)"/>
</g>
<defs>
<linearGradient id="paint0_linear_112_366" x1="21" y1="16.0267" x2="15.78" y2="16.0267" gradientUnits="userSpaceOnUse">
<stop stop-color="#1E5CD8"/>
<stop offset="1" stop-color="#02AFFF"/>
</linearGradient>
</defs>
</svg>
