<svg width="24" height="24" viewBox="0 0 24 24" fill="none" xmlns="http://www.w3.org/2000/svg">
<path d="M12 24C18.627 24 24 18.6274 24 12C24 5.37258 18.627 0 12 0C5.373 0 0 5.37258 0 12C0 18.6274 5.373 24 12 24Z" fill="#FFF7D0"/>
<mask id="mask0_112_366" style="mask-type:luminance" maskUnits="userSpaceOnUse" x="4" y="4" width="16" height="15">
<path d="M20 4.5H4V18.8158H20V4.5Z" fill="white"/>
</mask>
<g mask="url(#mask0_112_366)">
<path fill-rule="evenodd" clip-rule="evenodd" d="M19.9938 10.5384L19.3078 10.5601C19.2488 10.5601 18.8278 10.5481 18.4188 10.2528C18.4498 10.2556 18.4798 10.2601 18.5108 10.2601C18.9318 10.2601 19.3398 10.0081 19.5028 9.64688L19.7978 8.99498C19.4278 8.99991 19.0888 8.95331 19.0888 8.95331C19.0858 8.9531 18.8198 8.91874 18.5108 8.60503C18.2898 8.38022 18.0158 8.26104 17.7188 8.26104C17.5898 8.26104 17.4738 8.28445 17.3738 8.31601C17.3888 8.26319 17.4038 8.2095 17.4118 8.15432C17.5068 7.54407 17.1118 7.07941 17.1118 7.07941L16.5958 6.44297L16.2758 7.19064C16.2748 7.19279 16.1938 7.36822 16.0488 7.45346C16.0058 7.2338 15.8988 6.98665 15.6698 6.75088C15.2378 6.30597 14.7118 6.2394 14.4368 6.2394C14.3098 6.2394 14.2188 6.25314 14.1958 6.2568L13.5728 6.37854C13.6088 6.24026 13.6858 5.99869 13.8258 5.7814L14.1698 5.24844L13.3038 5.34636L13.0288 4.76381L12.4948 5.03759L12.0018 4.55273L11.5098 5.03759L10.9748 4.76381L10.6998 5.34636L9.83383 5.24823L10.1788 5.78161C10.3188 5.99869 10.3948 6.23962 10.4308 6.3779L9.83583 6.2613L9.81583 6.25787C9.78583 6.25314 9.69583 6.2394 9.56783 6.2394C9.29283 6.2394 8.76683 6.30597 8.33583 6.75066C8.10683 6.98643 7.99883 7.2338 7.95483 7.45346C7.81183 7.36886 7.73083 7.19643 7.73083 7.19643L7.41084 6.44446L6.88683 7.08478C6.82183 7.16723 6.50683 7.60463 6.59184 8.15497C6.60084 8.20993 6.61583 8.26319 6.63083 8.31601C6.53183 8.28402 6.41584 8.26104 6.28584 8.26104C5.98884 8.26104 5.71484 8.38022 5.49384 8.60503C5.18584 8.91746 4.97683 8.93942 4.92283 8.95267C4.86983 8.96592 4.64183 9.00291 4.20783 8.99498L4.50183 9.64688C4.66483 10.0081 5.07283 10.2601 5.49283 10.2601C5.52483 10.2601 5.55483 10.2556 5.58583 10.2528C5.17783 10.5481 4.75683 10.5601 4.70583 10.5603L4.00684 10.5384L4.21783 11.1993C4.32483 11.5399 4.68083 12.104 5.36283 12.1647C5.28883 12.474 5.12383 12.8207 4.76283 12.9702L4.24183 13.1836L4.52583 13.6758C4.68583 13.9412 5.06283 14.2517 5.59883 14.2517C5.71483 14.2513 5.82583 14.2397 5.93383 14.2168C5.96183 14.3382 5.99583 14.4598 6.03683 14.5804C6.19583 15.0531 6.05883 15.3824 6.05683 15.3861L5.79984 15.922L6.37383 16.0725C6.38083 16.0747 6.55484 16.1221 6.77184 16.1221C6.86984 16.1221 6.96483 16.112 7.05183 16.0911C7.11883 16.0756 7.18283 16.0549 7.24483 16.03C7.31883 16.1625 7.40983 16.2836 7.51483 16.392C7.88183 16.7676 8.40383 16.9579 9.06383 16.9579H9.06583L9.53683 16.9518L8.56383 17.3548L9.30283 17.7104C9.57183 17.8406 9.88984 17.9945 10.2138 18.1124L10.1218 18.3639L10.3768 18.4794C10.3988 18.4897 10.8888 18.7077 11.7028 18.7542C11.7028 18.7542 11.8998 18.7633 12.0088 18.7633C12.1168 18.7633 12.3108 18.7536 12.3108 18.7536C13.1198 18.7059 13.6058 18.4897 13.6288 18.4794L13.8838 18.3635L13.7908 18.1118C14.1238 17.9904 14.4548 17.8303 14.7118 17.7051L15.4378 17.3544L14.4668 16.9518L14.9398 16.9579C15.6018 16.9579 16.1228 16.7674 16.4898 16.3914C16.5948 16.2838 16.6848 16.1632 16.7598 16.03C16.8208 16.0549 16.8858 16.0756 16.9528 16.0915C17.0408 16.112 17.1348 16.1221 17.2328 16.1221C17.4458 16.1221 17.6218 16.0754 17.6258 16.0738L18.2028 15.922L17.9518 15.3959C17.9458 15.3824 17.8078 15.0531 17.9678 14.58C18.0078 14.4593 18.0418 14.3378 18.0698 14.2168C18.1788 14.2397 18.2918 14.2513 18.4078 14.2517C19.0908 14.2517 19.4178 13.7741 19.4808 13.6702L19.7618 13.1832L19.2418 12.9706C18.8798 12.8207 18.7158 12.4742 18.6418 12.1652C19.3148 12.1068 19.6758 11.5423 19.7858 11.1996L19.9938 10.5384Z" fill="#FEFEFE"/>
<path fill-rule="evenodd" clip-rule="evenodd" d="M13.1389 6.16182C12.8249 5.9879 12.4179 5.88891 12.0019 5.88891C11.5879 5.88891 11.1809 5.9879 10.8659 6.16182C10.8369 6.06627 10.7969 5.95011 10.7429 5.82857L10.8609 5.84253L10.9849 5.85562L11.0389 5.74268L11.1959 5.40963L11.4859 5.5593L11.5989 5.6162L11.6879 5.52817L12.0019 5.21875L12.3159 5.52817L12.4059 5.6162L12.5179 5.5593L12.8069 5.40963L12.9659 5.74268L13.0179 5.85562L13.1429 5.84253L13.2619 5.82857C13.2069 5.95011 13.1669 6.06627 13.1389 6.16182ZM12.0019 6.57564C11.4499 6.57629 11.0369 6.75601 10.9469 6.96752L12.0019 7.38215L13.0569 6.96752C12.9679 6.75601 12.5539 6.57629 12.0019 6.57564ZM12.0129 17.5426H12.0119H12.0029H11.9919H11.9909C11.6579 17.5447 11.1969 17.4764 10.9759 17.4122L10.7089 18.1303C10.8849 18.1925 11.4799 18.3122 12.0029 18.3122C12.5239 18.3122 13.1199 18.1925 13.2949 18.1303L13.0289 17.4122C12.8069 17.4764 12.3469 17.5447 12.0129 17.5426ZM13.1319 17.1857C13.3889 17.1077 13.8319 16.9398 14.0309 16.828L13.8979 17.2595L14.3479 17.4081C14.0759 17.5438 13.7469 17.6704 13.3479 17.7788L13.1319 17.1857ZM9.97295 16.828L10.1059 17.2595L9.65594 17.4081C9.92794 17.5438 10.2579 17.6704 10.6559 17.7788L10.8729 17.1857C10.6149 17.1077 10.1719 16.9398 9.97295 16.828ZM18.3479 9.74117C18.4019 9.75984 18.4569 9.76801 18.5109 9.76801C18.7469 9.76801 18.9739 9.61662 19.0519 9.44356C19.0519 9.44356 18.6209 9.41758 18.1569 8.94927C18.0099 8.79746 17.8529 8.75214 17.7189 8.75214C17.5109 8.75214 17.3549 8.86122 17.3549 8.86122C17.6569 9.02143 17.8299 9.2339 17.9739 9.41236C18.0979 9.56447 18.2009 9.69187 18.3479 9.74117ZM5.65494 9.74117C5.60194 9.75984 5.54694 9.76801 5.49294 9.76801C5.25794 9.76801 5.02994 9.61662 4.95294 9.44377C4.95294 9.44377 5.38294 9.41758 5.84694 8.94927C5.99494 8.79723 6.15094 8.75214 6.28594 8.75214C6.49294 8.75214 6.64894 8.86143 6.64894 8.86143C6.34794 9.02131 6.17494 9.23335 6.02994 9.41163C5.90594 9.56404 5.80194 9.69178 5.65494 9.74117ZM18.1789 13.1594C17.7459 12.9468 17.4719 12.3825 17.4059 12.1794C17.3339 13.2981 16.7849 14.0747 16.1439 14.8224C15.8109 15.21 15.6939 15.5868 15.6939 15.5868C15.6939 15.5868 15.7589 15.1598 16.0469 14.8123C16.6449 14.0966 17.2139 13.2056 17.2569 12.1751C17.2849 11.456 17.0999 10.873 16.8099 10.3922C16.9719 10.8927 16.9489 11.5056 16.3979 12.0778C16.3979 12.0778 17.4949 10.7704 15.9619 9.42981C15.5269 9.06761 15.0619 8.80378 14.7049 8.60138C14.5599 8.51869 14.4319 8.44623 14.3319 8.38153C15.5799 8.78693 16.1899 8.34073 16.1899 8.34073C15.7909 8.68451 15.2749 8.67871 14.9549 8.62911C15.0419 8.67119 15.1319 8.71521 15.2289 8.76717C16.2819 9.33619 17.2279 10.2726 17.3889 11.5693V11.5595C17.6339 12.8328 18.1789 13.1594 18.1789 13.1594ZM18.4999 11.6758C18.5089 11.6765 18.5179 11.6765 18.5279 11.6765C19.1139 11.6765 19.3129 11.051 19.3129 11.051H19.3019C19.1939 11.051 18.3219 11.0257 17.7049 10.2458C17.6879 10.224 17.6699 10.2023 17.6539 10.1807C17.2699 9.69473 16.9379 9.2739 16.3089 9.10408L16.2439 9.09291L16.2309 9.0272C16.2119 8.92757 16.2809 8.83374 16.4369 8.73281C17.3439 8.1419 16.7279 7.38799 16.7279 7.38799C16.7279 7.38799 16.4689 7.99094 15.8899 7.99094C15.8829 7.99094 15.8759 7.99073 15.8689 7.99052C15.8619 7.9903 15.8539 7.99009 15.8469 7.99009L15.8339 7.98942C15.7729 7.98627 15.7129 7.9832 15.6539 7.97076L15.5469 7.94993C15.5469 7.94993 15.7119 7.50266 15.3129 7.09232C15.0129 6.78247 14.6479 6.72986 14.4369 6.72986C14.3309 6.72986 14.2629 6.74339 14.2629 6.74339C14.4629 7.00384 14.6079 7.43631 14.3769 7.70321C14.2999 7.79188 14.1789 7.84791 14.0599 7.90308C13.8719 7.99047 13.6889 8.07571 13.6889 8.28512C13.6889 8.43006 13.8249 8.59883 14.0689 8.75042C14.8029 9.21015 15.5309 9.82061 15.8339 10.6383C16.2119 11.6582 15.7859 12.3353 15.1779 12.7237C15.1779 12.7237 15.3679 12.8985 15.6449 12.9208C15.7009 12.9262 15.7559 12.9289 15.8079 12.9289C16.3919 12.9289 16.6939 12.6561 16.6939 12.6561C16.6939 12.6561 16.6439 13.0329 16.3399 13.3827C16.0599 13.7057 15.6919 13.8961 15.1299 13.9038C15.1299 13.9038 15.1119 14.1635 15.3609 14.388C15.5199 14.5298 15.8879 14.5757 15.8879 14.5757C15.8879 14.5757 15.1989 14.7146 15.1229 15.7262C15.0819 16.2744 14.9409 16.465 14.9409 16.465H14.9539C16.5509 16.465 16.5099 15.1018 16.5099 15.1018C16.5099 15.1018 16.6209 15.5053 17.0669 15.6107C17.1199 15.6244 17.1779 15.63 17.2329 15.63C17.3759 15.63 17.5009 15.5965 17.5009 15.5965C17.5009 15.5965 17.2669 15.1067 17.4989 14.4216C17.6909 13.8529 17.6599 13.4319 17.6599 13.4319C17.6599 13.4319 17.8749 13.7555 18.4079 13.7585H18.4139C18.8579 13.7585 19.0519 13.4233 19.0519 13.4233C17.9869 12.9833 18.0919 11.5635 18.0919 11.5635C18.0919 11.5635 18.2299 11.6662 18.4999 11.6758ZM6.59694 12.1792C6.66994 13.2981 7.21894 14.0747 7.85994 14.8222C8.19294 15.21 8.31094 15.5866 8.31094 15.5866C8.31094 15.5866 8.24494 15.1596 7.95594 14.8126C7.35894 14.0966 6.78994 13.2054 6.74794 12.1751C6.71794 11.4558 6.90394 10.8728 7.19394 10.3922C7.03194 10.893 7.05394 11.5056 7.60594 12.078C7.60594 12.078 6.50894 10.7704 8.04294 9.42983C8.47794 9.06779 8.94194 8.80414 9.29794 8.60175C9.44394 8.51894 9.57194 8.44639 9.67194 8.38155C8.42394 8.78695 7.81394 8.34053 7.81394 8.34053C8.21294 8.68453 8.72893 8.67873 9.04893 8.62913L9.04195 8.63269C8.95695 8.6737 8.86893 8.7167 8.77493 8.76741C7.72193 9.33621 6.77594 10.2728 6.61394 11.5694V11.5593C6.36994 12.8326 5.82494 13.1594 5.82494 13.1594C6.25794 12.9468 6.53094 12.3823 6.59694 12.1792ZM8.64394 14.3879C8.48394 14.5298 8.11694 14.5757 8.11694 14.5757C8.11694 14.5757 8.80594 14.7144 8.88094 15.7262C8.92194 16.2744 9.06194 16.4648 9.06194 16.4648H9.05093C7.45293 16.4648 7.49394 15.1016 7.49394 15.1016C7.49394 15.1016 7.38294 15.5053 6.93794 15.6107C6.88394 15.6244 6.82694 15.63 6.77194 15.63C6.62794 15.63 6.50394 15.5965 6.50394 15.5965C6.50394 15.5965 6.73594 15.1069 6.50494 14.4216C6.31394 13.8529 6.34494 13.4317 6.34494 13.4317C6.34494 13.4317 6.12994 13.7555 5.59594 13.7587H5.59094C5.14694 13.7587 4.95294 13.4233 4.95294 13.4233C6.01694 12.9834 5.91294 11.5636 5.91294 11.5636C5.91294 11.5636 5.77394 11.6662 5.50394 11.6759C5.49494 11.6765 5.48594 11.6765 5.47594 11.6765C4.88894 11.6765 4.68994 11.051 4.68994 11.051H4.70194C4.81094 11.051 5.68194 11.0257 6.29894 10.2458C6.31594 10.2238 6.33294 10.202 6.34994 10.1803C6.73394 9.69472 7.06594 9.27407 7.69394 9.1041L7.75994 9.09272L7.77394 9.02722C7.79194 8.92759 7.72294 8.83354 7.56794 8.73283C6.66094 8.14191 7.27594 7.38822 7.27594 7.38822C7.27594 7.38822 7.53394 7.99096 8.11494 7.99096C8.12194 7.99096 8.12893 7.9908 8.13493 7.99064C8.14193 7.99048 8.14994 7.99032 8.15694 7.99032L8.17393 7.98939C8.23393 7.98614 8.29194 7.98294 8.35094 7.97077L8.45793 7.94995C8.45793 7.94995 8.29193 7.50268 8.69093 7.09233C8.99093 6.78249 9.35694 6.72967 9.56694 6.72967C9.67394 6.72967 9.74094 6.7434 9.74094 6.7434C9.54094 7.00387 9.39594 7.43632 9.62694 7.70301C9.70494 7.79179 9.82494 7.84788 9.94394 7.9031C10.1319 7.99052 10.3149 8.07576 10.3149 8.28513C10.3149 8.42986 10.1789 8.59884 9.93494 8.75044C9.20094 9.21017 8.47294 9.82084 8.16994 10.6383C7.79194 11.6585 8.21794 12.3355 8.82794 12.7237C8.82794 12.7237 8.63593 12.8985 8.35893 12.9208C8.30293 12.9262 8.24794 12.9288 8.19594 12.9288C7.61194 12.9288 7.30994 12.6561 7.30994 12.6561C7.30994 12.6561 7.35994 13.0329 7.66194 13.3829C7.94494 13.7057 8.31294 13.8961 8.87494 13.9039C8.87494 13.9039 8.89194 14.1635 8.64394 14.3879ZM11.6409 9.55175H12.0179H12.3939V9.80875C12.3059 9.70097 12.1329 9.72309 12.1329 9.72309V10.0934C12.1329 10.0934 12.1399 10.2759 12.2039 10.3547H12.0179H11.8309C11.8959 10.2759 11.9019 10.0934 11.9019 10.0934V9.72309C11.9019 9.72309 11.7299 9.70097 11.6409 9.80875V9.55175ZM10.8209 9.59048C10.8469 9.61838 10.8729 9.64867 10.8979 9.67937L10.9009 9.68351C10.9059 9.689 10.9099 9.69435 10.9149 9.70106C10.9379 9.73133 10.9609 9.76354 10.9829 9.79661C10.9859 9.80033 10.9889 9.80448 10.9919 9.80877L10.9949 9.8129L10.9959 9.81516L10.9969 9.8166L10.9979 9.8183C11.0249 9.85844 11.0499 9.90011 11.0749 9.94306C11.3059 10.3388 11.6739 10.5756 12.0019 10.5761C12.3289 10.5756 12.6969 10.3388 12.9279 9.94306C12.9539 9.89903 12.9799 9.8563 13.0069 9.81636C13.0109 9.81078 13.0149 9.80498 13.0179 9.79897C13.0409 9.76483 13.0649 9.73176 13.0899 9.69955C13.0929 9.69516 13.0969 9.69103 13.0999 9.68707L13.1049 9.68044C13.1309 9.64867 13.1569 9.61817 13.1839 9.5894C13.1859 9.58758 13.1879 9.5858 13.1899 9.58407C13.1919 9.5815 13.1939 9.57903 13.1969 9.57673C13.3139 9.45734 13.4539 9.36609 13.6379 9.31562L13.5559 9.26838H13.5519L13.2269 9.08114L12.8939 8.89111L12.0039 9.37338L12.0019 9.37123L11.9999 9.37338L11.1099 8.89111L10.7769 9.08114L10.4519 9.26838H10.4479L10.3659 9.31562C10.5489 9.36609 10.6889 9.45627 10.8069 9.57587C10.8089 9.5778 10.8099 9.57983 10.8119 9.58188C10.8149 9.58483 10.8169 9.5878 10.8209 9.59048ZM11.7179 8.15935V7.9176L11.2799 7.73424C11.2799 7.73424 11.2839 7.87466 11.4809 8.0271C11.5879 8.11081 11.6539 8.13231 11.6679 8.13704C11.6699 8.13761 11.6709 8.13794 11.6709 8.1381L11.7179 8.15935ZM11.9249 7.54749V9.05314L11.2159 8.68146L10.9619 7.22282L11.9249 7.54749ZM12.2859 7.9176L12.7239 7.73424C12.7239 7.73424 12.7199 7.87466 12.5219 8.0271C12.4159 8.11121 12.3489 8.13252 12.3349 8.13711C12.3339 8.13763 12.3329 8.13794 12.3319 8.1381L12.2859 8.15935V7.9176ZM12.7879 8.68146L13.0409 7.22282L12.0789 7.54749V9.05314L12.7879 8.68146ZM10.8289 12.5834C10.7709 12.5834 10.6569 12.5765 10.5629 12.5426C10.4599 12.5046 10.3059 12.3159 10.3409 12.1081C10.3859 12.0808 10.4889 12.0228 10.5859 12.0228C10.6609 12.0228 10.7119 12.0576 10.7479 12.1325C10.7789 12.1976 10.8349 12.2407 10.8739 12.2654C10.8729 12.3262 10.8669 12.4204 10.8499 12.504C10.8469 12.5226 10.8419 12.5398 10.8369 12.5568C10.8349 12.5641 10.8329 12.5707 10.8309 12.5763L10.8299 12.5795C10.8299 12.5809 10.8289 12.5822 10.8289 12.5834ZM12.1749 12.2646L12.1549 12.2843C12.1509 12.2881 12.1479 12.2906 12.1469 12.2917L12.1259 12.3128L11.0199 12.2954C11.0189 12.4044 11.0009 12.4972 10.9839 12.5651C10.9809 12.5764 10.9779 12.5883 10.9749 12.6001L12.2909 12.8354C12.4279 12.7403 12.8039 12.4665 12.9509 12.3591C12.8439 12.2047 12.8339 12.0212 12.8579 11.8919C12.7879 11.8477 12.7349 11.7974 12.6929 11.7442C12.5409 11.9091 12.2639 12.1778 12.1749 12.2646ZM12.1249 10.7867C12.3429 10.765 12.5879 10.6718 12.8429 10.4204H14.5059C14.4339 10.611 14.3739 10.8174 14.3739 11.0227V12.3477C14.0959 12.3011 14.0629 12.0031 14.0619 11.9902L14.0569 11.9292L13.9969 11.9241C13.8759 11.9127 13.7959 11.8618 13.7279 11.7963C13.5919 11.6604 13.5919 11.4405 13.5919 11.4388C13.5919 11.4385 13.5919 11.439 13.5919 11.4388C13.5909 11.4392 13.5909 11.4407 13.5909 11.4414C13.5899 11.4431 13.5889 11.4456 13.5869 11.4488C13.5619 11.4941 13.4599 11.6807 13.6139 11.8824C13.6859 11.9773 13.7909 12.0357 13.9269 12.0589C13.9589 12.2241 14.0819 12.4577 14.3739 12.4931V13.142H13.5529C13.1749 12.932 13.3349 12.5631 13.3419 12.5474L13.3749 12.4776L13.3019 12.4502C12.8919 12.299 13.0049 11.8921 13.0099 11.8743L13.0269 11.8152L12.9709 11.789C12.6329 11.6327 12.6789 11.2123 12.6829 11.1947C12.5789 11.2786 12.5419 11.45 12.6129 11.6179C12.5769 11.6598 12.5279 11.7099 12.4739 11.7651L12.4649 11.7742C12.1149 11.6851 12.1039 11.3645 12.1039 11.3501L12.1029 11.3007L12.0569 11.2829C11.9199 11.2325 11.8259 11.1569 11.7799 11.0553C11.7279 10.943 11.7459 10.8249 11.7599 10.7682C11.8009 10.7772 11.8399 10.7833 11.8789 10.7867C11.9179 10.7908 11.9579 10.7931 11.9989 10.7931H12.0019H12.0049C12.0449 10.7931 12.0849 10.7908 12.1249 10.7867ZM10.6329 11.0276L10.6109 11.8712L10.7069 11.8858L10.9429 11.0763L10.8229 10.8273L10.6329 11.0276ZM11.0979 14.0999C11.0959 14.1274 11.1159 14.1505 11.1429 14.1512C11.1699 14.1536 11.1929 14.1331 11.1949 14.1063C11.1959 14.0805 11.1769 14.0565 11.1489 14.0555C11.1219 14.053 11.0999 14.0739 11.0979 14.0999ZM13.2539 14.901C13.2469 14.8989 13.2379 14.8982 13.2309 14.8982C13.1839 14.8982 13.1629 14.9399 13.1629 14.9399C13.1949 15.0247 13.2029 15.0857 13.2099 15.1408C13.2179 15.2023 13.2249 15.2568 13.2629 15.3297C13.3089 15.4165 13.3839 15.4899 13.4299 15.5347C13.4389 15.543 13.4459 15.5503 13.4519 15.5566C13.4519 15.5566 13.4419 15.6341 13.4299 15.6923L13.3279 16.2234C13.2619 16.2323 13.1939 16.237 13.1229 16.2403L13.2299 15.7295C13.2459 15.6557 13.1569 15.6065 13.0379 15.541C12.9129 15.4722 12.7549 15.3853 12.6509 15.2323C12.5519 15.3429 12.3659 15.376 12.1789 15.376C12.0089 15.376 11.8389 15.3487 11.7349 15.3283C11.7089 15.3245 11.6839 15.3213 11.6589 15.3213C11.5989 15.3213 11.5449 15.3397 11.5069 15.4026L11.4769 15.4526L10.9199 15.3217L10.7809 15.5508C10.7609 15.5877 10.7599 15.6188 10.7919 15.6535L10.8289 15.6944C10.8029 15.7751 10.6869 15.8976 10.6869 15.8976L10.6039 15.7945C10.5389 15.7215 10.5489 15.5877 10.6169 15.4641L10.8389 15.0926L11.3109 15.1602L11.2379 14.9938C11.1689 14.84 11.2219 14.657 11.2649 14.5058C11.2839 14.4403 11.3009 14.3807 11.3059 14.332C11.2999 14.3807 11.2549 14.3919 11.2029 14.3919C11.1779 14.3919 11.1499 14.3893 11.1249 14.3868C11.1029 14.3846 11.0829 14.3827 11.0669 14.3827C11.0529 14.3827 11.0409 14.3842 11.0349 14.3887L10.9069 14.4662L10.8059 14.3776C10.7929 14.3606 10.7899 14.3202 10.8189 14.2903L11.0529 14.0295L10.7769 13.7084L11.1629 13.9017L11.2819 13.7594C11.3139 13.7907 11.2999 13.8736 11.2999 13.8736C11.4199 13.8766 11.7589 14.0625 11.7769 14.4976C11.7779 14.5108 11.7779 14.5257 11.7779 14.5403C11.7779 14.5403 11.7809 14.5455 11.7869 14.5545C11.8109 14.5872 11.8769 14.6708 11.9599 14.6788L12.4949 14.7314H12.4969C12.5189 14.7314 12.5509 14.7213 12.5889 14.7087C12.6499 14.6888 12.7299 14.6629 12.8219 14.6629C12.9029 14.6629 12.9939 14.6836 13.0909 14.7443C13.0909 14.7443 13.1399 14.7061 13.2179 14.7018C13.2239 14.7014 13.2309 14.7014 13.2369 14.7014C13.4379 14.7014 13.5409 14.8536 13.6449 15.0082C13.6639 15.0376 13.6839 15.067 13.7049 15.0956C13.8009 15.2323 13.9309 15.4348 13.9309 15.4348C13.8829 15.4909 13.8389 15.5224 13.7639 15.5224C13.7439 15.5224 13.7209 15.5209 13.6949 15.5156C13.5469 15.4886 13.4719 15.3032 13.4069 15.1425C13.3589 15.0239 13.3169 14.9187 13.2539 14.901ZM10.3819 15.3813C10.3819 15.3813 10.5669 15.3055 10.5829 15.2518L10.5579 15.1901C10.5409 15.1502 10.5439 15.1068 10.5769 15.0831L10.7769 14.946L11.1099 15.0098C11.1099 15.0098 11.0499 14.9346 11.0559 14.8341L10.7369 14.7671L10.4369 14.9488C10.3089 15.0447 10.2989 15.2013 10.3419 15.2942L10.3819 15.3813ZM12.9389 16.2434C12.8659 16.2434 12.7999 16.2442 12.7399 16.2468L12.8969 15.7614C12.9139 15.7163 12.8629 15.6623 12.8119 15.6086C12.7879 15.5827 12.7629 15.5569 12.7469 15.5323C12.8239 15.5804 13.0239 15.686 13.1199 15.7283C13.1099 15.744 12.9389 16.2434 12.9389 16.2434Z" fill="white"/>
<path fill-rule="evenodd" clip-rule="evenodd" d="M13.321 13.1435H9.63103V11.0242C9.63103 10.8189 9.57002 10.6125 9.49902 10.4219H11.162C11.32 10.5782 11.475 10.6757 11.622 10.7291C11.603 10.8045 11.578 10.9602 11.649 11.1157C11.707 11.2408 11.811 11.3373 11.964 11.4017C11.98 11.5563 12.079 11.789 12.35 11.8919C12.231 12.0115 12.115 12.1242 12.068 12.1695L10.965 12.1521C10.94 12.1397 10.897 12.1115 10.878 12.072C10.877 12.069 10.875 12.0668 10.874 12.0645C10.872 12.0625 10.871 12.0604 10.87 12.0579L11.05 12.0869C11.054 12.0873 11.058 12.0873 11.062 12.0873C11.096 12.0873 11.127 12.0635 11.132 12.028C11.138 11.9881 11.112 11.9516 11.073 11.9458L10.851 11.911L11.097 11.0658L10.864 10.5782L10.491 10.9707L10.468 11.8494L10.217 11.8099C10.179 11.8023 10.142 11.8303 10.135 11.8693C10.129 11.908 10.155 11.9447 10.195 11.9516L10.3 11.9675C10.262 11.9887 10.238 12.0057 10.235 12.0081L10.213 12.0229L10.207 12.0491C10.146 12.2956 10.284 12.5296 10.433 12.6342L10.428 12.6653C10.422 12.7031 10.431 12.7401 10.454 12.7712C10.475 12.8028 10.508 12.8216 10.546 12.8283C10.553 12.8299 10.562 12.8305 10.569 12.8305C10.633 12.8305 10.69 12.786 10.706 12.7207C10.761 12.7276 10.812 12.7287 10.847 12.7287H10.876L12.324 12.9893L12.349 12.973C12.464 12.8929 12.904 12.5741 13.048 12.468C13.088 12.5021 13.132 12.5326 13.186 12.5582C13.139 12.7141 13.136 12.954 13.321 13.1435ZM9.63103 13.2865H14.374L14.375 15.0623C14.375 15.6509 14.028 16.0619 13.481 16.1959L13.573 15.7207L13.574 15.714C13.578 15.6874 13.584 15.6577 13.587 15.6326C13.613 15.6433 13.641 15.6524 13.67 15.6577C13.704 15.6642 13.736 15.6674 13.765 15.6674C13.905 15.6674 13.986 15.5942 14.04 15.5316L14.111 15.4501L14.053 15.3608C14.048 15.352 13.921 15.1519 13.823 15.0148C13.804 14.988 13.785 14.9609 13.767 14.9322C13.656 14.7664 13.516 14.559 13.237 14.559L13.212 14.5594C13.166 14.5624 13.127 14.5712 13.095 14.5834C13.007 14.5429 12.916 14.5214 12.822 14.5214C12.707 14.5214 12.61 14.553 12.545 14.5751C12.539 14.5767 12.534 14.5785 12.528 14.5801C12.516 14.5837 12.506 14.5871 12.497 14.5886L11.975 14.5375C11.968 14.5365 11.947 14.524 11.921 14.4933V14.4907L12.034 14.4456C12.002 14.0713 11.641 13.8411 11.44 13.7632C11.431 13.7256 11.413 13.6883 11.381 13.6577L11.269 13.552L11.17 13.6693L11.122 13.7295L10.391 13.4306L10.866 14.0248L10.679 14.3075C10.61 14.3804 10.686 14.4529 10.686 14.4529L10.88 14.5861L11.081 14.5113C11.086 14.5113 11.09 14.5121 11.095 14.5128C11.097 14.5131 11.099 14.5134 11.101 14.5136C11.095 14.5306 11.089 14.5754 11.083 14.6175C11.078 14.6505 11.074 14.6817 11.07 14.6964L10.721 14.6282L10.355 14.8341C10.166 14.9719 10.141 15.1995 10.211 15.3554L10.251 15.4439L10.309 15.5688L10.437 15.5161C10.439 15.5159 10.442 15.5141 10.442 15.5141C10.396 15.6605 10.414 15.7999 10.496 15.8911L10.575 15.9884L10.678 16.1185L10.792 15.9972C10.825 15.9642 10.934 15.843 10.967 15.7397L10.992 15.6605L10.936 15.5995L10.927 15.5888L10.99 15.4862L11.445 15.5929L11.547 15.6165L11.602 15.527L11.631 15.4783C11.637 15.4677 11.638 15.4662 11.659 15.4662C11.675 15.4662 11.692 15.4677 11.709 15.4717C11.881 15.504 12.039 15.5201 12.18 15.5201C12.316 15.5201 12.398 15.5149 12.495 15.4829C12.495 15.4829 12.739 15.7593 12.748 15.7694L12.598 16.2295L12.591 16.257C12.308 16.28 12.17 16.3419 12.003 16.5076C11.761 16.2686 11.589 16.2433 10.938 16.2433C10.159 16.2433 9.63103 15.7885 9.63103 15.0623V13.2865Z" fill="#FFDD2D"/>
<path fill-rule="evenodd" clip-rule="evenodd" d="M10.9848 5.85539L10.8608 5.84228L10.7428 5.82811C10.7968 5.95007 10.8368 6.06581 10.8658 6.16158C11.1808 5.98787 11.5878 5.88888 12.0018 5.88888C12.4178 5.88888 12.8248 5.98787 13.1388 6.16158C13.1668 6.06581 13.2068 5.95007 13.2618 5.82811L13.1428 5.84228L13.0178 5.85539L12.9658 5.74265L12.8068 5.4094L12.5178 5.55906L12.4058 5.61618L12.3158 5.52771L12.0018 5.2185L11.6878 5.52771L11.5988 5.61618L11.4858 5.55906L11.1958 5.4094L11.0388 5.74265L10.9848 5.85539ZM13.2488 6.4414C13.0028 6.246 12.5578 6.06241 12.0018 6.06241C11.4458 6.06241 11.0028 6.246 10.7548 6.4414C10.7548 6.4414 10.6818 6.00379 10.4328 5.61792L10.8808 5.6686L11.1148 5.17301L11.5658 5.40406L12.0018 4.97461L12.4388 5.40406L12.8888 5.17301L13.1228 5.6686L13.5708 5.61792C13.3218 6.00379 13.2488 6.4414 13.2488 6.4414ZM11.1488 14.0551C11.1218 14.0526 11.0998 14.0736 11.0978 14.0997C11.0958 14.127 11.1158 14.1503 11.1428 14.1509C11.1698 14.153 11.1928 14.1329 11.1948 14.1061C11.1968 14.0803 11.1768 14.0562 11.1488 14.0551ZM13.3478 17.7786L13.1318 17.1853C13.3888 17.1074 13.8328 16.9395 14.0308 16.8276L13.8988 17.2594L14.3478 17.4077C14.0758 17.5434 13.7468 17.6699 13.3478 17.7786ZM12.0028 18.3118C11.4808 18.3118 10.8848 18.1924 10.7088 18.1302L10.9758 17.4118C11.1968 17.4763 11.6578 17.5444 11.9918 17.5423H12.0028H12.0118H12.0128C12.3468 17.5444 12.8068 17.4763 13.0288 17.4118L13.2948 18.1302C13.1198 18.1924 12.5238 18.3118 12.0028 18.3118ZM9.6568 17.4077L10.1058 17.2593L9.97281 16.8276C10.1708 16.9394 10.6148 17.1073 10.8718 17.1853L10.6558 17.7785C10.2578 17.6698 9.9278 17.5434 9.6568 17.4077ZM14.3678 17.2759L14.0948 17.1718L14.1698 16.8906L14.2528 16.5844C14.2528 16.5844 13.7688 16.8458 13.0868 17.0422C12.8928 17.0973 12.7458 17.1225 12.7458 17.1225V17.3311C12.7458 17.3311 12.3808 17.3943 12.0128 17.3943H12.0078H12.0028H11.9958H11.9918C11.6218 17.3943 11.2578 17.3311 11.2578 17.3311V17.1225C11.2578 17.1225 11.1108 17.0973 10.9178 17.0422C10.2358 16.8458 9.7518 16.5844 9.7518 16.5844L9.8338 16.8906L9.9108 17.1718L9.6368 17.2759L9.33279 17.3891C9.36579 17.4052 9.39981 17.4219 9.43581 17.4392C9.77281 17.6022 10.2058 17.8118 10.6058 17.9206L10.5018 18.2041C10.5018 18.2041 11.0618 18.4583 11.9958 18.4606L11.9978 18.461H12.0028H12.0058H12.0078C12.9428 18.4587 13.5028 18.2041 13.5028 18.2041L13.3988 17.9206C13.8008 17.8109 14.2388 17.5987 14.5758 17.4351C14.6088 17.4193 14.6408 17.4039 14.6708 17.3891L14.3678 17.2759ZM19.0518 13.4231C19.0518 13.4231 18.8578 13.7585 18.4138 13.7585H18.4078C17.8748 13.7553 17.6598 13.4315 17.6598 13.4315C17.6598 13.4315 17.6908 13.8528 17.4988 14.4211C17.2668 15.1068 17.5008 15.5962 17.5008 15.5962C17.5008 15.5962 17.3758 15.6296 17.2328 15.6296C17.1778 15.6296 17.1208 15.6243 17.0658 15.6105C16.6208 15.5049 16.5098 15.1012 16.5098 15.1012C16.5098 15.1012 16.5508 16.4647 14.9528 16.4647H14.9408C14.9408 16.4647 15.0818 16.2741 15.1228 15.7261C15.1988 14.7145 15.8868 14.5753 15.8868 14.5753C15.8868 14.5753 15.5198 14.5293 15.3608 14.3874C15.1118 14.163 15.1288 13.9034 15.1288 13.9034C15.6918 13.8957 16.0598 13.7052 16.3398 13.3825C16.6438 13.0327 16.6938 12.6559 16.6938 12.6559C16.6938 12.6559 16.3918 12.9284 15.8078 12.9284C15.7558 12.9284 15.7008 12.9261 15.6448 12.9205C15.3688 12.8983 15.1768 12.7233 15.1768 12.7233C15.7858 12.3353 16.2118 11.6578 15.8338 10.6379C15.5308 9.82065 14.8018 9.20998 14.0688 8.75003C13.8248 8.59844 13.6888 8.42966 13.6888 8.28473C13.6888 8.07537 13.8718 7.9902 14.0598 7.90285C14.1788 7.84766 14.2988 7.79161 14.3768 7.70282C14.6078 7.43591 14.4628 7.00367 14.2628 6.74321C14.2628 6.74321 14.3298 6.72946 14.4368 6.72946C14.6478 6.72946 15.0128 6.78207 15.3128 7.09214C15.7118 7.50248 15.5468 7.94975 15.5468 7.94975L15.6538 7.97037C15.7138 7.98326 15.7748 7.9862 15.8378 7.98924L15.8468 7.98969C15.8538 7.98969 15.8608 7.9899 15.8678 7.99011C15.8758 7.99034 15.8828 7.99055 15.8898 7.99055C16.4688 7.99055 16.7278 7.38781 16.7278 7.38781C16.7278 7.38781 17.3438 8.1415 16.4368 8.73242C16.2808 8.83356 16.2118 8.9274 16.2308 9.02681L16.2448 9.09251L16.3088 9.1039C16.9378 9.27352 17.2688 9.69376 17.6518 10.1787L17.6538 10.1815L17.6558 10.1831L17.6568 10.1851L17.6578 10.1866L17.6588 10.1876C17.6738 10.2068 17.6888 10.226 17.7048 10.2454C18.3218 11.0255 19.1938 11.0506 19.3008 11.0506H19.3128C19.3128 11.0506 19.1138 11.6761 18.5268 11.6761C18.5168 11.6761 18.5088 11.6761 18.4998 11.6755C18.2298 11.6658 18.0918 11.5634 18.0918 11.5634C18.0918 11.5634 17.9868 12.9829 19.0518 13.4231ZM18.5278 11.8677C19.2468 11.8677 19.4878 11.1393 19.4968 11.1082L19.5778 10.8514L19.3078 10.8597C19.2128 10.8597 18.4178 10.8389 17.8558 10.1271L17.8028 10.0612L17.7998 10.0577C17.4328 9.59363 17.0848 9.15259 16.4628 8.95125C16.4808 8.93515 16.5068 8.91518 16.5418 8.8922C16.8728 8.67598 17.0648 8.41273 17.1138 8.10738C17.1848 7.64808 16.8898 7.28155 16.8768 7.26674L16.6768 7.02044L16.5508 7.31268C16.5408 7.33614 16.3298 7.79925 15.8898 7.79925H15.8568C15.8488 7.79881 15.8408 7.79839 15.8338 7.79798C15.8118 7.7968 15.7898 7.79563 15.7688 7.79388C15.7848 7.58539 15.7468 7.26222 15.4518 6.95882C15.0978 6.594 14.6638 6.53903 14.4368 6.53903C14.3298 6.53903 14.2548 6.55073 14.2318 6.55422C14.2288 6.55468 14.2268 6.55501 14.2258 6.55514L13.9238 6.61483L14.1098 6.85961C14.2558 7.04836 14.3888 7.39664 14.2318 7.57829C14.1838 7.63303 14.0888 7.678 13.9958 7.72242L13.9788 7.73033C13.7758 7.82351 13.4968 7.95385 13.4968 8.28475C13.4968 8.49861 13.6638 8.72279 13.9668 8.91324C14.8618 9.47368 15.4148 10.0588 15.6538 10.7045C16.0228 11.6978 15.5408 12.2645 15.0738 12.5629L14.8628 12.6971L15.0468 12.8651C15.0728 12.8876 15.2968 13.0839 15.6278 13.1122C15.6908 13.1161 15.7508 13.1197 15.8078 13.1197C16.0198 13.1197 16.2018 13.0865 16.3488 13.0415C16.3088 13.1122 16.2578 13.1846 16.1958 13.2569C15.9288 13.5651 15.5998 13.7053 15.1268 13.713L14.9508 13.7158L14.9368 13.8912C14.9358 13.9267 14.9218 14.2519 15.2318 14.5288C15.2788 14.5717 15.3358 14.6069 15.3968 14.6354C15.1858 14.8235 14.9728 15.1512 14.9318 15.7121C14.8968 16.1806 14.7848 16.3537 14.7838 16.3556L14.5888 16.6509L14.9398 16.6556C15.5208 16.6556 15.9648 16.4965 16.2728 16.1806C16.4548 15.9938 16.5588 15.7828 16.6198 15.5962C16.7208 15.6818 16.8508 15.757 17.0208 15.7969C17.0858 15.8119 17.1558 15.8198 17.2328 15.8198C17.3918 15.8198 17.5268 15.7871 17.5468 15.7821L17.5488 15.7816L17.7728 15.7224L17.6738 15.5144V15.5133C17.6618 15.4853 17.4828 15.0708 17.6808 14.4834C17.7678 14.2255 17.8118 13.9947 17.8328 13.815C17.9748 13.8881 18.1638 13.9486 18.4078 13.9494C18.9548 13.9494 19.2008 13.5488 19.2178 13.5204L19.2188 13.5193L19.3278 13.3299L19.1248 13.2468C18.4638 12.9735 18.3178 12.2396 18.2878 11.8425C18.3478 11.8539 18.4158 11.8644 18.4928 11.8666L18.5278 11.8677ZM18.1568 8.94911C18.0088 8.79708 17.8528 8.75178 17.7188 8.75178C17.5108 8.75178 17.3548 8.86129 17.3548 8.86129C17.6568 9.02141 17.8298 9.23379 17.9748 9.41219C18.0978 9.56419 18.2008 9.69151 18.3478 9.74081C18.4018 9.75948 18.4568 9.76765 18.5108 9.76765C18.7458 9.76765 18.9728 9.61626 19.0518 9.44363C19.0518 9.44363 18.6208 9.41743 18.1568 8.94911ZM17.8248 9.53232C17.6878 9.36334 17.5318 9.17266 17.2628 9.03051L16.9878 8.883L17.2438 8.7037L17.2468 8.7016C17.2808 8.68037 17.4688 8.56069 17.7188 8.56069C17.9328 8.56069 18.1308 8.64808 18.2948 8.81407C18.6928 9.21883 19.0508 9.25146 19.0638 9.25189L19.3418 9.26822L19.2268 9.52202C19.1128 9.77518 18.8108 9.95791 18.5108 9.95791C18.4338 9.95791 18.3588 9.94631 18.2878 9.92205C18.0898 9.85695 17.9628 9.70137 17.8298 9.53846L17.8248 9.53232ZM17.3888 11.5592V11.5688C17.2278 10.2723 16.2818 9.33589 15.2288 8.76687C15.1318 8.7149 15.0418 8.6711 14.9548 8.62901C15.2748 8.6784 15.7918 8.6842 16.1898 8.34042C16.1898 8.34042 15.5798 8.78662 14.3318 8.38122C14.4318 8.44594 14.5598 8.51838 14.7048 8.60107C15.0618 8.80347 15.5268 9.0673 15.9618 9.42951C17.4948 10.77 16.3978 12.0775 16.3978 12.0775C16.9488 11.5053 16.9718 10.8927 16.8098 10.3919C17.0998 10.8727 17.2858 11.4557 17.2568 12.1748C17.2138 13.2052 16.6448 14.0962 16.0468 14.8121C15.7588 15.1596 15.6948 15.5866 15.6948 15.5866C15.6948 15.5866 15.8108 15.2097 16.1438 14.8222C16.7848 14.0745 17.3338 13.2983 17.4058 12.1791C17.4718 12.3822 17.7458 12.9465 18.1788 13.1591C18.1788 13.1591 17.6338 12.8325 17.3888 11.5592ZM7.4938 15.1012C7.4938 15.1012 7.4528 16.4647 9.0508 16.4647H9.0618C9.0618 16.4647 8.9218 16.2741 8.8808 15.7261C8.8048 14.7143 8.11681 14.5753 8.11681 14.5753C8.11681 14.5753 8.4838 14.5294 8.6438 14.3874C8.8918 14.163 8.8748 13.9034 8.8748 13.9034C8.3128 13.8957 7.9448 13.7052 7.6618 13.3825C7.3598 13.0328 7.3098 12.6559 7.3098 12.6559C7.3098 12.6559 7.6118 12.9284 8.1958 12.9284C8.2478 12.9284 8.3028 12.9261 8.3588 12.9205C8.6358 12.8984 8.8278 12.7233 8.8278 12.7233C8.2178 12.3353 7.7918 11.6581 8.1698 10.6379C8.4728 9.82066 9.2008 9.20998 9.9348 8.75004C10.1788 8.59844 10.3148 8.42967 10.3148 8.28473C10.3148 8.0754 10.1318 7.99022 9.9438 7.90283C9.8248 7.84761 9.7048 7.79149 9.6268 7.70261C9.3958 7.43591 9.54081 7.00346 9.73981 6.74322C9.73981 6.74322 9.6738 6.72947 9.5668 6.72947C9.3558 6.72947 8.9908 6.78208 8.6908 7.09215C8.2908 7.50248 8.4568 7.94976 8.4568 7.94976L8.3508 7.97037C8.2908 7.98296 8.23081 7.98606 8.17081 7.9892L8.1568 7.98991C8.1488 7.98991 8.1418 7.99007 8.1348 7.99024C8.1288 7.9904 8.12181 7.99056 8.11481 7.99056C7.53381 7.99056 7.2758 7.38804 7.2758 7.38804C7.2758 7.38804 6.6608 8.1415 7.5668 8.73243C7.7228 8.83336 7.7918 8.92719 7.7738 9.02682L7.7598 9.09253L7.6938 9.1039C7.0658 9.27394 6.7328 9.69456 6.3498 10.1803C6.3328 10.2019 6.3158 10.2236 6.2978 10.2454C5.6818 11.0255 4.81081 11.0506 4.70181 11.0506H4.6898C4.6898 11.0506 4.8888 11.6761 5.4758 11.6761C5.4858 11.6761 5.4948 11.6761 5.5038 11.6755C5.7738 11.6658 5.9118 11.5634 5.9118 11.5634C5.9118 11.5634 6.0168 12.9829 4.9528 13.4231C4.9528 13.4231 5.14581 13.7583 5.59081 13.7583H5.5958C6.1298 13.7553 6.3438 13.4315 6.3438 13.4315C6.3438 13.4315 6.3128 13.8528 6.5048 14.4211C6.7358 15.1068 6.5038 15.5962 6.5038 15.5962C6.5038 15.5962 6.6278 15.6296 6.7718 15.6296C6.8268 15.6296 6.8838 15.6243 6.9368 15.6103C7.3828 15.5049 7.4938 15.1012 7.4938 15.1012ZM9.2198 16.3545C9.2198 16.355 9.22079 16.3553 9.22079 16.3554L9.41479 16.6509L9.0638 16.6556C8.4838 16.6556 8.0398 16.4963 7.7308 16.1807C7.5498 15.9938 7.4448 15.7828 7.3838 15.5962C7.2838 15.6818 7.1528 15.757 6.9818 15.7969C6.9188 15.8119 6.8478 15.8198 6.7718 15.8198C6.6088 15.8198 6.4708 15.7856 6.4558 15.7817L6.4548 15.7816L6.2308 15.7224L6.3298 15.5144L6.3308 15.5128C6.3448 15.4798 6.5198 15.0669 6.3228 14.4834C6.2358 14.2253 6.1918 13.9947 6.1708 13.815C6.0288 13.8881 5.8408 13.9486 5.5978 13.9492C5.0458 13.9492 4.7998 13.5431 4.7858 13.5198L4.6758 13.3297L4.8778 13.2468C5.5398 12.9735 5.6868 12.2396 5.7168 11.8425C5.6558 11.8539 5.5868 11.8644 5.5108 11.8666L5.4768 11.8677C4.7568 11.8677 4.51681 11.1393 4.50681 11.1082L4.4248 10.8514L4.6958 10.8597C4.7908 10.8597 5.5858 10.8389 6.1478 10.1271L6.2008 10.0612L6.2048 10.0564C6.5708 9.59283 6.9188 9.15241 7.5418 8.95126C7.5228 8.93516 7.4988 8.91519 7.4628 8.89221C7.1318 8.67598 6.9388 8.41273 6.8908 8.10739C6.8208 7.65677 7.1038 7.29544 7.1248 7.26796L7.1258 7.26674L7.3278 7.02045L7.4528 7.31268C7.4608 7.33116 7.67081 7.79925 8.11481 7.79925H8.1468C8.1548 7.79883 8.1618 7.79843 8.1698 7.79803C8.1918 7.79683 8.2128 7.79566 8.2348 7.79388C8.2198 7.58518 8.2578 7.26244 8.5528 6.95861C8.9068 6.594 9.33979 6.53903 9.56779 6.53903C9.67479 6.53903 9.7498 6.55082 9.7718 6.55426C9.7748 6.5547 9.7768 6.55501 9.7778 6.55514L10.0818 6.61483L9.8938 6.85962C9.7468 7.04815 9.6148 7.39664 9.7718 7.5783C9.8188 7.63245 9.91281 7.67685 10.0048 7.72097L10.0248 7.73033C10.2288 7.82351 10.5068 7.95386 10.5068 8.28475C10.5068 8.49862 10.3408 8.72279 10.0378 8.91325C9.1408 9.47368 8.5888 10.0588 8.3508 10.7045C7.9818 11.6978 8.4618 12.2643 8.9308 12.5629L9.14081 12.6971L8.9568 12.8651C8.9318 12.887 8.7078 13.0838 8.3748 13.1122C8.3128 13.1161 8.2528 13.1197 8.1958 13.1197C7.9828 13.1197 7.8018 13.0865 7.6548 13.0415C7.6958 13.1122 7.7458 13.1844 7.8078 13.2569C8.0758 13.5649 8.4048 13.7053 8.8768 13.713L9.0538 13.7158L9.0658 13.8912C9.0678 13.9267 9.0808 14.2519 8.7718 14.5288C8.7248 14.5717 8.6678 14.6069 8.6068 14.6354C8.8178 14.8235 9.0308 15.1512 9.0728 15.7121C9.1068 16.1631 9.2118 16.3403 9.2198 16.3545ZM5.8468 8.94887C5.9948 8.79706 6.1508 8.75154 6.2858 8.75154C6.4928 8.75154 6.6498 8.86105 6.6498 8.86105C6.3478 9.02107 6.1758 9.23302 6.0298 9.41121C5.9058 9.5637 5.8018 9.69147 5.6548 9.74078C5.6018 9.75946 5.5468 9.76762 5.4928 9.76762C5.2578 9.76762 5.0298 9.61624 4.9528 9.4436C4.9528 9.4436 5.3838 9.41741 5.8468 8.94887ZM5.4928 9.95789C5.5698 9.95789 5.64481 9.9465 5.71581 9.92224C5.91481 9.85684 6.0418 9.70091 6.1748 9.53776L6.1788 9.5323L6.1828 9.52757C6.3198 9.35997 6.4738 9.17131 6.7398 9.03049L7.0158 8.88298L6.7598 8.70367L6.7558 8.70149C6.7228 8.68002 6.53481 8.56067 6.28481 8.56067C6.07181 8.56067 5.8728 8.64785 5.7088 8.81405C5.3108 9.21902 4.9538 9.25166 4.9408 9.25187L4.6628 9.26819L4.7768 9.522C4.8918 9.77516 5.1928 9.95789 5.4928 9.95789ZM7.1938 10.392C6.9038 10.8727 6.7178 11.4555 6.7478 12.1748C6.7898 13.2053 7.3588 14.0964 7.9558 14.8121C8.2448 15.1593 8.3098 15.5866 8.3098 15.5866C8.3098 15.5866 8.1928 15.2097 7.8598 14.8219C7.2188 14.0745 6.6698 13.2978 6.5978 12.1791C6.5308 12.3823 6.2578 12.9466 5.8258 13.1591C5.8258 13.1591 6.3698 12.8326 6.6138 11.559V11.5691C6.7758 10.2724 7.7218 9.33594 8.7748 8.76691C8.8618 8.72037 8.9438 8.6802 9.0218 8.64194L9.0488 8.62863C8.7288 8.67845 8.2128 8.68425 7.8138 8.34047C7.8138 8.34047 8.4238 8.78667 9.6718 8.38127C9.5718 8.44589 9.4448 8.51823 9.2988 8.60079C8.9428 8.80323 8.4778 9.06716 8.0428 9.42956C6.5088 10.7701 7.6058 12.0778 7.6058 12.0778C7.0538 11.5053 7.0318 10.8925 7.1938 10.392ZM11.6408 9.55157V9.80857C11.7298 9.70079 11.9018 9.72289 11.9018 9.72289V10.0933C11.9018 10.0933 11.8968 10.2758 11.8308 10.3546H12.0178H12.2038C12.1398 10.2758 12.1328 10.0933 12.1328 10.0933V9.72289C12.1328 9.72289 12.3058 9.70079 12.3938 9.80857V9.55157H12.0178H11.6408ZM11.6688 8.13707C11.6538 8.13245 11.5878 8.11097 11.4808 8.02664C11.2838 7.87442 11.2798 7.73421 11.2798 7.73421L11.7178 7.91736V8.15933L11.6708 8.13807C11.6708 8.13791 11.6698 8.13761 11.6688 8.13707ZM12.5218 8.02664C12.7198 7.87442 12.7238 7.73421 12.7238 7.73421L12.2858 7.91736V8.15933L12.3318 8.13807C12.3328 8.13791 12.3338 8.13761 12.3348 8.13707C12.3488 8.13245 12.4158 8.11098 12.5218 8.02664ZM10.9468 6.96724L12.0018 7.38187L13.0568 6.96724C12.9678 6.75574 12.5538 6.57623 12.0018 6.57558C11.4498 6.57623 11.0368 6.75574 10.9468 6.96724ZM12.0788 9.05286L12.7878 8.68139L13.0408 7.22233L12.0788 7.54742V9.05286ZM13.5518 9.26802L13.2268 9.08078L12.8938 8.89075L12.0038 9.37302L12.0018 9.37108L11.9998 9.37302L11.1098 8.89075L10.7768 9.08078L10.4518 9.26802H10.4478L10.3658 9.31547C10.5488 9.36571 10.6888 9.4559 10.8068 9.57571C10.8088 9.5775 10.8098 9.57946 10.8118 9.58144C10.8148 9.58445 10.8168 9.58751 10.8208 9.5901C10.8468 9.61802 10.8728 9.6485 10.8978 9.679C10.8988 9.68032 10.8998 9.68162 10.9008 9.68291C10.9058 9.68856 10.9098 9.69409 10.9148 9.7009C10.9378 9.73097 10.9608 9.76339 10.9828 9.79624C10.9858 9.79988 10.9888 9.80401 10.9918 9.80826C10.9938 9.81153 10.9958 9.81487 10.9978 9.81815C11.0248 9.85808 11.0498 9.89996 11.0748 9.94289C11.3058 10.3386 11.6738 10.5753 12.0018 10.5757C12.3288 10.5753 12.6978 10.3386 12.9288 9.94289C12.9538 9.89888 12.9798 9.85594 13.0068 9.81621C13.0108 9.81063 13.0148 9.80461 13.0178 9.79882C13.0408 9.76467 13.0648 9.73139 13.0898 9.6994C13.0928 9.69585 13.0948 9.69241 13.0978 9.68909C13.0998 9.68599 13.1028 9.68298 13.1048 9.68007C13.1308 9.6485 13.1568 9.6178 13.1838 9.58903C13.1858 9.58707 13.1878 9.58507 13.1898 9.58313C13.1928 9.5808 13.1948 9.57856 13.1968 9.57658C13.3148 9.45698 13.4538 9.36571 13.6368 9.31547L13.5558 9.26802H13.5518ZM14.3728 11.0223C14.3728 10.8171 14.4328 10.6107 14.5058 10.42H12.8428C12.5878 10.6715 12.3438 10.7649 12.1248 10.7863C12.0858 10.7904 12.0448 10.793 12.0048 10.793H12.0018H11.9988C11.9588 10.793 11.9178 10.7904 11.8788 10.7863C11.8408 10.7831 11.8008 10.7771 11.7598 10.7679C11.7458 10.8246 11.7278 10.9425 11.7798 11.055C11.8258 11.1565 11.9198 11.2323 12.0568 11.2826L12.1028 11.3004L12.1038 11.3498C12.1038 11.3646 12.1148 11.685 12.4648 11.7739L12.4668 11.7717C12.5238 11.7139 12.5748 11.6614 12.6128 11.6178C12.5408 11.4496 12.5788 11.2783 12.6828 11.1943C12.6788 11.2121 12.6328 11.6324 12.9708 11.7885L13.0268 11.8151L13.0098 11.8744C13.0048 11.892 12.8918 12.2987 13.3018 12.45L13.3748 12.4771L13.3428 12.5473C13.3348 12.5632 13.1748 12.9321 13.5528 13.1414H14.3738V12.4932C14.0818 12.4575 13.9588 12.2241 13.9268 12.0586C13.7908 12.0356 13.6858 11.977 13.6138 11.8821C13.4598 11.6802 13.5618 11.4937 13.5868 11.4484C13.5898 11.443 13.5918 11.4397 13.5918 11.4385C13.5918 11.4404 13.5918 11.6605 13.7278 11.7962C13.7958 11.8615 13.8758 11.9124 13.9968 11.9237L14.0568 11.9293L14.0618 11.9899C14.0628 12.003 14.0958 12.3008 14.3738 12.3474L14.3728 11.0223ZM13.5718 15.7188L13.4798 16.1939C14.0278 16.0599 14.3748 15.649 14.3748 15.0605L14.3738 13.2847H9.62981V15.0605C9.62981 15.7869 10.1578 16.2414 10.9378 16.2414C11.5888 16.2414 11.7598 16.2668 12.0028 16.5057C12.1688 16.3401 12.3068 16.2782 12.5908 16.2552L12.5978 16.2275L12.7468 15.7679C12.7388 15.7572 12.4938 15.4811 12.4938 15.4811C12.3968 15.5131 12.3158 15.5185 12.1788 15.5185C12.0388 15.5185 11.8798 15.5022 11.7088 15.4699C11.6908 15.4661 11.6748 15.4646 11.6588 15.4646C11.6378 15.4646 11.6368 15.4661 11.6308 15.4764L11.6008 15.5251L11.5468 15.6147L11.4438 15.591L10.9888 15.4844L10.9268 15.587L10.9358 15.5979L10.9908 15.6587L10.9668 15.7377C10.9328 15.8412 10.8248 15.9623 10.7908 15.9953L10.6778 16.1171L10.5738 15.9866L10.4958 15.8893C10.4148 15.7981 10.3958 15.6587 10.4418 15.5121C10.4408 15.5131 10.4388 15.5137 10.4368 15.5142L10.3088 15.567L10.2508 15.4423L10.2098 15.3537C10.1398 15.1976 10.1658 14.9701 10.3538 14.8322L10.7208 14.6265L11.0698 14.6948C11.0728 14.6798 11.0778 14.6477 11.0828 14.6141C11.0888 14.5726 11.0948 14.5287 11.0998 14.5118C11.0978 14.5115 11.0958 14.5112 11.0938 14.5108C11.0888 14.5101 11.0848 14.5092 11.0798 14.5092L10.8788 14.5839L10.6858 14.4513C10.6858 14.4513 10.6098 14.3783 10.6778 14.3057L10.8658 14.0229L10.3908 13.4288L11.1208 13.7276L11.1698 13.6675L11.2688 13.5501L11.3808 13.6559C11.4118 13.6865 11.4308 13.7237 11.4388 13.7613C11.6398 13.8391 12.0018 14.0695 12.0338 14.4439L11.9208 14.4891V14.4914C11.9468 14.5222 11.9678 14.5346 11.9738 14.5358L12.4958 14.587C12.5048 14.5853 12.5148 14.5822 12.5258 14.5788C12.5318 14.577 12.5378 14.5751 12.5448 14.5732C12.6088 14.5515 12.7058 14.5195 12.8218 14.5195C12.9158 14.5195 13.0068 14.5408 13.0938 14.5816C13.1258 14.5696 13.1658 14.5606 13.2118 14.5577L13.2368 14.5571C13.5158 14.5571 13.6548 14.7641 13.7658 14.9297L13.7668 14.9304C13.7848 14.9593 13.8028 14.9859 13.8228 15.013C13.9198 15.1499 14.0468 15.3499 14.0528 15.3589L14.1098 15.4483L14.0398 15.5298C13.9858 15.5924 13.9038 15.6655 13.7638 15.6655C13.7348 15.6655 13.7038 15.6624 13.6698 15.6558C13.6398 15.6503 13.6128 15.6415 13.5868 15.6308C13.5828 15.6581 13.5768 15.6907 13.5718 15.7188ZM10.5828 15.2513L10.5588 15.1898C10.5408 15.1499 10.5428 15.1066 10.5768 15.083L10.7768 14.9459L11.1098 15.0095C11.1098 15.0095 11.0498 14.9344 11.0558 14.8339L10.7368 14.7669L10.4368 14.9486C10.3088 15.0446 10.2988 15.201 10.3418 15.2941L10.3818 15.381C10.3818 15.381 10.5668 15.3052 10.5828 15.2513ZM13.3278 16.2232L13.4298 15.6919C13.4418 15.6339 13.4528 15.5563 13.4528 15.5563C13.4468 15.5505 13.4398 15.5438 13.4318 15.5364C13.3858 15.4916 13.3098 15.4172 13.2628 15.3297C13.2248 15.2568 13.2178 15.2022 13.2098 15.1405C13.2028 15.0852 13.1948 15.0244 13.1628 14.9395C13.1628 14.9395 13.1838 14.8979 13.2308 14.8979C13.2388 14.8979 13.2468 14.8988 13.2548 14.9009C13.3168 14.9185 13.3588 15.0235 13.4068 15.1421C13.4718 15.3027 13.5468 15.4883 13.6948 15.5154C13.7208 15.5204 13.7438 15.5222 13.7638 15.5222C13.8388 15.5222 13.8828 15.4908 13.9308 15.4345C13.9308 15.4345 13.8008 15.2323 13.7048 15.0956C13.6838 15.0672 13.6648 15.0379 13.6448 15.0087C13.5408 14.8536 13.4378 14.701 13.2368 14.701C13.2308 14.701 13.2238 14.701 13.2188 14.7018C13.1398 14.7055 13.0908 14.7439 13.0908 14.7439C12.9938 14.6834 12.9028 14.6628 12.8218 14.6628C12.7298 14.6628 12.6498 14.6887 12.5888 14.7087C12.5508 14.7211 12.5188 14.7313 12.4968 14.7313H12.4948L11.9608 14.6785C11.8768 14.6707 11.8108 14.587 11.7868 14.5539C11.7808 14.5451 11.7778 14.5397 11.7778 14.5397C11.7778 14.5255 11.7778 14.5106 11.7768 14.4974C11.7588 14.0624 11.4198 13.8763 11.2998 13.8732C11.2998 13.8732 11.3138 13.7908 11.2808 13.759L11.1628 13.9013L10.7768 13.7082L11.0528 14.0291L10.8188 14.2903C10.7898 14.3201 10.7928 14.3601 10.8058 14.377L10.9068 14.4658L11.0348 14.3888C11.0408 14.3838 11.0528 14.3826 11.0668 14.3826C11.0828 14.3826 11.1028 14.3845 11.1248 14.3866C11.1498 14.389 11.1778 14.3916 11.2028 14.3916C11.2548 14.3916 11.2998 14.3806 11.3058 14.3318C11.3008 14.3806 11.2838 14.4401 11.2648 14.5055C11.2218 14.6568 11.1688 14.8396 11.2378 14.9934L11.3118 15.1601L10.8388 15.0921L10.6178 15.4639C10.5488 15.5876 10.5388 15.7214 10.6038 15.7944L10.6868 15.8974C10.6868 15.8974 10.8028 15.7751 10.8288 15.6944L10.7908 15.6533C10.7598 15.6185 10.7608 15.5876 10.7808 15.5505L10.9188 15.3217L11.4768 15.4524L11.5068 15.4025C11.5448 15.3398 11.5988 15.3211 11.6588 15.3211C11.6838 15.3211 11.7088 15.3239 11.7348 15.3283C11.8388 15.3486 12.0088 15.3756 12.1788 15.3756C12.3658 15.3756 12.5518 15.3424 12.6508 15.2323C12.7548 15.3849 12.9118 15.4718 13.0378 15.5407C13.1568 15.6063 13.2458 15.6554 13.2298 15.7293L13.1228 16.2397C13.1938 16.2369 13.2628 16.2322 13.3278 16.2232ZM12.7408 16.2465C12.7998 16.2442 12.8668 16.2433 12.9378 16.2433C12.9378 16.2433 13.1098 15.7437 13.1198 15.7278C13.0238 15.6857 12.8238 15.5803 12.7468 15.5319C12.7628 15.5568 12.7878 15.5828 12.8118 15.6088C12.8628 15.6624 12.9138 15.7162 12.8968 15.7613L12.7408 16.2465ZM10.6328 11.0275L10.6108 11.8708L10.7068 11.8856L10.9428 11.076L10.8228 10.8271L10.6328 11.0275ZM10.8738 12.2651C10.8348 12.2404 10.7788 12.1973 10.7468 12.1322C10.7118 12.0573 10.6608 12.0225 10.5858 12.0225C10.4888 12.0225 10.3858 12.0805 10.3408 12.1078C10.3058 12.3158 10.4598 12.5043 10.5628 12.5423C10.6568 12.5762 10.7698 12.5833 10.8288 12.5833C10.8298 12.5808 10.8298 12.578 10.8308 12.575C10.8328 12.5696 10.8348 12.5635 10.8368 12.5567C10.8418 12.5397 10.8468 12.5223 10.8508 12.5039C10.8668 12.4201 10.8728 12.3259 10.8738 12.2651ZM12.2908 12.835C12.4278 12.7399 12.8038 12.4661 12.9508 12.359C12.8438 12.2044 12.8338 12.0208 12.8578 11.892C12.7878 11.8475 12.7348 11.7971 12.6928 11.7438C12.5308 11.9191 12.2298 12.2112 12.1608 12.2779C12.1528 12.285 12.1488 12.2895 12.1468 12.2911L12.1258 12.3126L11.0198 12.295C11.0188 12.4043 11.0008 12.4968 10.9838 12.5649C10.9818 12.5717 10.9808 12.5786 10.9788 12.5856C10.9778 12.5904 10.9758 12.5951 10.9748 12.5999L12.2908 12.835ZM11.6208 10.7271C11.4748 10.6738 11.3198 10.5763 11.1608 10.42H9.4978C9.5698 10.6107 9.62981 10.8171 9.62981 11.0223V13.1414H13.3198C13.1358 12.9521 13.1388 12.7123 13.1848 12.5568C13.1318 12.531 13.0868 12.5003 13.0478 12.4664C12.9028 12.5722 12.4638 12.8909 12.3478 12.9712L12.3238 12.9873L10.8758 12.7272H10.8458C10.8118 12.7272 10.7608 12.7257 10.7048 12.7191C10.6898 12.7842 10.6328 12.8284 10.5688 12.8284C10.5608 12.8284 10.5528 12.8279 10.5458 12.8265C10.5078 12.8201 10.4748 12.8009 10.4528 12.7693C10.4298 12.7384 10.4208 12.7015 10.4278 12.6637L10.4328 12.6323C10.2838 12.5278 10.1458 12.2939 10.2068 12.0472L10.2128 12.021L10.2338 12.0062C10.2368 12.0038 10.2618 11.9869 10.2988 11.9658L10.1938 11.9497C10.1548 11.9429 10.1278 11.9061 10.1338 11.8677C10.1408 11.8286 10.1778 11.8003 10.2168 11.8078L10.4678 11.8475L10.4908 10.9691L10.8638 10.5763L11.0968 11.064L10.8508 11.9089L11.0718 11.9437C11.1108 11.9499 11.1378 11.9862 11.1318 12.0262C11.1258 12.0616 11.0958 12.0854 11.0608 12.0854C11.0568 12.0854 11.0528 12.0854 11.0498 12.085L10.8698 12.0562C10.8708 12.0587 10.8718 12.0607 10.8728 12.0627C10.8748 12.065 10.8758 12.0672 10.8778 12.0702C10.8968 12.1099 10.9388 12.1378 10.9638 12.1503L12.0678 12.1677L12.0718 12.1633C12.1218 12.1152 12.2338 12.0057 12.3498 11.8898C12.0778 11.7874 11.9788 11.5546 11.9628 11.3998C11.8108 11.3354 11.7058 11.239 11.6478 11.1138C11.5768 10.9585 11.6018 10.8029 11.6208 10.7271ZM11.9248 7.54742L10.9618 7.22233L11.2158 8.68139L11.9248 9.05286V7.54742ZM12.0038 6.34282C12.6898 6.34282 13.3108 6.67328 13.3108 7.04067L13.2978 7.13107L13.0238 8.69556L13.2978 8.85446L14.0108 9.26802H14.0078C14.0078 9.26802 14.1678 9.34983 14.2408 9.40029C14.5138 9.58731 14.5708 9.86087 14.4128 9.97382C14.3738 9.75094 14.1968 9.51818 13.8658 9.51818C13.6268 9.51818 13.4458 9.64014 13.2978 9.82459C13.2608 9.87097 13.2248 9.92057 13.1908 9.97382C13.1498 10.0412 13.1088 10.1003 13.0678 10.157H14.9008C14.7658 10.4267 14.6378 10.7121 14.6378 11.0223V15.0605C14.6378 16.0381 13.8838 16.5043 13.0668 16.5043C13.0188 16.5043 12.9738 16.5041 12.9328 16.5039C12.4198 16.5021 12.3228 16.5017 12.0028 16.8212C11.6808 16.5017 11.5838 16.5021 11.0708 16.5039C11.0298 16.5041 10.9848 16.5043 10.9378 16.5043C10.1208 16.5043 9.3658 16.0381 9.3658 15.0605V11.0223C9.3658 10.7121 9.2378 10.4267 9.1028 10.157H10.9358C10.8948 10.1003 10.8538 10.0412 10.8118 9.97382C10.7788 9.92057 10.7428 9.87097 10.7048 9.82459C10.5588 9.64078 10.3768 9.51818 10.1378 9.51818C9.8058 9.51818 9.62881 9.75094 9.59081 9.97382C9.43281 9.86087 9.4908 9.58731 9.7618 9.40029C9.83579 9.34983 9.9958 9.26802 9.9958 9.26802H9.9938L10.7048 8.85446L10.9798 8.69556L10.7058 7.13107L10.6928 7.04067C10.6928 6.67328 11.3138 6.34282 11.9998 6.34282H12.0018H12.0038Z" fill="#231F20"/>
</g>
</svg>
