<svg width="24" height="24" viewBox="0 0 24 24" fill="none" xmlns="http://www.w3.org/2000/svg">
<path d="M12 24C18.627 24 24 18.6274 24 12C24 5.37258 18.627 0 12 0C5.373 0 0 5.37258 0 12C0 18.6274 5.373 24 12 24Z" fill="#FFEFEC"/>
<path d="M16 18.5372H13.635V6.82975H12.579C10.645 6.82975 9.633 7.79669 9.633 9.23967C9.633 10.876 10.332 11.6347 11.775 12.6017L12.965 13.405L9.54401 18.5372H7L10.079 13.9554C8.30899 12.6909 7.312 11.4562 7.312 9.37355C7.312 6.77025 9.127 5 12.564 5H15.985V18.5372H16Z" fill="#FC3F1D"/>
</svg>
