<svg width="24" height="24" viewBox="0 0 24 24" fill="none" xmlns="http://www.w3.org/2000/svg">
<path d="M12 24C18.627 24 24 18.6274 24 12C24 5.37258 18.627 0 12 0C5.373 0 0 5.37258 0 12C0 18.6274 5.373 24 12 24Z" fill="#FAFAFA"/>
<mask id="mask0_112_366" style="mask-type:luminance" maskUnits="userSpaceOnUse" x="7" y="5" width="11" height="14">
<path d="M18 5H7V18.4694H18V5Z" fill="white"/>
</mask>
<g mask="url(#mask0_112_366)">
<path d="M7 7.93359L8.631 10.8492V12.6276L7.002 15.5374L7 7.93359Z" fill="#5B57A2"/>
<path d="M13.2632 9.78737L14.7912 8.85057L17.9192 8.84766L13.2632 11.7002V9.78737Z" fill="#D90751"/>
<path d="M13.2539 7.91466L13.2629 11.7748L11.6279 10.7702V5L13.2539 7.91466Z" fill="#FAB718"/>
<path d="M17.9189 8.84674L14.7909 8.84966L13.2539 7.91466L11.6279 5L17.9189 8.84674Z" fill="#ED6F26"/>
<path d="M13.2629 15.5517V13.6789L11.6279 12.6934L11.6289 18.4693L13.2629 15.5517Z" fill="#63B22F"/>
<path d="M14.788 14.6253L8.631 10.8492L7 7.93359L17.913 14.6215L14.788 14.6253Z" fill="#1487C9"/>
<path d="M11.6289 18.4688L13.2629 15.5512L14.7869 14.623L17.9129 14.6191L11.6289 18.4688Z" fill="#017F36"/>
<path d="M7.00195 15.5334L11.641 12.6914L10.082 11.7344L8.63095 12.6236L7.00195 15.5334Z" fill="#984995"/>
</g>
</svg>
