<svg width="204" height="24" viewBox="0 0 204 24" fill="none" xmlns="http://www.w3.org/2000/svg">
<g clip-path="url(#clip0_6225_554)">
<path d="M12 24C18.6274 24 24 18.6274 24 12C24 5.37258 18.6274 0 12 0C5.37258 0 0 5.37258 0 12C0 18.6274 5.37258 24 12 24Z" fill="#FAFAFA"/>
<path fill-rule="evenodd" clip-rule="evenodd" d="M12 15.444C11.1527 16.1583 10.0535 16.5894 8.85246 16.5894C6.17252 16.5894 4 14.4428 4 11.7947C4 9.1467 6.17252 7 8.85246 7C10.0535 7 11.1527 7.43116 12 8.14539C12.8473 7.43116 13.9465 7 15.1475 7C17.8275 7 20 9.1467 20 11.7947C20 14.4428 17.8275 16.5894 15.1475 16.5894C13.9465 16.5894 12.8473 16.1583 12 15.444Z" fill="#ED0006"/>
<path fill-rule="evenodd" clip-rule="evenodd" d="M12 15.444C13.0433 14.5646 13.7049 13.256 13.7049 11.7947C13.7049 10.3334 13.0433 9.0248 12 8.14539C12.8473 7.43116 13.9465 7 15.1475 7C17.8275 7 20 9.1467 20 11.7947C20 14.4428 17.8275 16.5894 15.1475 16.5894C13.9465 16.5894 12.8473 16.1583 12 15.444Z" fill="#F9A000"/>
<path fill-rule="evenodd" clip-rule="evenodd" d="M11.9998 15.4432C13.0431 14.5637 13.7047 13.2551 13.7047 11.7939C13.7047 10.3326 13.0431 9.02398 11.9998 8.14453C10.9565 9.02398 10.2949 10.3326 10.2949 11.7939C10.2949 13.2551 10.9565 14.5637 11.9998 15.4432Z" fill="#FF5E00"/>
<path d="M42 24C48.6274 24 54 18.6274 54 12C54 5.37258 48.6274 0 42 0C35.3726 0 30 5.37258 30 12C30 18.6274 35.3726 24 42 24Z" fill="#EFF2FF"/>
<path fill-rule="evenodd" clip-rule="evenodd" d="M37.5002 14.8675H35.9424L34.7743 10.2799C34.7188 10.0689 34.6011 9.8823 34.4279 9.7944C33.9957 9.5734 33.5195 9.3975 33 9.3088V9.1322H35.5095C35.8558 9.1322 36.1156 9.3975 36.1589 9.7057L36.765 13.0149L38.322 9.1322H39.8365L37.5002 14.8675ZM40.7024 14.8675H39.2312L40.4426 9.1322H41.9138L40.7024 14.8675ZM43.8172 10.7211C43.8605 10.4122 44.1202 10.2356 44.4233 10.2356C44.8995 10.1913 45.4183 10.28 45.8512 10.5002L46.1109 9.2653C45.678 9.0887 45.2018 9 44.7696 9C43.3417 9 42.3027 9.7944 42.3027 10.897C42.3027 11.7358 43.0387 12.1762 43.5582 12.4415C44.1202 12.706 44.3367 12.8827 44.2934 13.1472C44.2934 13.5441 43.8605 13.7207 43.4283 13.7207C42.9088 13.7207 42.3893 13.5884 41.9138 13.3674L41.654 14.603C42.1736 14.8232 42.7356 14.9119 43.2551 14.9119C44.8562 14.9555 45.8512 14.1619 45.8512 12.9706C45.8512 11.4704 43.8172 11.3825 43.8172 10.7211ZM51 14.8675L49.8318 9.1322H48.5771C48.3174 9.1322 48.0576 9.3088 47.971 9.5734L45.8079 14.8675H47.3224L47.6247 14.0295H49.4855L49.6587 14.8675H51ZM48.7936 10.6768L49.2258 12.8384H48.0143L48.7936 10.6768Z" fill="#172B85"/>
<path d="M72 24C78.6274 24 84 18.6274 84 12C84 5.37258 78.6274 0 72 0C65.3726 0 60 5.37258 60 12C60 18.6274 65.3726 24 72 24Z" fill="#FAFAFA"/>
<path d="M74.1634 8.11914H69.8369V15.8939H74.1634V8.11914Z" fill="#7375CF"/>
<path d="M70.1116 12.007C70.1109 11.2583 70.2806 10.5192 70.6078 9.84566C70.935 9.17217 71.4111 8.58193 72.0001 8.11964C71.2707 7.5463 70.3947 7.18975 69.4722 7.09074C68.5497 6.99173 67.618 7.15426 66.7835 7.55974C65.949 7.96523 65.2455 8.59732 64.7533 9.38376C64.261 10.1702 64 11.0793 64 12.007C64 12.9348 64.261 13.8439 64.7533 14.6303C65.2455 15.4168 65.949 16.0489 66.7835 16.4543C67.618 16.8598 68.5497 17.0224 69.4722 16.9233C70.3947 16.8243 71.2707 16.4678 72.0001 15.8944C71.4111 15.4322 70.935 14.8419 70.6078 14.1684C70.2806 13.4949 70.1109 12.7558 70.1116 12.007V12.007Z" fill="#EB001B"/>
<path d="M79.528 15.0708V14.9117H79.5922V14.8792H79.4287V14.9117H79.4929V15.0708H79.528ZM79.8453 15.0708V14.8789H79.7952L79.7376 15.0109L79.6799 14.8789H79.6298V15.0708H79.6652V14.9261L79.7192 15.0509H79.7559L79.81 14.9257V15.0708H79.8453Z" fill="#00A2E5"/>
<path d="M79.9999 12.007C79.9999 12.9348 79.7389 13.8439 79.2467 14.6303C78.7545 15.4167 78.051 16.0488 77.2165 16.4543C76.382 16.8598 75.4503 17.0224 74.5279 16.9233C73.6054 16.8243 72.7294 16.4678 72 15.8944C72.5885 15.4317 73.0643 14.8414 73.3914 14.168C73.7185 13.4946 73.8885 12.7557 73.8885 12.007C73.8885 11.2584 73.7185 10.5195 73.3914 9.84612C73.0643 9.17273 72.5885 8.5824 72 8.11964C72.7294 7.5463 73.6054 7.18975 74.5279 7.09074C75.4503 6.99173 76.382 7.15426 77.2165 7.55975C78.051 7.96524 78.7545 8.59733 79.2467 9.38377C79.7389 10.1702 79.9999 11.0793 79.9999 12.007V12.007Z" fill="#00A2E5"/>
<path d="M102 24C108.627 24 114 18.6274 114 12C114 5.37258 108.627 0 102 0C95.3726 0 90 5.37258 90 12C90 18.6274 95.3726 24 102 24Z" fill="#F1FFFB"/>
<mask id="mask0_6225_554" style="mask-type:luminance" maskUnits="userSpaceOnUse" x="93" y="9" width="18" height="6">
<path d="M111 9.5H93V14.54H111V9.5Z" fill="white"/>
</mask>
<g mask="url(#mask0_6225_554)">
<path d="M96.9371 10.1615L96.2688 12.4767H96.1544L95.4861 10.1615C95.3717 9.7697 95.0129 9.5 94.6028 9.5H93V14.54H94.6048V11.5613H94.7192L95.6379 14.54H96.7853L97.7021 11.5613H97.8164V14.54H99.4213V9.5H97.8184C97.4103 9.5 97.0515 9.7697 96.9371 10.1615ZM105.823 14.54H107.437V13.0497H109.062C109.912 13.0497 110.635 12.5693 110.915 11.894H105.823V14.54ZM102.962 10.0316L101.832 12.4787H101.718V9.5H100.113V14.54H101.476C101.834 14.54 102.16 14.3313 102.31 14.0084L103.439 11.5632H103.554V14.54H105.158V9.5H103.796C103.437 9.5 103.112 9.7087 102.962 10.0316Z" fill="#006848"/>
<path d="M109.222 9.5C109.685 9.5 110.105 9.6772 110.423 9.9686C110.777 10.2914 111 10.7561 111 11.2738C111 11.3802 110.988 11.4845 110.971 11.5869H107.99C106.98 11.5869 106.125 10.9254 105.837 10.0119C105.833 10.002 105.831 9.9902 105.827 9.9784C105.819 9.9508 105.813 9.9213 105.805 9.8937C105.776 9.7658 105.756 9.6358 105.748 9.5H109.222Z" fill="url(#paint0_linear_6225_554)"/>
</g>
<path d="M132 24C138.627 24 144 18.6274 144 12C144 5.37258 138.627 0 132 0C125.373 0 120 5.37258 120 12C120 18.6274 125.373 24 132 24Z" fill="#FFF7D0"/>
<g clip-path="url(#clip1_6225_554)">
<path fill-rule="evenodd" clip-rule="evenodd" d="M139.994 10.5384L139.308 10.5601C139.249 10.5601 138.828 10.5481 138.419 10.2528C138.45 10.2556 138.48 10.2601 138.511 10.2601C138.932 10.2601 139.34 10.0081 139.503 9.64688L139.798 8.99498C139.428 8.99991 139.089 8.95331 139.089 8.95331C139.086 8.9531 138.82 8.91874 138.511 8.60503C138.29 8.38022 138.016 8.26104 137.719 8.26104C137.59 8.26104 137.474 8.28445 137.374 8.31601C137.389 8.26319 137.404 8.2095 137.412 8.15432C137.507 7.54407 137.113 7.07898 137.112 7.07941L136.596 6.44297L136.276 7.19064C136.275 7.19279 136.194 7.36822 136.049 7.45346C136.006 7.2338 135.899 6.98665 135.67 6.75088C135.238 6.30597 134.712 6.2394 134.437 6.2394C134.31 6.2394 134.219 6.25314 134.196 6.2568L133.573 6.37854C133.609 6.24026 133.686 5.99869 133.826 5.7814L134.17 5.24844L133.304 5.34636L133.029 4.76381L132.495 5.03759L132.002 4.55273L131.51 5.03759L130.975 4.76381L130.7 5.34636L129.834 5.24823L130.179 5.78161C130.319 5.99869 130.395 6.23962 130.431 6.3779L129.836 6.2613L129.816 6.25787C129.786 6.25314 129.696 6.2394 129.568 6.2394C129.293 6.2394 128.767 6.30597 128.336 6.75066C128.107 6.98643 127.999 7.2338 127.955 7.45346C127.812 7.36886 127.731 7.19643 127.731 7.19643L127.411 6.44446L126.887 7.08478C126.822 7.16723 126.507 7.60463 126.592 8.15497C126.601 8.20993 126.616 8.26319 126.631 8.31601C126.532 8.28402 126.416 8.26104 126.286 8.26104C125.989 8.26104 125.715 8.38022 125.494 8.60503C125.186 8.91746 124.977 8.93942 124.923 8.95267C124.87 8.96592 124.642 9.00291 124.208 8.99498L124.502 9.64688C124.665 10.0081 125.073 10.2601 125.493 10.2601C125.525 10.2601 125.555 10.2556 125.586 10.2528C125.178 10.5481 124.757 10.5601 124.706 10.5603L124.007 10.5384L124.218 11.1993C124.325 11.5399 124.681 12.104 125.363 12.1647C125.289 12.474 125.124 12.8207 124.763 12.9702L124.242 13.1836L124.526 13.6758C124.686 13.9412 125.063 14.2517 125.599 14.2517C125.715 14.2513 125.826 14.2397 125.934 14.2168C125.962 14.3382 125.996 14.4598 126.037 14.5804C126.196 15.0531 126.059 15.3824 126.057 15.3861L125.8 15.922L126.374 16.0725C126.381 16.0747 126.555 16.1221 126.772 16.1221C126.87 16.1221 126.965 16.112 127.052 16.0911C127.119 16.0756 127.183 16.0549 127.245 16.03C127.319 16.1625 127.41 16.2836 127.515 16.392C127.882 16.7676 128.404 16.9579 129.064 16.9579H129.066L129.537 16.9518L128.564 17.3548L129.303 17.7104C129.572 17.8406 129.89 17.9945 130.214 18.1124L130.122 18.3639L130.377 18.4794C130.399 18.4897 130.889 18.7077 131.703 18.7542C131.703 18.7542 131.9 18.7633 132.009 18.7633C132.117 18.7633 132.311 18.7536 132.311 18.7536C133.12 18.7059 133.606 18.4897 133.629 18.4794L133.884 18.3635L133.791 18.1118C134.124 17.9904 134.455 17.8303 134.712 17.7051L135.438 17.3544L134.467 16.9518L134.94 16.9579C135.602 16.9579 136.123 16.7674 136.49 16.3914C136.595 16.2838 136.685 16.1632 136.76 16.03C136.821 16.0549 136.886 16.0756 136.953 16.0915C137.041 16.112 137.135 16.1221 137.233 16.1221C137.446 16.1221 137.622 16.0754 137.626 16.0738L138.203 15.922L137.952 15.3959C137.946 15.3824 137.808 15.0531 137.968 14.58C138.008 14.4593 138.042 14.3378 138.07 14.2168C138.179 14.2397 138.292 14.2513 138.408 14.2517C139.091 14.2517 139.418 13.7741 139.481 13.6702L139.762 13.1832L139.242 12.9706C138.88 12.8207 138.716 12.4742 138.642 12.1652C139.315 12.1068 139.676 11.5423 139.786 11.1996L139.994 10.5384Z" fill="#FEFEFE"/>
<path fill-rule="evenodd" clip-rule="evenodd" d="M133.139 6.16182C132.825 5.9879 132.418 5.88891 132.002 5.88891C131.588 5.88891 131.181 5.9879 130.866 6.16182C130.837 6.06627 130.797 5.95011 130.743 5.82857L130.861 5.84253L130.985 5.85562L131.039 5.74268L131.196 5.40963L131.486 5.5593L131.599 5.6162L131.688 5.52817L132.002 5.21875L132.316 5.52817L132.406 5.6162L132.518 5.5593L132.807 5.40963L132.966 5.74268L133.018 5.85562L133.143 5.84253L133.262 5.82857C133.207 5.95011 133.167 6.06627 133.139 6.16182ZM132.002 6.57564C131.45 6.57629 131.037 6.75601 130.947 6.96752L132.002 7.38215L133.057 6.96752C132.968 6.75601 132.554 6.57629 132.002 6.57564ZM132.013 17.5426H132.012H132.003H131.992H131.991C131.658 17.5447 131.197 17.4764 130.976 17.4122L130.709 18.1303C130.885 18.1925 131.48 18.3122 132.003 18.3122C132.524 18.3122 133.12 18.1925 133.295 18.1303L133.029 17.4122C132.807 17.4764 132.347 17.5447 132.013 17.5426ZM133.132 17.1857C133.389 17.1077 133.832 16.9398 134.031 16.828L133.898 17.2595L134.348 17.4081C134.076 17.5438 133.747 17.6704 133.348 17.7788L133.132 17.1857ZM129.973 16.828L130.106 17.2595L129.656 17.4081C129.928 17.5438 130.258 17.6704 130.656 17.7788L130.873 17.1857C130.615 17.1077 130.172 16.9398 129.973 16.828ZM138.348 9.74117C138.402 9.75984 138.457 9.76801 138.511 9.76801C138.747 9.76801 138.974 9.61662 139.052 9.44356C139.052 9.44356 138.621 9.41758 138.157 8.94927C138.01 8.79746 137.853 8.75214 137.719 8.75214C137.511 8.75214 137.355 8.86122 137.355 8.86122C137.657 9.02143 137.83 9.2339 137.974 9.41236C138.098 9.56447 138.201 9.69187 138.348 9.74117ZM125.655 9.74117C125.602 9.75984 125.547 9.76801 125.493 9.76801C125.258 9.76801 125.03 9.61662 124.953 9.44377C124.953 9.44377 125.383 9.41758 125.847 8.94927C125.995 8.79723 126.151 8.75214 126.286 8.75214C126.493 8.75214 126.649 8.86143 126.649 8.86143C126.348 9.02131 126.175 9.23335 126.03 9.41163C125.906 9.56404 125.802 9.69178 125.655 9.74117ZM138.179 13.1594C137.746 12.9468 137.472 12.3825 137.406 12.1794C137.334 13.2981 136.785 14.0747 136.144 14.8224C135.811 15.21 135.694 15.5868 135.694 15.5868C135.694 15.5868 135.759 15.1598 136.047 14.8123C136.645 14.0966 137.214 13.2056 137.257 12.1751C137.285 11.456 137.1 10.873 136.81 10.3922C136.972 10.8927 136.949 11.5056 136.398 12.0778C136.398 12.0778 137.495 10.7704 135.962 9.42981C135.527 9.06761 135.062 8.80378 134.705 8.60138C134.56 8.51869 134.432 8.44623 134.332 8.38153C135.58 8.78693 136.19 8.34073 136.19 8.34073C135.791 8.68451 135.275 8.67871 134.955 8.62911C135.042 8.67119 135.132 8.71521 135.229 8.76717C136.282 9.33619 137.228 10.2726 137.389 11.5693V11.5595C137.634 12.8328 138.179 13.1594 138.179 13.1594ZM138.5 11.6758C138.509 11.6765 138.518 11.6765 138.528 11.6765C139.114 11.6765 139.313 11.051 139.313 11.051H139.302C139.194 11.051 138.322 11.0257 137.705 10.2458C137.688 10.224 137.67 10.2023 137.654 10.1807C137.27 9.69473 136.938 9.2739 136.309 9.10408L136.244 9.09291L136.231 9.0272C136.212 8.92757 136.281 8.83374 136.437 8.73281C137.344 8.1419 136.728 7.38799 136.728 7.38799C136.728 7.38799 136.469 7.99094 135.89 7.99094C135.883 7.99094 135.876 7.99073 135.869 7.99052C135.862 7.9903 135.854 7.99009 135.847 7.99009L135.834 7.98942C135.773 7.98627 135.713 7.9832 135.654 7.97076L135.547 7.94993C135.547 7.94993 135.712 7.50266 135.313 7.09232C135.013 6.78247 134.648 6.72986 134.437 6.72986C134.331 6.72986 134.263 6.74339 134.263 6.74339C134.463 7.00384 134.608 7.43631 134.377 7.70321C134.3 7.79188 134.179 7.84791 134.06 7.90308C133.872 7.99047 133.689 8.07571 133.689 8.28512C133.689 8.43006 133.825 8.59883 134.069 8.75042C134.803 9.21015 135.531 9.82061 135.834 10.6383C136.212 11.6582 135.786 12.3353 135.178 12.7237C135.178 12.7237 135.368 12.8985 135.645 12.9208C135.701 12.9262 135.756 12.9289 135.808 12.9289C136.392 12.9289 136.694 12.6561 136.694 12.6561C136.694 12.6561 136.644 13.0329 136.34 13.3827C136.06 13.7057 135.692 13.8961 135.13 13.9038C135.13 13.9038 135.112 14.1635 135.361 14.388C135.52 14.5298 135.888 14.5757 135.888 14.5757C135.888 14.5757 135.199 14.7146 135.123 15.7262C135.082 16.2744 134.941 16.465 134.941 16.465H134.954C136.551 16.465 136.51 15.1018 136.51 15.1018C136.51 15.1018 136.621 15.5053 137.067 15.6107C137.12 15.6244 137.178 15.63 137.233 15.63C137.376 15.63 137.501 15.5965 137.501 15.5965C137.501 15.5965 137.267 15.1067 137.499 14.4216C137.691 13.8529 137.66 13.4319 137.66 13.4319C137.66 13.4319 137.875 13.7555 138.408 13.7585H138.414C138.858 13.7585 139.052 13.4233 139.052 13.4233C137.987 12.9833 138.092 11.5635 138.092 11.5635C138.092 11.5635 138.23 11.6662 138.5 11.6758ZM126.597 12.1792C126.67 13.2981 127.219 14.0747 127.86 14.8222C128.193 15.21 128.311 15.5866 128.311 15.5866C128.311 15.5866 128.245 15.1596 127.956 14.8126C127.359 14.0966 126.79 13.2054 126.748 12.1751C126.718 11.4558 126.904 10.8728 127.194 10.3922C127.032 10.893 127.054 11.5056 127.606 12.078C127.606 12.078 126.509 10.7704 128.043 9.42983C128.478 9.06779 128.942 8.80414 129.298 8.60175C129.444 8.51894 129.572 8.44639 129.672 8.38155C128.424 8.78695 127.814 8.34053 127.814 8.34053C128.213 8.68453 128.729 8.67873 129.049 8.62913L129.042 8.63269C128.957 8.6737 128.869 8.7167 128.775 8.76741C127.722 9.33621 126.776 10.2728 126.614 11.5694V11.5593C126.37 12.8326 125.825 13.1594 125.825 13.1594C126.258 12.9468 126.531 12.3823 126.597 12.1792ZM128.644 14.3879C128.484 14.5298 128.117 14.5757 128.117 14.5757C128.117 14.5757 128.806 14.7144 128.881 15.7262C128.922 16.2744 129.062 16.4648 129.062 16.4648H129.051C127.453 16.4648 127.494 15.1016 127.494 15.1016C127.494 15.1016 127.383 15.5053 126.938 15.6107C126.884 15.6244 126.827 15.63 126.772 15.63C126.628 15.63 126.504 15.5965 126.504 15.5965C126.504 15.5965 126.736 15.1069 126.505 14.4216C126.314 13.8529 126.345 13.4317 126.345 13.4317C126.345 13.4317 126.13 13.7555 125.596 13.7587H125.591C125.147 13.7587 124.953 13.4233 124.953 13.4233C126.017 12.9834 125.913 11.5636 125.913 11.5636C125.913 11.5636 125.774 11.6662 125.504 11.6759C125.495 11.6765 125.486 11.6765 125.476 11.6765C124.889 11.6765 124.69 11.051 124.69 11.051H124.702C124.811 11.051 125.682 11.0257 126.299 10.2458C126.316 10.2238 126.333 10.202 126.35 10.1803C126.734 9.69472 127.066 9.27407 127.694 9.1041L127.76 9.09272L127.774 9.02722C127.792 8.92759 127.723 8.83354 127.568 8.73283C126.661 8.14191 127.276 7.38822 127.276 7.38822C127.276 7.38822 127.534 7.99096 128.115 7.99096C128.122 7.99096 128.129 7.9908 128.135 7.99064C128.142 7.99048 128.15 7.99032 128.157 7.99032L128.174 7.98939C128.234 7.98614 128.292 7.98294 128.351 7.97077L128.458 7.94995C128.458 7.94995 128.292 7.50268 128.691 7.09233C128.991 6.78249 129.357 6.72967 129.567 6.72967C129.674 6.72967 129.741 6.7434 129.741 6.7434C129.541 7.00387 129.396 7.43632 129.627 7.70301C129.705 7.79179 129.825 7.84788 129.944 7.9031C130.132 7.99052 130.315 8.07576 130.315 8.28513C130.315 8.42986 130.179 8.59884 129.935 8.75044C129.201 9.21017 128.473 9.82084 128.17 10.6383C127.792 11.6585 128.218 12.3355 128.828 12.7237C128.828 12.7237 128.636 12.8985 128.359 12.9208C128.303 12.9262 128.248 12.9288 128.196 12.9288C127.612 12.9288 127.31 12.6561 127.31 12.6561C127.31 12.6561 127.36 13.0329 127.662 13.3829C127.945 13.7057 128.313 13.8961 128.875 13.9039C128.875 13.9039 128.892 14.1635 128.644 14.3879ZM131.641 9.55175H132.018H132.394V9.80875C132.306 9.70097 132.133 9.72309 132.133 9.72309V10.0934C132.133 10.0934 132.14 10.2759 132.204 10.3547H132.018H131.831C131.896 10.2759 131.902 10.0934 131.902 10.0934V9.72309C131.902 9.72309 131.73 9.70097 131.641 9.80875V9.55175ZM130.821 9.59048C130.847 9.61838 130.873 9.64867 130.898 9.67937L130.901 9.68351C130.906 9.689 130.91 9.69435 130.915 9.70106C130.938 9.73133 130.961 9.76354 130.983 9.79661C130.986 9.80033 130.989 9.80448 130.992 9.80877L130.995 9.8129L130.996 9.81516L130.997 9.8166L130.998 9.8183C131.025 9.85844 131.05 9.90011 131.075 9.94306C131.306 10.3388 131.674 10.5756 132.002 10.5761C132.329 10.5756 132.697 10.3388 132.928 9.94306C132.954 9.89903 132.98 9.8563 133.007 9.81636C133.011 9.81078 133.015 9.80498 133.018 9.79897C133.041 9.76483 133.065 9.73176 133.09 9.69955C133.093 9.69516 133.097 9.69103 133.1 9.68707L133.105 9.68044C133.131 9.64867 133.157 9.61817 133.184 9.5894C133.186 9.58758 133.188 9.5858 133.19 9.58407C133.192 9.5815 133.194 9.57903 133.197 9.57673C133.314 9.45734 133.454 9.36609 133.638 9.31562L133.556 9.26838H133.552L133.227 9.08114L132.894 8.89111L132.004 9.37338L132.002 9.37123L132 9.37338L131.11 8.89111L130.777 9.08114L130.452 9.26838H130.448L130.366 9.31562C130.549 9.36609 130.689 9.45627 130.807 9.57587C130.809 9.5778 130.81 9.57983 130.812 9.58188C130.815 9.58483 130.817 9.5878 130.821 9.59048ZM131.718 8.15935V7.9176L131.28 7.73424C131.28 7.73424 131.284 7.87466 131.481 8.0271C131.588 8.11081 131.654 8.13231 131.668 8.13704C131.67 8.13761 131.671 8.13794 131.671 8.1381L131.718 8.15935ZM131.925 7.54749V9.05314L131.216 8.68146L130.962 7.22282L131.925 7.54749ZM132.286 7.9176L132.724 7.73424C132.724 7.73424 132.72 7.87466 132.522 8.0271C132.416 8.11121 132.349 8.13252 132.335 8.13711C132.334 8.13763 132.333 8.13794 132.332 8.1381L132.286 8.15935V7.9176ZM132.788 8.68146L133.041 7.22282L132.079 7.54749V9.05314L132.788 8.68146ZM130.829 12.5834C130.771 12.5834 130.657 12.5765 130.563 12.5426C130.46 12.5046 130.306 12.3159 130.341 12.1081C130.386 12.0808 130.489 12.0228 130.586 12.0228C130.661 12.0228 130.712 12.0576 130.748 12.1325C130.779 12.1976 130.835 12.2407 130.874 12.2654C130.873 12.3262 130.867 12.4204 130.85 12.504C130.847 12.5226 130.842 12.5398 130.837 12.5568C130.835 12.5641 130.833 12.5707 130.831 12.5763L130.83 12.5795C130.83 12.5809 130.829 12.5822 130.829 12.5834ZM132.175 12.2646L132.155 12.2843C132.151 12.2881 132.148 12.2906 132.147 12.2917L132.126 12.3128L131.02 12.2954C131.019 12.4044 131.001 12.4972 130.984 12.5651C130.981 12.5764 130.978 12.5883 130.975 12.6001L132.291 12.8354C132.428 12.7403 132.804 12.4665 132.951 12.3591C132.844 12.2047 132.834 12.0212 132.858 11.8919C132.788 11.8477 132.735 11.7974 132.693 11.7442C132.541 11.9091 132.264 12.1777 132.175 12.2645L132.175 12.2646ZM132.125 10.7867C132.343 10.765 132.588 10.6718 132.843 10.4204H134.506C134.434 10.611 134.374 10.8174 134.374 11.0227L134.374 12.3477C134.096 12.3011 134.063 12.0031 134.062 11.9902L134.057 11.9292L133.997 11.9241C133.876 11.9127 133.796 11.8618 133.728 11.7963C133.592 11.6604 133.592 11.4405 133.592 11.4388C133.592 11.439 133.592 11.4393 133.592 11.4396C133.591 11.44 133.591 11.4407 133.591 11.4414C133.59 11.4431 133.589 11.4456 133.587 11.4488C133.562 11.4941 133.46 11.6807 133.614 11.8824C133.686 11.9773 133.791 12.0357 133.927 12.0589C133.959 12.2241 134.082 12.4577 134.374 12.4931V13.142H133.553C133.175 12.932 133.335 12.5631 133.342 12.5474L133.375 12.4776L133.302 12.4502C132.892 12.299 133.005 11.8921 133.01 11.8743L133.027 11.8152L132.971 11.789C132.633 11.6327 132.679 11.2123 132.683 11.1947C132.579 11.2786 132.542 11.45 132.613 11.6179C132.577 11.6598 132.528 11.7099 132.474 11.7651L132.474 11.7652L132.465 11.7742C132.115 11.6851 132.104 11.3645 132.104 11.3501L132.103 11.3007L132.057 11.2829C131.92 11.2325 131.826 11.1569 131.78 11.0553C131.728 10.943 131.746 10.8249 131.76 10.7682C131.801 10.7772 131.84 10.7833 131.879 10.7867C131.918 10.7908 131.958 10.7931 131.999 10.7931H132.002H132.005C132.045 10.7931 132.085 10.7908 132.125 10.7867ZM130.633 11.0276L130.611 11.8712L130.707 11.8858L130.943 11.0763L130.823 10.8273L130.633 11.0276ZM131.098 14.0999C131.096 14.1274 131.116 14.1505 131.143 14.1512C131.17 14.1536 131.193 14.1331 131.195 14.1063C131.196 14.0805 131.177 14.0565 131.149 14.0555C131.122 14.053 131.1 14.0739 131.098 14.0999ZM133.254 14.901C133.247 14.8989 133.238 14.8982 133.231 14.8982C133.184 14.8982 133.163 14.9399 133.163 14.9399C133.195 15.0247 133.203 15.0857 133.21 15.1408C133.218 15.2023 133.225 15.2568 133.263 15.3297C133.309 15.4165 133.384 15.4899 133.43 15.5347C133.439 15.543 133.446 15.5503 133.452 15.5566C133.452 15.5566 133.442 15.6341 133.43 15.6923L133.328 16.2234C133.262 16.2323 133.194 16.237 133.123 16.2403L133.23 15.7295C133.246 15.6557 133.157 15.6065 133.038 15.541C132.913 15.4722 132.755 15.3853 132.651 15.2323C132.552 15.3429 132.366 15.376 132.179 15.376C132.009 15.376 131.839 15.3487 131.735 15.3283C131.709 15.3245 131.684 15.3213 131.659 15.3213C131.599 15.3213 131.545 15.3397 131.507 15.4026L131.477 15.4526L130.92 15.3217L130.781 15.5508C130.761 15.5877 130.76 15.6188 130.792 15.6535L130.829 15.6944C130.803 15.7751 130.687 15.8976 130.687 15.8976L130.604 15.7945C130.539 15.7215 130.549 15.5877 130.617 15.4641L130.839 15.0926L131.311 15.1602L131.238 14.9938C131.169 14.84 131.222 14.657 131.265 14.5058L131.265 14.5057C131.284 14.4402 131.301 14.3807 131.306 14.332C131.3 14.3807 131.255 14.3919 131.203 14.3919C131.178 14.3919 131.15 14.3893 131.125 14.3868C131.103 14.3846 131.083 14.3827 131.067 14.3827C131.053 14.3827 131.041 14.3842 131.035 14.3887L130.907 14.4662L130.806 14.3776C130.793 14.3606 130.79 14.3202 130.819 14.2903L131.053 14.0295L130.777 13.7084L131.163 13.9017L131.282 13.7594C131.314 13.7907 131.3 13.8736 131.3 13.8736C131.42 13.8766 131.759 14.0625 131.777 14.4976C131.778 14.5108 131.778 14.5257 131.778 14.5403C131.778 14.5403 131.781 14.5455 131.787 14.5545C131.811 14.5872 131.877 14.6708 131.96 14.6788L132.495 14.7314H132.497C132.519 14.7314 132.551 14.7213 132.589 14.7087C132.65 14.6888 132.73 14.6629 132.822 14.6629C132.903 14.6629 132.994 14.6836 133.091 14.7443C133.091 14.7443 133.14 14.7061 133.218 14.7018C133.224 14.7014 133.231 14.7014 133.237 14.7014C133.438 14.7014 133.541 14.8536 133.645 15.0082C133.664 15.0376 133.684 15.067 133.705 15.0956C133.801 15.2323 133.931 15.4348 133.931 15.4348C133.883 15.4909 133.839 15.5224 133.764 15.5224C133.744 15.5224 133.721 15.5209 133.695 15.5156C133.547 15.4886 133.472 15.3032 133.407 15.1425C133.359 15.0239 133.317 14.9187 133.254 14.901ZM130.382 15.3813C130.382 15.3813 130.567 15.3055 130.583 15.2518L130.558 15.1901C130.541 15.1502 130.544 15.1068 130.577 15.0831L130.777 14.946L131.11 15.0098C131.11 15.0098 131.05 14.9346 131.056 14.8341L130.737 14.7671L130.437 14.9488C130.309 15.0447 130.299 15.2013 130.342 15.2942L130.382 15.3813ZM132.939 16.2434C132.866 16.2434 132.8 16.2442 132.74 16.2468L132.897 15.7614C132.914 15.7163 132.863 15.6623 132.812 15.6086C132.788 15.5827 132.763 15.5569 132.747 15.5323C132.824 15.5804 133.024 15.686 133.12 15.7283C133.11 15.744 132.939 16.2434 132.939 16.2434Z" fill="white"/>
<path fill-rule="evenodd" clip-rule="evenodd" d="M133.321 13.1435H129.631V11.0242C129.631 10.8189 129.57 10.6125 129.499 10.4219H131.162C131.32 10.5782 131.475 10.6757 131.622 10.7291C131.603 10.8045 131.578 10.9602 131.649 11.1157C131.707 11.2408 131.811 11.3373 131.964 11.4017C131.98 11.5563 132.079 11.789 132.35 11.8919C132.231 12.0115 132.115 12.1242 132.068 12.1695L130.965 12.1521C130.94 12.1397 130.897 12.1115 130.878 12.072C130.877 12.069 130.875 12.0668 130.874 12.0645C130.872 12.0625 130.871 12.0604 130.87 12.0579L131.05 12.0869C131.054 12.0873 131.058 12.0873 131.062 12.0873C131.096 12.0873 131.127 12.0635 131.132 12.028C131.138 11.9881 131.112 11.9516 131.073 11.9458L130.851 11.911L131.097 11.0658L130.864 10.5782L130.491 10.9707L130.468 11.8494L130.217 11.8099C130.179 11.8023 130.142 11.8303 130.135 11.8693C130.129 11.908 130.155 11.9447 130.195 11.9516L130.3 11.9675C130.262 11.9887 130.238 12.0057 130.235 12.0081L130.213 12.0229L130.207 12.0491C130.146 12.2956 130.284 12.5296 130.433 12.6342L130.428 12.6653C130.422 12.7031 130.431 12.7401 130.454 12.7712C130.475 12.8028 130.508 12.8216 130.546 12.8283C130.553 12.8299 130.562 12.8305 130.569 12.8305C130.633 12.8305 130.69 12.786 130.706 12.7207C130.761 12.7276 130.812 12.7287 130.847 12.7287H130.876L132.324 12.9893L132.349 12.973C132.464 12.8929 132.904 12.5741 133.048 12.468C133.088 12.5021 133.132 12.5326 133.186 12.5582C133.139 12.7141 133.136 12.954 133.321 13.1435ZM129.631 13.2865H134.374L134.375 15.0623C134.375 15.6509 134.028 16.0619 133.481 16.1959L133.573 15.7207L133.574 15.714C133.578 15.6874 133.584 15.6577 133.587 15.6326C133.613 15.6433 133.641 15.6524 133.67 15.6577C133.704 15.6642 133.736 15.6674 133.765 15.6674C133.905 15.6674 133.986 15.5942 134.04 15.5316L134.111 15.4501L134.053 15.3608C134.048 15.352 133.921 15.1519 133.823 15.0148C133.804 14.988 133.785 14.9609 133.767 14.9322C133.656 14.7664 133.516 14.559 133.237 14.559L133.212 14.5594C133.166 14.5624 133.127 14.5712 133.095 14.5834C133.007 14.5429 132.916 14.5214 132.822 14.5214C132.707 14.5214 132.61 14.553 132.545 14.5751C132.539 14.5767 132.534 14.5785 132.528 14.5801C132.516 14.5837 132.506 14.5871 132.497 14.5886L131.975 14.5375C131.968 14.5365 131.947 14.524 131.921 14.4933V14.4907L132.034 14.4456C132.002 14.0713 131.641 13.8411 131.44 13.7632C131.431 13.7256 131.413 13.6883 131.381 13.6577L131.269 13.552L131.17 13.6693L131.122 13.7295L130.391 13.4306L130.866 14.0248L130.679 14.3075C130.61 14.3804 130.686 14.4529 130.686 14.4529L130.88 14.5861L131.081 14.5113C131.086 14.5113 131.09 14.5121 131.095 14.5128C131.097 14.5131 131.099 14.5134 131.101 14.5136C131.095 14.5306 131.089 14.5754 131.083 14.6175C131.078 14.6505 131.074 14.6817 131.07 14.6964L130.721 14.6282L130.355 14.8341C130.166 14.9719 130.141 15.1995 130.211 15.3554L130.251 15.4439L130.309 15.5688L130.437 15.5161C130.439 15.5159 130.441 15.5149 130.442 15.5141C130.396 15.6605 130.414 15.7999 130.496 15.8911L130.575 15.9884L130.678 16.1185L130.792 15.9972C130.825 15.9642 130.934 15.843 130.967 15.7397L130.992 15.6605L130.936 15.5995L130.927 15.5888L130.99 15.4862L131.445 15.5929L131.547 15.6165L131.602 15.527L131.631 15.4783C131.637 15.4677 131.638 15.4662 131.659 15.4662C131.675 15.4662 131.692 15.4677 131.709 15.4717C131.881 15.504 132.039 15.5201 132.18 15.5201C132.316 15.5201 132.398 15.5149 132.495 15.4829C132.495 15.4829 132.739 15.7593 132.748 15.7694L132.598 16.2295L132.591 16.257C132.308 16.28 132.17 16.3419 132.003 16.5076C131.761 16.2686 131.589 16.2433 130.938 16.2433C130.159 16.2433 129.631 15.7885 129.631 15.0623V13.2865Z" fill="#FFDD2D"/>
<path fill-rule="evenodd" clip-rule="evenodd" d="M130.985 5.85539L130.861 5.84228L130.743 5.82811C130.797 5.95007 130.837 6.06581 130.866 6.16158C131.181 5.98787 131.588 5.88888 132.002 5.88888C132.418 5.88888 132.825 5.98787 133.139 6.16158C133.167 6.06581 133.207 5.95007 133.262 5.82811L133.143 5.84228L133.018 5.85539L132.966 5.74265L132.807 5.4094L132.518 5.55906L132.406 5.61618L132.316 5.52771L132.002 5.2185L131.688 5.52771L131.599 5.61618L131.486 5.55906L131.196 5.4094L131.039 5.74265L130.985 5.85539ZM133.249 6.4414C133.003 6.246 132.558 6.06241 132.002 6.06241C131.446 6.06241 131.003 6.246 130.755 6.4414C130.755 6.4414 130.682 6.00379 130.433 5.61792L130.881 5.6686L131.115 5.17301L131.566 5.40406L132.002 4.97461L132.439 5.40406L132.889 5.17301L133.123 5.6686L133.571 5.61792C133.322 6.00379 133.249 6.4414 133.249 6.4414ZM131.149 14.0551C131.122 14.0526 131.1 14.0736 131.098 14.0997C131.096 14.127 131.116 14.1503 131.143 14.1509C131.17 14.153 131.193 14.1329 131.195 14.1061C131.197 14.0803 131.177 14.0562 131.149 14.0551ZM133.348 17.7786L133.132 17.1853C133.389 17.1074 133.833 16.9395 134.031 16.8276L133.899 17.2594L134.348 17.4077C134.076 17.5434 133.747 17.6699 133.348 17.7786ZM132.003 18.3118C131.481 18.3118 130.885 18.1924 130.709 18.1302L130.976 17.4118C131.197 17.4763 131.658 17.5444 131.992 17.5423H131.992H132.003H132.012H132.013C132.347 17.5444 132.807 17.4763 133.029 17.4118L133.295 18.1302C133.12 18.1924 132.524 18.3118 132.003 18.3118ZM129.657 17.4077L130.106 17.2593L129.973 16.8276C130.171 16.9394 130.615 17.1073 130.872 17.1853L130.656 17.7785C130.258 17.6698 129.928 17.5434 129.657 17.4077ZM134.368 17.2759L134.095 17.1718L134.17 16.8906L134.253 16.5844C134.253 16.5844 133.769 16.8458 133.087 17.0422C132.893 17.0973 132.746 17.1225 132.746 17.1225V17.3311C132.746 17.3311 132.381 17.3943 132.013 17.3943H132.008H132.003H131.996H131.992C131.622 17.3943 131.258 17.3311 131.258 17.3311V17.1225C131.258 17.1225 131.111 17.0973 130.918 17.0422C130.236 16.8458 129.752 16.5844 129.752 16.5844L129.834 16.8906L129.911 17.1718L129.637 17.2759L129.333 17.3891C129.366 17.4052 129.4 17.4219 129.436 17.4392C129.773 17.6022 130.206 17.8118 130.606 17.9206L130.502 18.2041C130.502 18.2041 131.062 18.4583 131.996 18.4606V18.461H131.998H132.003H132.006H132.008V18.4606C132.943 18.4583 133.503 18.2041 133.503 18.2041L133.399 17.9206C133.801 17.8109 134.239 17.5987 134.576 17.4351C134.609 17.4193 134.641 17.4039 134.671 17.3891L134.368 17.2759ZM139.052 13.4231C139.052 13.4231 138.858 13.7585 138.414 13.7585H138.408C137.875 13.7553 137.66 13.4315 137.66 13.4315C137.66 13.4315 137.691 13.8528 137.499 14.4211C137.267 15.1068 137.501 15.5962 137.501 15.5962C137.501 15.5962 137.376 15.6296 137.233 15.6296C137.178 15.6296 137.121 15.6243 137.066 15.6105C136.621 15.5049 136.51 15.1012 136.51 15.1012C136.51 15.1012 136.551 16.4647 134.953 16.4647H134.941C134.941 16.4647 135.082 16.2741 135.123 15.7261C135.199 14.7145 135.887 14.5753 135.887 14.5753C135.887 14.5753 135.52 14.5293 135.361 14.3874C135.112 14.163 135.129 13.9034 135.129 13.9034C135.692 13.8957 136.06 13.7052 136.34 13.3825C136.644 13.0327 136.694 12.6559 136.694 12.6559C136.694 12.6559 136.392 12.9284 135.808 12.9284C135.756 12.9284 135.701 12.9261 135.645 12.9205C135.369 12.8983 135.177 12.7233 135.177 12.7233C135.786 12.3353 136.212 11.6578 135.834 10.6379C135.531 9.82065 134.802 9.20998 134.069 8.75003C133.825 8.59844 133.689 8.42966 133.689 8.28473C133.689 8.07537 133.872 7.9902 134.06 7.90285C134.179 7.84766 134.299 7.79161 134.377 7.70282C134.608 7.43591 134.463 7.00367 134.263 6.74321C134.263 6.74321 134.33 6.72946 134.437 6.72946C134.648 6.72946 135.013 6.78207 135.313 7.09214C135.712 7.50248 135.547 7.94975 135.547 7.94975L135.654 7.97037C135.714 7.98326 135.775 7.9862 135.838 7.98924L135.847 7.98969C135.854 7.98969 135.861 7.9899 135.868 7.99011C135.876 7.99034 135.883 7.99055 135.89 7.99055C136.469 7.99055 136.728 7.38781 136.728 7.38781C136.728 7.38781 137.344 8.1415 136.437 8.73242C136.281 8.83356 136.212 8.9274 136.231 9.02681L136.245 9.09251L136.309 9.1039C136.938 9.27352 137.269 9.69376 137.652 10.1787L137.652 10.1789L137.654 10.1815L137.656 10.1831L137.656 10.1836L137.657 10.1851L137.658 10.1866L137.659 10.1876C137.674 10.2068 137.689 10.226 137.705 10.2454C138.322 11.0255 139.194 11.0506 139.301 11.0506H139.313C139.313 11.0506 139.114 11.6761 138.527 11.6761C138.517 11.6761 138.509 11.6761 138.5 11.6755C138.23 11.6658 138.092 11.5634 138.092 11.5634C138.092 11.5634 137.987 12.9829 139.052 13.4231ZM138.528 11.8677C139.247 11.8677 139.488 11.1393 139.497 11.1082L139.578 10.8514L139.308 10.8597H139.307C139.212 10.8597 138.418 10.8389 137.856 10.1271L137.803 10.0612L137.8 10.0577C137.433 9.59363 137.085 9.15259 136.463 8.95125C136.481 8.93515 136.507 8.91518 136.542 8.8922C136.873 8.67598 137.065 8.41273 137.114 8.10738C137.185 7.64808 136.89 7.28155 136.877 7.26674L136.677 7.02044L136.551 7.31268L136.551 7.31304C136.541 7.3365 136.33 7.79925 135.89 7.79925H135.857C135.849 7.79881 135.841 7.79839 135.834 7.79798C135.812 7.7968 135.79 7.79563 135.769 7.79388C135.785 7.58539 135.747 7.26222 135.452 6.95882C135.098 6.594 134.664 6.53903 134.437 6.53903C134.33 6.53903 134.255 6.55073 134.232 6.55422C134.229 6.55468 134.227 6.55501 134.226 6.55514L133.924 6.61483L134.11 6.85961C134.256 7.04836 134.389 7.39664 134.232 7.57829C134.184 7.63303 134.089 7.678 133.996 7.72242L133.979 7.73033C133.776 7.82351 133.497 7.95385 133.497 8.28475C133.497 8.49861 133.664 8.72279 133.967 8.91324C134.862 9.47368 135.415 10.0588 135.654 10.7045C136.023 11.6978 135.541 12.2645 135.074 12.5629L134.863 12.6971L135.047 12.8651L135.047 12.8652C135.073 12.8877 135.297 13.0839 135.628 13.1122C135.691 13.1161 135.751 13.1197 135.808 13.1197C136.02 13.1197 136.202 13.0865 136.349 13.0415C136.309 13.1122 136.258 13.1846 136.196 13.2569C135.929 13.5651 135.6 13.7053 135.127 13.713L134.951 13.7158L134.937 13.8912C134.936 13.9267 134.922 14.2519 135.232 14.5288C135.279 14.5717 135.336 14.6069 135.397 14.6354C135.186 14.8235 134.973 15.1512 134.932 15.7121C134.897 16.1806 134.785 16.3537 134.784 16.3556L134.589 16.6509L134.94 16.6556C135.521 16.6556 135.965 16.4965 136.273 16.1806C136.455 15.9938 136.559 15.7828 136.62 15.5962C136.721 15.6818 136.851 15.757 137.021 15.7969C137.086 15.8119 137.156 15.8198 137.233 15.8198C137.392 15.8198 137.527 15.7871 137.547 15.7821L137.549 15.7816L137.773 15.7224L137.674 15.5144L137.674 15.5133C137.662 15.4853 137.483 15.0708 137.681 14.4834C137.768 14.2255 137.812 13.9947 137.833 13.815C137.975 13.8881 138.164 13.9486 138.408 13.9494C138.955 13.9494 139.201 13.5488 139.218 13.5204L139.219 13.5193L139.328 13.3299L139.125 13.2468C138.464 12.9735 138.318 12.2396 138.288 11.8425C138.348 11.8539 138.416 11.8644 138.493 11.8666L138.528 11.8677ZM138.157 8.94911C138.009 8.79708 137.853 8.75178 137.719 8.75178C137.511 8.75178 137.355 8.86129 137.355 8.86129C137.657 9.02141 137.83 9.23379 137.975 9.41219C138.098 9.56419 138.201 9.69151 138.348 9.74081C138.402 9.75948 138.457 9.76765 138.511 9.76765C138.746 9.76765 138.973 9.61626 139.052 9.44363C139.052 9.44363 138.621 9.41743 138.157 8.94911ZM137.825 9.53232C137.688 9.36334 137.532 9.17266 137.263 9.03051L136.988 8.883L137.244 8.7037L137.247 8.7016C137.281 8.68037 137.469 8.56069 137.719 8.56069C137.933 8.56069 138.131 8.64808 138.295 8.81407C138.693 9.21883 139.051 9.25146 139.064 9.25189L139.342 9.26822L139.227 9.52202C139.113 9.77518 138.811 9.95791 138.511 9.95791C138.434 9.95791 138.359 9.94631 138.288 9.92205C138.09 9.85695 137.963 9.70137 137.83 9.53846L137.825 9.53232ZM137.389 11.5592V11.5688C137.228 10.2723 136.282 9.33589 135.229 8.76687C135.132 8.7149 135.042 8.6711 134.955 8.62901C135.275 8.6784 135.792 8.6842 136.19 8.34042C136.19 8.34042 135.58 8.78662 134.332 8.38122C134.432 8.44594 134.56 8.51838 134.705 8.60107C135.062 8.80347 135.527 9.0673 135.962 9.42951C137.495 10.77 136.398 12.0775 136.398 12.0775C136.949 11.5053 136.972 10.8927 136.81 10.3919C137.1 10.8727 137.286 11.4557 137.257 12.1748C137.214 13.2052 136.645 14.0962 136.047 14.8121C135.759 15.1596 135.695 15.5866 135.695 15.5866C135.695 15.5866 135.811 15.2097 136.144 14.8222C136.785 14.0745 137.334 13.2983 137.406 12.1791C137.472 12.3822 137.746 12.9465 138.179 13.1591C138.179 13.1591 137.634 12.8325 137.389 11.5592ZM127.494 15.1012C127.494 15.1012 127.453 16.4647 129.051 16.4647H129.062C129.062 16.4647 128.922 16.2741 128.881 15.7261C128.805 14.7143 128.117 14.5753 128.117 14.5753C128.117 14.5753 128.484 14.5294 128.644 14.3874C128.892 14.163 128.875 13.9034 128.875 13.9034C128.313 13.8957 127.945 13.7052 127.662 13.3825C127.36 13.0328 127.31 12.6559 127.31 12.6559C127.31 12.6559 127.612 12.9284 128.196 12.9284C128.248 12.9284 128.303 12.9261 128.359 12.9205C128.636 12.8984 128.828 12.7233 128.828 12.7233C128.218 12.3353 127.792 11.6581 128.17 10.6379C128.473 9.82066 129.201 9.20998 129.935 8.75004C130.179 8.59844 130.315 8.42967 130.315 8.28473C130.315 8.0754 130.132 7.99022 129.944 7.90283C129.825 7.84761 129.705 7.79149 129.627 7.70261C129.396 7.43591 129.541 7.00346 129.74 6.74322C129.74 6.74322 129.674 6.72947 129.567 6.72947C129.356 6.72947 128.991 6.78208 128.691 7.09215C128.291 7.50248 128.457 7.94976 128.457 7.94976L128.351 7.97037C128.291 7.98296 128.231 7.98606 128.171 7.9892L128.157 7.98991C128.149 7.98991 128.142 7.99007 128.135 7.99024C128.129 7.9904 128.122 7.99056 128.115 7.99056C127.534 7.99056 127.276 7.38804 127.276 7.38804C127.276 7.38804 126.661 8.1415 127.567 8.73243C127.723 8.83336 127.792 8.92719 127.774 9.02682L127.76 9.09253L127.694 9.1039C127.066 9.27394 126.733 9.69456 126.35 10.1803C126.333 10.2019 126.316 10.2236 126.298 10.2454C125.682 11.0255 124.811 11.0506 124.702 11.0506H124.69C124.69 11.0506 124.889 11.6761 125.476 11.6761C125.486 11.6761 125.495 11.6761 125.504 11.6755C125.774 11.6658 125.912 11.5634 125.912 11.5634C125.912 11.5634 126.017 12.9829 124.953 13.4231C124.953 13.4231 125.146 13.7583 125.591 13.7583H125.596C126.13 13.7553 126.344 13.4315 126.344 13.4315C126.344 13.4315 126.313 13.8528 126.505 14.4211C126.736 15.1068 126.504 15.5962 126.504 15.5962C126.504 15.5962 126.628 15.6296 126.772 15.6296C126.827 15.6296 126.884 15.6243 126.937 15.6103C127.383 15.5049 127.494 15.1012 127.494 15.1012ZM129.22 16.3545C129.22 16.355 129.221 16.3553 129.221 16.3554L129.415 16.6509L129.064 16.6556C128.484 16.6556 128.04 16.4963 127.731 16.1807C127.55 15.9938 127.445 15.7828 127.384 15.5962C127.284 15.6818 127.153 15.757 126.982 15.7969C126.919 15.8119 126.848 15.8198 126.772 15.8198C126.609 15.8198 126.471 15.7856 126.456 15.7817L126.455 15.7816L126.231 15.7224L126.33 15.5144L126.331 15.5128C126.345 15.4798 126.52 15.0669 126.323 14.4834C126.236 14.2253 126.192 13.9947 126.171 13.815C126.029 13.8881 125.841 13.9486 125.598 13.9492C125.046 13.9492 124.8 13.5431 124.786 13.5198L124.786 13.5193L124.676 13.3297L124.878 13.2468C125.54 12.9735 125.687 12.2396 125.717 11.8425C125.656 11.8539 125.587 11.8644 125.511 11.8666L125.477 11.8677C124.757 11.8677 124.517 11.1393 124.507 11.1082L124.425 10.8514L124.696 10.8597C124.791 10.8597 125.586 10.8389 126.148 10.1271L126.201 10.0612L126.205 10.0564C126.571 9.59283 126.919 9.15241 127.542 8.95126C127.523 8.93516 127.499 8.91519 127.463 8.89221C127.132 8.67598 126.939 8.41273 126.891 8.10739C126.821 7.65677 127.104 7.29544 127.125 7.26796L127.126 7.26674L127.328 7.02045L127.453 7.31268C127.461 7.33116 127.671 7.79925 128.115 7.79925H128.147C128.155 7.79883 128.162 7.79843 128.17 7.79803C128.192 7.79683 128.213 7.79566 128.235 7.79388C128.22 7.58518 128.258 7.26244 128.553 6.95861C128.907 6.594 129.34 6.53903 129.568 6.53903C129.675 6.53903 129.75 6.55082 129.772 6.55426C129.775 6.5547 129.777 6.55501 129.778 6.55514L130.082 6.61483L129.894 6.85962C129.747 7.04815 129.615 7.39664 129.772 7.5783C129.819 7.63245 129.913 7.67685 130.005 7.72097L130.025 7.73033C130.229 7.82351 130.507 7.95386 130.507 8.28475C130.507 8.49862 130.341 8.72279 130.038 8.91325C129.141 9.47368 128.589 10.0588 128.351 10.7045C127.982 11.6978 128.462 12.2643 128.931 12.5629L129.141 12.6971L128.957 12.8651C128.932 12.887 128.708 13.0838 128.375 13.1122C128.313 13.1161 128.253 13.1197 128.196 13.1197C127.983 13.1197 127.802 13.0865 127.655 13.0415C127.696 13.1122 127.746 13.1844 127.808 13.2569C128.076 13.5649 128.405 13.7053 128.877 13.713L129.054 13.7158L129.066 13.8912C129.068 13.9267 129.081 14.2519 128.772 14.5288C128.725 14.5717 128.668 14.6069 128.607 14.6354C128.818 14.8235 129.031 15.1512 129.073 15.7121C129.107 16.1631 129.212 16.3403 129.22 16.3545ZM125.847 8.94887C125.995 8.79706 126.151 8.75154 126.286 8.75154C126.493 8.75154 126.65 8.86105 126.65 8.86105C126.348 9.02107 126.176 9.23302 126.03 9.41121C125.906 9.5637 125.802 9.69147 125.655 9.74078C125.602 9.75946 125.547 9.76762 125.493 9.76762C125.258 9.76762 125.03 9.61624 124.953 9.4436C124.953 9.4436 125.384 9.41741 125.847 8.94887ZM125.493 9.95789C125.57 9.95789 125.645 9.9465 125.716 9.92224C125.915 9.85684 126.042 9.70091 126.175 9.53776L126.179 9.5323L126.183 9.52757C126.32 9.35997 126.474 9.17131 126.74 9.03049L127.016 8.88298L126.76 8.70367L126.756 8.70149C126.723 8.68002 126.535 8.56067 126.285 8.56067C126.072 8.56067 125.873 8.64785 125.709 8.81405C125.311 9.21902 124.954 9.25166 124.941 9.25187L124.663 9.26819L124.777 9.522C124.892 9.77516 125.193 9.95789 125.493 9.95789ZM127.194 10.392C126.904 10.8727 126.718 11.4555 126.748 12.1748C126.79 13.2053 127.359 14.0964 127.956 14.8121C128.245 15.1593 128.31 15.5866 128.31 15.5866C128.31 15.5866 128.193 15.2097 127.86 14.8219C127.219 14.0745 126.67 13.2978 126.598 12.1791C126.531 12.3823 126.258 12.9466 125.826 13.1591C125.826 13.1591 126.37 12.8326 126.614 11.559V11.5691C126.776 10.2724 127.722 9.33594 128.775 8.76691C128.862 8.72037 128.944 8.6802 129.022 8.64194L129.049 8.62863C128.729 8.67845 128.213 8.68425 127.814 8.34047C127.814 8.34047 128.424 8.78667 129.672 8.38127C129.572 8.44589 129.445 8.51823 129.299 8.60079C128.943 8.80323 128.478 9.06716 128.043 9.42956C126.509 10.7701 127.606 12.0778 127.606 12.0778C127.054 11.5053 127.032 10.8925 127.194 10.392ZM131.641 9.55157V9.80857C131.73 9.70079 131.902 9.72289 131.902 9.72289V10.0933C131.902 10.0933 131.897 10.2758 131.831 10.3546H132.018H132.204C132.14 10.2758 132.133 10.0933 132.133 10.0933V9.72289C132.133 9.72289 132.306 9.70079 132.394 9.80857V9.55157H132.018H131.641ZM131.669 8.13707C131.654 8.13245 131.588 8.11097 131.481 8.02664C131.284 7.87442 131.28 7.73421 131.28 7.73421L131.718 7.91736V8.15933L131.671 8.13807C131.671 8.13791 131.67 8.13761 131.669 8.13707ZM132.522 8.02664C132.72 7.87442 132.724 7.73421 132.724 7.73421L132.286 7.91736V8.15933L132.332 8.13807C132.333 8.13791 132.334 8.13761 132.335 8.13707C132.349 8.13245 132.416 8.11098 132.522 8.02664ZM130.947 6.96724L132.002 7.38187L133.057 6.96724C132.968 6.75574 132.554 6.57623 132.002 6.57558C131.45 6.57623 131.037 6.75574 130.947 6.96724ZM132.079 9.05286L132.788 8.68139L133.041 7.22233L132.079 7.54742V9.05286ZM133.552 9.26802L133.227 9.08078L132.894 8.89075L132.004 9.37302L132.002 9.37108L132 9.37302L131.11 8.89075L130.777 9.08078L130.452 9.26802H130.448L130.366 9.31547C130.549 9.36571 130.689 9.4559 130.807 9.57571C130.809 9.5775 130.81 9.57946 130.812 9.58144C130.815 9.58445 130.817 9.58751 130.821 9.5901C130.847 9.61802 130.873 9.6485 130.898 9.679C130.899 9.68032 130.9 9.68162 130.901 9.68291C130.906 9.68856 130.91 9.69409 130.915 9.7009C130.938 9.73097 130.961 9.76339 130.983 9.79624C130.986 9.79988 130.989 9.80401 130.992 9.80826C130.994 9.81153 130.996 9.81487 130.998 9.81815C131.025 9.85808 131.05 9.89996 131.075 9.94289C131.306 10.3386 131.674 10.5753 132.002 10.5757C132.329 10.5753 132.698 10.3386 132.929 9.94289C132.954 9.89888 132.98 9.85594 133.007 9.81621C133.011 9.81063 133.015 9.80461 133.018 9.79882C133.041 9.76467 133.065 9.73139 133.09 9.6994C133.093 9.69585 133.095 9.69241 133.098 9.68909C133.1 9.68599 133.103 9.68298 133.105 9.68007C133.131 9.6485 133.157 9.6178 133.184 9.58903C133.186 9.58707 133.188 9.58507 133.19 9.58313C133.193 9.5808 133.195 9.57856 133.197 9.57658C133.315 9.45698 133.454 9.36571 133.637 9.31547L133.556 9.26802H133.552ZM134.373 11.0223C134.373 10.8171 134.433 10.6107 134.506 10.42H132.843C132.588 10.6715 132.344 10.7649 132.125 10.7863C132.086 10.7904 132.045 10.793 132.005 10.793H132.002H131.999C131.959 10.793 131.918 10.7904 131.879 10.7863C131.841 10.7831 131.801 10.7771 131.76 10.7679C131.746 10.8246 131.728 10.9425 131.78 11.055C131.826 11.1565 131.92 11.2323 132.057 11.2826L132.103 11.3004L132.104 11.3498C132.104 11.3646 132.115 11.685 132.465 11.7739L132.467 11.7717C132.524 11.7139 132.575 11.6614 132.613 11.6178C132.541 11.4496 132.579 11.2783 132.683 11.1943C132.679 11.2121 132.633 11.6324 132.971 11.7885L133.027 11.8151L133.01 11.8744C133.005 11.892 132.892 12.2987 133.302 12.45L133.375 12.4771L133.343 12.5473C133.335 12.5632 133.175 12.9321 133.553 13.1414H134.374V12.4932C134.082 12.4575 133.959 12.2241 133.927 12.0586C133.791 12.0356 133.686 11.977 133.614 11.8821C133.46 11.6802 133.562 11.4937 133.587 11.4484C133.59 11.443 133.592 11.4397 133.592 11.4385C133.592 11.4404 133.592 11.6605 133.728 11.7962C133.796 11.8615 133.876 11.9124 133.997 11.9237L134.057 11.9293L134.062 11.9899C134.063 12.003 134.096 12.3008 134.374 12.3474L134.373 11.0223ZM133.572 15.7188L133.48 16.1939C134.028 16.0599 134.375 15.649 134.375 15.0605L134.374 13.2847H129.63V15.0605C129.63 15.7869 130.158 16.2414 130.938 16.2414C131.589 16.2414 131.76 16.2668 132.003 16.5057C132.169 16.3401 132.307 16.2782 132.591 16.2552L132.598 16.2275L132.747 15.7679C132.739 15.7572 132.494 15.4811 132.494 15.4811C132.397 15.5131 132.316 15.5185 132.179 15.5185C132.039 15.5185 131.88 15.5022 131.709 15.4699C131.691 15.4661 131.675 15.4646 131.659 15.4646C131.638 15.4646 131.637 15.4661 131.631 15.4764L131.601 15.5251L131.547 15.6147L131.444 15.591L130.989 15.4844L130.927 15.587L130.936 15.5979L130.991 15.6587L130.967 15.7377C130.933 15.8412 130.825 15.9623 130.791 15.9953L130.678 16.1171L130.574 15.9866L130.496 15.8893C130.415 15.7981 130.396 15.6587 130.442 15.5121C130.441 15.5131 130.439 15.5137 130.437 15.5142L130.309 15.567L130.251 15.4423L130.21 15.3537C130.14 15.1976 130.166 14.9701 130.354 14.8322L130.721 14.6265L131.07 14.6948C131.073 14.6798 131.078 14.6477 131.083 14.6141C131.089 14.5726 131.095 14.5287 131.1 14.5118C131.098 14.5115 131.096 14.5112 131.094 14.5108C131.089 14.5101 131.085 14.5092 131.08 14.5092L130.879 14.5839L130.686 14.4513C130.686 14.4513 130.61 14.3783 130.678 14.3057L130.866 14.0229L130.391 13.4288L131.121 13.7276L131.17 13.6675L131.269 13.5501L131.381 13.6559C131.412 13.6865 131.431 13.7237 131.439 13.7613C131.64 13.8391 132.002 14.0695 132.034 14.4439L131.921 14.4891V14.4914C131.947 14.5222 131.968 14.5346 131.974 14.5358L132.496 14.587C132.505 14.5853 132.515 14.5822 132.526 14.5788C132.532 14.577 132.538 14.5751 132.545 14.5732C132.609 14.5515 132.706 14.5195 132.822 14.5195C132.916 14.5195 133.007 14.5408 133.094 14.5816C133.126 14.5696 133.166 14.5606 133.212 14.5577L133.237 14.5571C133.516 14.5571 133.655 14.7641 133.766 14.9297L133.767 14.9304C133.785 14.9593 133.803 14.9859 133.823 15.013C133.92 15.1499 134.047 15.3499 134.053 15.3589L134.11 15.4483L134.04 15.5298C133.986 15.5924 133.904 15.6655 133.764 15.6655C133.735 15.6655 133.704 15.6624 133.67 15.6558C133.64 15.6503 133.613 15.6415 133.587 15.6308C133.583 15.6581 133.577 15.6907 133.572 15.7188ZM130.583 15.2513L130.559 15.1898C130.541 15.1499 130.543 15.1066 130.577 15.083L130.777 14.9459L131.11 15.0095C131.11 15.0095 131.05 14.9344 131.056 14.8339L130.737 14.7669L130.437 14.9486C130.309 15.0446 130.299 15.201 130.342 15.2941L130.382 15.381C130.382 15.381 130.567 15.3052 130.583 15.2513ZM133.328 16.2232L133.43 15.6919C133.442 15.6339 133.453 15.5563 133.453 15.5563C133.447 15.5505 133.44 15.5438 133.432 15.5364C133.386 15.4916 133.31 15.4172 133.263 15.3297C133.225 15.2568 133.218 15.2022 133.21 15.1405C133.203 15.0852 133.195 15.0244 133.163 14.9395C133.163 14.9395 133.184 14.8979 133.231 14.8979C133.239 14.8979 133.247 14.8988 133.255 14.9009C133.317 14.9185 133.359 15.0235 133.407 15.1421C133.472 15.3027 133.547 15.4883 133.695 15.5154C133.721 15.5204 133.744 15.5222 133.764 15.5222C133.839 15.5222 133.883 15.4908 133.931 15.4345C133.931 15.4345 133.801 15.2323 133.705 15.0956C133.684 15.0672 133.665 15.0379 133.645 15.0087C133.541 14.8536 133.438 14.701 133.237 14.701C133.231 14.701 133.224 14.701 133.219 14.7018C133.14 14.7055 133.091 14.7439 133.091 14.7439C132.994 14.6834 132.903 14.6628 132.822 14.6628C132.73 14.6628 132.65 14.6887 132.589 14.7087C132.551 14.7211 132.519 14.7313 132.497 14.7313H132.495L131.961 14.6785C131.877 14.6707 131.811 14.587 131.787 14.5539C131.781 14.5451 131.778 14.5397 131.778 14.5397C131.778 14.5255 131.778 14.5106 131.777 14.4974C131.759 14.0624 131.42 13.8763 131.3 13.8732C131.3 13.8732 131.314 13.7908 131.281 13.759L131.163 13.9013L130.777 13.7082L131.053 14.0291L130.819 14.2903C130.79 14.3201 130.793 14.3601 130.806 14.377L130.907 14.4658L131.035 14.3888C131.041 14.3838 131.053 14.3826 131.067 14.3826C131.083 14.3826 131.103 14.3845 131.125 14.3866C131.15 14.389 131.178 14.3916 131.203 14.3916C131.255 14.3916 131.3 14.3806 131.306 14.3318C131.301 14.3806 131.284 14.4401 131.265 14.5055C131.222 14.6568 131.169 14.8396 131.238 14.9934L131.312 15.1601L130.839 15.0921L130.618 15.4639C130.549 15.5876 130.539 15.7214 130.604 15.7944L130.687 15.8974C130.687 15.8974 130.803 15.7751 130.829 15.6944L130.791 15.6533C130.76 15.6185 130.761 15.5876 130.781 15.5505L130.919 15.3217L131.477 15.4524L131.507 15.4025C131.545 15.3398 131.599 15.3211 131.659 15.3211C131.684 15.3211 131.709 15.3239 131.735 15.3283C131.839 15.3486 132.009 15.3756 132.179 15.3756C132.366 15.3756 132.552 15.3424 132.651 15.2323C132.755 15.3849 132.912 15.4718 133.038 15.5407C133.157 15.6063 133.246 15.6554 133.23 15.7293L133.123 16.2397C133.194 16.2369 133.263 16.2322 133.328 16.2232ZM132.741 16.2465C132.8 16.2442 132.867 16.2433 132.938 16.2433C132.938 16.2433 133.11 15.7437 133.12 15.7278C133.024 15.6857 132.824 15.5803 132.747 15.5319C132.763 15.5568 132.788 15.5828 132.812 15.6088C132.863 15.6624 132.914 15.7162 132.897 15.7613L132.741 16.2465ZM130.633 11.0275L130.611 11.8708L130.707 11.8856L130.943 11.076L130.823 10.8271L130.633 11.0275ZM130.874 12.2651C130.835 12.2404 130.779 12.1973 130.747 12.1322C130.712 12.0573 130.661 12.0225 130.586 12.0225C130.489 12.0225 130.386 12.0805 130.341 12.1078C130.306 12.3158 130.46 12.5043 130.563 12.5423C130.657 12.5762 130.77 12.5833 130.829 12.5833C130.83 12.5808 130.83 12.578 130.831 12.575C130.833 12.5696 130.835 12.5635 130.837 12.5567C130.842 12.5397 130.847 12.5223 130.851 12.5039C130.867 12.4201 130.873 12.3259 130.874 12.2651ZM132.291 12.835C132.428 12.7399 132.804 12.4661 132.951 12.359C132.844 12.2044 132.834 12.0208 132.858 11.892C132.788 11.8475 132.735 11.7971 132.693 11.7438C132.531 11.9191 132.23 12.2112 132.161 12.2779C132.153 12.285 132.149 12.2895 132.147 12.2911L132.126 12.3126L131.02 12.295C131.019 12.4043 131.001 12.4968 130.984 12.5649C130.982 12.5717 130.981 12.5786 130.979 12.5856C130.978 12.5904 130.976 12.5951 130.975 12.5999L132.291 12.835ZM131.621 10.7271C131.475 10.6738 131.32 10.5763 131.161 10.42H129.498C129.57 10.6107 129.63 10.8171 129.63 11.0223V13.1414H133.32C133.136 12.9521 133.139 12.7123 133.185 12.5568C133.132 12.531 133.087 12.5003 133.048 12.4664C132.903 12.5722 132.464 12.8909 132.348 12.9712L132.324 12.9873L130.876 12.7272H130.846C130.812 12.7272 130.761 12.7257 130.705 12.7191C130.69 12.7842 130.633 12.8284 130.569 12.8284C130.561 12.8284 130.553 12.8279 130.546 12.8265C130.508 12.8201 130.475 12.8009 130.453 12.7693C130.43 12.7384 130.421 12.7015 130.428 12.6637L130.433 12.6323C130.284 12.5278 130.146 12.2939 130.207 12.0472L130.213 12.021L130.234 12.0062C130.237 12.0038 130.262 11.9869 130.299 11.9658L130.194 11.9497C130.155 11.9429 130.128 11.9061 130.134 11.8677C130.141 11.8286 130.178 11.8003 130.217 11.8078L130.468 11.8475L130.491 10.9691L130.864 10.5763L131.097 11.064L130.851 11.9089L131.072 11.9437C131.111 11.9499 131.138 11.9862 131.132 12.0262C131.126 12.0616 131.096 12.0854 131.061 12.0854C131.057 12.0854 131.053 12.0854 131.05 12.085L130.87 12.0562C130.871 12.0587 130.872 12.0607 130.873 12.0627C130.875 12.065 130.876 12.0672 130.878 12.0702C130.897 12.1099 130.939 12.1378 130.964 12.1503L132.068 12.1677L132.072 12.1633C132.122 12.1152 132.234 12.0057 132.35 11.8898C132.078 11.7874 131.979 11.5546 131.963 11.3998C131.811 11.3354 131.706 11.239 131.648 11.1138C131.577 10.9585 131.602 10.8029 131.621 10.7271ZM131.925 7.54742L130.962 7.22233L131.216 8.68139L131.925 9.05286V7.54742ZM132.004 6.34282C132.69 6.34282 133.311 6.67328 133.311 7.04067L133.298 7.13107L133.024 8.69556L133.298 8.85446L134.011 9.26802H134.008C134.008 9.26802 134.168 9.34983 134.241 9.40029C134.514 9.58731 134.571 9.86087 134.413 9.97382C134.374 9.75094 134.197 9.51818 133.866 9.51818C133.627 9.51818 133.446 9.64014 133.298 9.82459C133.261 9.87097 133.225 9.92057 133.191 9.97382C133.15 10.0412 133.109 10.1003 133.068 10.157H134.901C134.766 10.4267 134.638 10.7121 134.638 11.0223V15.0605C134.638 16.0381 133.884 16.5043 133.067 16.5043C133.019 16.5043 132.974 16.5041 132.933 16.5039C132.42 16.5021 132.323 16.5017 132.003 16.8212C131.681 16.5017 131.584 16.5021 131.071 16.5039C131.03 16.5041 130.985 16.5043 130.938 16.5043C130.121 16.5043 129.366 16.0381 129.366 15.0605V11.0223C129.366 10.7121 129.238 10.4267 129.103 10.157H130.936C130.895 10.1003 130.854 10.0412 130.812 9.97382C130.779 9.92057 130.743 9.87097 130.705 9.82459C130.559 9.64078 130.377 9.51818 130.138 9.51818C129.806 9.51818 129.629 9.75094 129.591 9.97382C129.433 9.86087 129.491 9.58731 129.762 9.40029C129.836 9.34983 129.996 9.26802 129.996 9.26802H129.994L130.705 8.85446L130.98 8.69556L130.706 7.13107L130.693 7.04067C130.693 6.67328 131.314 6.34282 132 6.34282H132.002H132.003H132.004Z" fill="#231F20"/>
</g>
<path d="M162 24C168.627 24 174 18.6274 174 12C174 5.37258 168.627 0 162 0C155.373 0 150 5.37258 150 12C150 18.6274 155.373 24 162 24Z" fill="#FFEFEC"/>
<path d="M166 18.5372H163.635V6.82975H162.579C160.645 6.82975 159.633 7.79669 159.633 9.23967C159.633 10.876 160.332 11.6347 161.775 12.6017L162.965 13.405L159.544 18.5372H157L160.079 13.9554C158.309 12.6909 157.312 11.4562 157.312 9.37355C157.312 6.77025 159.127 5 162.564 5H165.985V18.5372H166Z" fill="#FC3F1D"/>
<path d="M192 24C198.627 24 204 18.6274 204 12C204 5.37258 198.627 0 192 0C185.373 0 180 5.37258 180 12C180 18.6274 185.373 24 192 24Z" fill="#FAFAFA"/>
<g clip-path="url(#clip2_6225_554)">
<path d="M187 7.93359L188.631 10.8492V12.6276L187.002 15.5374L187 7.93359Z" fill="#5B57A2"/>
<path d="M193.263 9.78737L194.791 8.85057L197.919 8.84766L193.263 11.7002V9.78737Z" fill="#D90751"/>
<path d="M193.254 7.91466L193.263 11.7748L191.628 10.7702V5L193.254 7.91466Z" fill="#FAB718"/>
<path d="M197.919 8.84674L194.791 8.84966L193.254 7.91466L191.628 5L197.919 8.84674Z" fill="#ED6F26"/>
<path d="M193.263 15.5517V13.6789L191.628 12.6934L191.629 18.4693L193.263 15.5517Z" fill="#63B22F"/>
<path d="M194.788 14.6253L188.631 10.8492L187 7.93359L197.913 14.6215L194.788 14.6253Z" fill="#1487C9"/>
<path d="M191.629 18.4688L193.263 15.5512L194.787 14.623L197.913 14.6191L191.629 18.4688Z" fill="#017F36"/>
<path d="M187.002 15.5334L191.641 12.6914L190.082 11.7344L188.631 12.6236L187.002 15.5334Z" fill="#984995"/>
</g>
</g>
<defs>
<linearGradient id="paint0_linear_6225_554" x1="111" y1="16.0267" x2="105.78" y2="16.0267" gradientUnits="userSpaceOnUse">
<stop stop-color="#1E5CD8"/>
<stop offset="1" stop-color="#02AFFF"/>
</linearGradient>
<clipPath id="clip0_6225_554">
<rect width="204" height="24" fill="white"/>
</clipPath>
<clipPath id="clip1_6225_554">
<rect width="16" height="14.3158" fill="white" transform="translate(124 4.5)"/>
</clipPath>
<clipPath id="clip2_6225_554">
<rect width="11" height="13.4694" fill="white" transform="translate(187 5)"/>
</clipPath>
</defs>
</svg>
