<svg width="332" height="116" viewBox="0 0 332 116" fill="none" xmlns="http://www.w3.org/2000/svg">
<g opacity="0.1">
<path d="M218.428 11.5615C266.355 -2.02973 306.689 1.05145 333.099 15.617C346.307 22.902 355.763 32.9788 360.613 45.3898C365.464 57.8016 365.739 72.624 360.449 89.4513C349.944 122.868 317.984 159.857 277.007 192.476C236.468 224.746 188.027 251.392 141.171 263.918C94.5099 276.391 55.3958 273.257 29.9915 258.669C17.435 251.459 8.74937 241.483 4.45006 229.288C0.148701 217.087 0.213555 202.594 5.28816 186.315C15.3775 153.949 45.182 118.361 84.1902 86.3635C123.979 53.7258 171.39 24.9005 218.428 11.5615Z" stroke="#640DC6" stroke-width="1.5"/>
<path d="M218.428 11.5615C266.355 -2.02973 306.689 1.05145 333.099 15.617C346.307 22.902 355.763 32.9788 360.613 45.3898C365.464 57.8016 365.739 72.624 360.449 89.4513C349.944 122.868 317.984 159.857 277.007 192.476C236.468 224.746 188.027 251.392 141.171 263.918C94.5099 276.391 55.3958 273.257 29.9915 258.669C17.435 251.459 8.74937 241.483 4.45006 229.288C0.148701 217.087 0.213555 202.594 5.28816 186.315C15.3775 153.949 45.182 118.361 84.1902 86.3635C123.979 53.7258 171.39 24.9005 218.428 11.5615Z" stroke="url(#paint0_radial_4938_17590)" stroke-width="1.5"/>
<path d="M228.783 17.5095C274.051 4.69132 312.149 7.63274 337.098 21.4157C349.576 28.309 358.509 37.8369 363.096 49.5655C367.684 61.2949 367.954 75.301 362.969 91.2017C353.07 122.781 322.905 157.729 284.213 188.543C245.935 219.027 200.189 244.188 155.933 255.999C111.861 267.761 74.9152 264.77 50.9158 250.967C39.0546 244.146 30.8485 234.715 26.7819 223.19C22.7133 211.66 22.7642 197.965 27.5461 182.582C37.0539 151.997 65.1831 118.372 102.016 88.1436C139.586 57.3109 184.357 30.0894 228.783 17.5095Z" stroke="#640DC6" stroke-width="1.5"/>
<path d="M228.783 17.5095C274.051 4.69132 312.149 7.63274 337.098 21.4157C349.576 28.309 358.509 37.8369 363.096 49.5655C367.684 61.2949 367.954 75.301 362.969 91.2017C353.07 122.781 322.905 157.729 284.213 188.543C245.935 219.027 200.189 244.188 155.933 255.999C111.861 267.761 74.9152 264.77 50.9158 250.967C39.0546 244.146 30.8485 234.715 26.7819 223.19C22.7133 211.66 22.7642 197.965 27.5461 182.582C37.0539 151.997 65.1831 118.372 102.016 88.1436C139.586 57.3109 184.357 30.0894 228.783 17.5095Z" stroke="url(#paint1_radial_4938_17590)" stroke-width="1.5"/>
</g>
<defs>
<radialGradient id="paint0_radial_4938_17590" cx="0" cy="0" r="1" gradientUnits="userSpaceOnUse" gradientTransform="translate(-42.4141 152.491) rotate(-3.83106) scale(450.682 1428.11)">
<stop stop-color="#976EFC"/>
<stop offset="1" stop-color="#6A38F6" stop-opacity="0"/>
</radialGradient>
<radialGradient id="paint1_radial_4938_17590" cx="0" cy="0" r="1" gradientUnits="userSpaceOnUse" gradientTransform="translate(-17.5859 150.558) rotate(-3.79472) scale(425.779 1350.49)">
<stop stop-color="#976EFC"/>
<stop offset="1" stop-color="#6A38F6" stop-opacity="0"/>
</radialGradient>
</defs>
</svg>
