<svg width="20" height="20" viewBox="0 0 20 20" fill="none" xmlns="http://www.w3.org/2000/svg">
<path d="M1.70001 10.0001C1.70001 5.39758 5.43001 1.66675 10.0333 1.66675C14.635 1.66675 18.3667 5.39758 18.3667 10.0001C18.3667 14.6026 14.635 18.3334 10.0333 18.3334C5.43001 18.3334 1.70001 14.6026 1.70001 10.0001Z" fill="#FC3F1D"/>
<path d="M11.1 6.38838H10.33C8.91834 6.38838 8.17584 7.10338 8.17584 8.15755C8.17584 9.34922 8.68917 9.90755 9.74334 10.6234L10.6142 11.21L8.11167 14.9492H6.24167L8.4875 11.6042C7.19584 10.6784 6.47084 9.77922 6.47084 8.25838C6.47084 6.35172 7.8 5.05005 10.3208 5.05005H12.8233V14.94H11.1V6.38838Z" fill="white"/>
</svg>
