<svg width="248" height="46" viewBox="0 0 248 46" fill="none" xmlns="http://www.w3.org/2000/svg">
<g opacity="0.2">
<path d="M85.1085 37.4362C49.405 47.2706 19.3935 45.0304 -0.231534 34.5171C-10.0436 29.2607 -17.0531 21.9984 -20.6475 13.065C-24.2423 4.13048 -24.4527 -6.55405 -20.5198 -18.7063C-12.7063 -42.8495 11.0837 -69.6061 41.6245 -93.22C71.8322 -116.576 107.923 -135.858 142.825 -144.921C177.587 -153.946 206.688 -151.667 225.562 -141.14C234.885 -135.94 241.322 -128.754 244.508 -119.976C247.696 -111.193 247.653 -100.744 243.88 -88.9862C236.375 -65.6028 214.191 -39.8602 185.118 -16.6966C155.467 6.9281 120.143 27.786 85.1085 37.4362Z" stroke="white" stroke-width="1.5"/>
<path d="M75.3231 34.3016C41.2638 43.7676 12.6858 41.7593 -5.95808 31.8733C-15.2786 26.9311 -21.9184 20.0793 -25.3012 11.6342C-28.6844 3.1876 -28.8418 -6.93368 -25.0453 -18.4676C-17.5021 -41.3845 5.27285 -66.8477 34.4727 -89.3609C63.3526 -111.628 97.8205 -130.053 131.112 -138.784C164.27 -147.479 191.98 -145.43 209.909 -135.529C218.763 -130.638 224.858 -123.857 227.852 -115.558C230.849 -107.253 230.767 -97.3535 227.123 -86.1937C219.878 -63.9984 198.636 -39.5031 170.838 -17.4228C142.486 5.09647 108.743 25.0134 75.3231 34.3016Z" stroke="white" stroke-width="1.5"/>
</g>
</svg>
