<svg width="247" height="46" viewBox="0 0 247 46" fill="none" xmlns="http://www.w3.org/2000/svg">
<g opacity="0.2">
<path d="M162.891 8.56383C198.595 -1.27063 228.606 0.969554 248.232 11.4829C258.044 16.7393 265.053 24.0016 268.647 32.935C272.242 41.8695 272.453 52.554 268.52 64.7063C260.706 88.8495 236.916 115.606 206.376 139.22C176.168 162.576 140.077 181.858 105.175 190.921C70.4134 199.946 41.3125 197.667 22.4379 187.14C13.1148 181.94 6.67784 174.754 3.49221 165.976C0.304265 157.193 0.346538 146.744 4.12005 134.986C11.6246 111.603 33.8091 85.8602 62.8819 62.6966C92.5335 39.0719 127.857 18.214 162.891 8.56383Z" stroke="white" stroke-width="1.5"/>
<path d="M172.677 11.6984C206.736 2.23237 235.314 4.24074 253.958 14.1267C263.279 19.0689 269.918 25.9207 273.301 34.3658C276.684 42.8124 276.842 52.9337 273.045 64.4676C265.502 87.3845 242.727 112.848 213.527 135.361C184.647 157.628 150.179 176.053 116.888 184.784C83.7297 193.479 56.0199 191.43 38.0914 181.529C29.2372 176.638 23.1424 169.857 20.148 161.558C17.1512 153.253 17.2335 143.354 20.8766 132.194C28.1224 109.998 49.3635 85.5031 77.1625 63.4228C105.514 40.9035 139.257 20.9866 172.677 11.6984Z" stroke="white" stroke-width="1.5"/>
</g>
</svg>
