<svg display="none" xmlns="http://www.w3.org/2000/svg">

	<symbol viewBox="0 0 24 24" id="burger-icon">
		<path d="M18.4 7L5.60002 7" stroke-width="1.3" stroke-linecap="round" />
		<path d="M18.4 12L5.59999 12" stroke-width="1.3" stroke-linecap="round" />
		<path d="M18.4 17L5.60002 17" stroke-width="1.3" stroke-linecap="round" />
	</symbol>

	<symbol id="mail" viewBox="0 0 24 24">
		<path
			d="M4 12.0001C4 8.98311 4 7.47461 4.93726 6.53736C5.87452 5.6001 7.38301 5.6001 10.4 5.6001H13.6C16.617 5.6001 18.1255 5.6001 19.0627 6.53736C20 7.47461 20 8.98311 20 12.0001C20 15.0171 20 16.5256 19.0627 17.4628C18.1255 18.4001 16.617 18.4001 13.6 18.4001H10.4C7.38301 18.4001 5.87452 18.4001 4.93726 17.4628C4 16.5256 4 15.0171 4 12.0001Z"
			stroke-width="1.35" />
		<path
			d="M7.20001 8.80005L8.92713 10.2393C10.3964 11.4637 11.1311 12.0759 12 12.0759C12.8689 12.0759 13.6036 11.4637 15.0729 10.2393L16.8 8.80005"
			stroke-width="1.35" stroke-linecap="round" />
	</symbol>

	<symbol id="phone" viewBox="0 0 24 24">
		<path
			d="M11.2301 5.85299L11.7493 6.78333C12.2178 7.62291 12.0297 8.72431 11.2918 9.46229C11.2918 9.46229 11.2918 9.46229 11.2918 9.46229C11.2916 9.46241 10.3967 10.3575 12.0196 11.9804C13.6418 13.6027 14.5369 12.7091 14.5378 12.7083C14.5378 12.7083 14.5378 12.7083 14.5378 12.7082C15.2758 11.9703 16.3771 11.7822 17.2167 12.2508L18.1471 12.77C19.4148 13.4775 19.5646 15.2554 18.4502 16.3698C17.7806 17.0394 16.9603 17.5604 16.0535 17.5948C14.527 17.6527 11.9346 17.2663 9.33416 14.6659C6.7337 12.0654 6.34737 9.47303 6.40524 7.94652C6.43961 7.03973 6.96064 6.21944 7.63024 5.54983C8.7446 4.43547 10.5225 4.5852 11.2301 5.85299Z"
			stroke-width="1.35" stroke-linecap="round" />
	</symbol>

	<symbol id="link-arrow" viewBox="0 0 16 16">
		<path d="M4.8 4.80005L11.2 11.2M11.2 11.2L11.2 6.40005M11.2 11.2L6.4 11.2" stroke-width="1.3" stroke-linecap="round"
			stroke-linejoin="round" />
	</symbol>

	<symbol id="arrow-bottom" viewBox="0 0 16 16">
		<path d="M11.7333 6.3999L7.99993 9.5999L4.2666 6.3999" stroke-width="1.3" />
	</symbol>

	<symbol id="share-icon" viewBox="0 0 24 24">
		<path
			d="M9.6001 12C9.6001 13.1046 8.70467 14 7.6001 14C6.49553 14 5.6001 13.1046 5.6001 12C5.6001 10.8954 6.49553 10 7.6001 10C8.70467 10 9.6001 10.8954 9.6001 12Z"
			stroke-width="1.3" />
		<path d="M13.6001 7.6001L9.6001 10.4001" stroke-width="1.3" stroke-linecap="round" />
		<path d="M13.6001 16.3999L9.6001 13.5999" stroke-width="1.3" stroke-linecap="round" />
		<path
			d="M17.6001 17.2C17.6001 18.3045 16.7047 19.2 15.6001 19.2C14.4955 19.2 13.6001 18.3045 13.6001 17.2C13.6001 16.0954 14.4955 15.2 15.6001 15.2C16.7047 15.2 17.6001 16.0954 17.6001 17.2Z"
			stroke-width="1.3" />
		<path
			d="M17.6001 6.80005C17.6001 7.90462 16.7047 8.80005 15.6001 8.80005C14.4955 8.80005 13.6001 7.90462 13.6001 6.80005C13.6001 5.69548 14.4955 4.80005 15.6001 4.80005C16.7047 4.80005 17.6001 5.69548 17.6001 6.80005Z"
			stroke-width="1.3" />
	</symbol>

	<symbol id="star" viewBox="0 0 18 17">
		<path
			d="M8.52447 0.463525C8.67415 0.00287008 9.32585 0.00287008 9.47553 0.463525L11.1329 5.56434C11.1998 5.77035 11.3918 5.90983 11.6084 5.90983H16.9717C17.4561 5.90983 17.6575 6.52964 17.2656 6.81434L12.9266 9.96681C12.7514 10.0941 12.678 10.3198 12.745 10.5258L14.4023 15.6266C14.552 16.0873 14.0248 16.4704 13.6329 16.1857L9.29389 13.0332C9.11865 12.9059 8.88135 12.9059 8.70611 13.0332L4.3671 16.1857C3.97524 16.4704 3.448 16.0873 3.59768 15.6266L5.25503 10.5258C5.32197 10.3198 5.24864 10.0941 5.07339 9.96681L0.734384 6.81434C0.342527 6.52964 0.543915 5.90983 1.02828 5.90983H6.39159C6.6082 5.90983 6.80018 5.77035 6.86712 5.56434L8.52447 0.463525Z" />
	</symbol>

	<symbol id="close" viewBox="0 0 24 24">
		<path d="M18 6.00005L6 18M5.99995 6L17.9999 18" stroke-width="1.3" stroke-linecap="round" />
	</symbol>

	<symbol id="burger" viewBox="0 0 24 24">
		<path d="M18.4 7L5.60002 7" stroke-width="1.3" stroke-linecap="round" />
		<path d="M18.4 12L5.59999 12" stroke-width="1.3" stroke-linecap="round" />
		<path d="M18.4 17L5.60002 17" stroke-width="1.3" stroke-linecap="round" />
	</symbol>

	<symbol id="catalog-icon" viewBox="0 0 32 32">
		<path
			d="M6.99213 18.4076C6.22577 14.8313 5.84259 13.0431 6.80317 11.8549C7.76376 10.6666 9.59253 10.6666 13.2501 10.6666H18.75C22.4075 10.6666 24.2363 10.6666 25.1969 11.8549C26.1574 13.0431 25.7743 14.8313 25.0079 18.4076L24.5508 20.5409C24.0313 22.965 23.7716 24.177 22.8915 24.8885C22.0114 25.6 20.7719 25.6 18.2928 25.6H13.7072C11.2281 25.6 9.98859 25.6 9.10851 24.8885C8.22843 24.177 7.96871 22.965 7.44927 20.5409L6.99213 18.4076Z"
			stroke-width="1.3" stroke-linecap="round" />
		<path d="M6.40002 14.9333H25.6" stroke-width="1.3" stroke-linecap="round" />
		<path d="M13.8667 18.1333H18.1334" stroke-width="1.3" stroke-linecap="round" />
		<path d="M22.4 12.8L19.2 6.40002" stroke-width="1.3" stroke-linecap="round" />
		<path d="M9.60005 12.8L12.8 6.40002" stroke-width="1.3" stroke-linecap="round" />
	</symbol>

	<symbol id="clients-icon" viewBox="0 0 32 32">
		<path d="M12.8 19.2C13.7071 19.8723 14.8103 20.2666 16 20.2666C17.1898 20.2666 18.293 19.8723 19.2 19.2"
			stroke-width="1.3" stroke-linecap="round" />
		<ellipse cx="19.2" cy="13.3333" rx="1.06667" ry="1.6" />
		<path
			d="M18.9666 13.3333C18.9666 13.5542 18.9046 13.6955 18.8725 13.7435C18.8583 13.7649 18.8673 13.7425 18.9187 13.7098C18.9757 13.6737 19.074 13.6333 19.2 13.6333V16.2333C20.0644 16.2333 20.6879 15.7077 21.0359 15.1858C21.3899 14.6547 21.5666 13.996 21.5666 13.3333H18.9666ZM19.2 13.6333C19.3259 13.6333 19.4242 13.6737 19.4812 13.7098C19.5326 13.7425 19.5416 13.7649 19.5274 13.7435C19.4954 13.6955 19.4333 13.5542 19.4333 13.3333H16.8333C16.8333 13.996 17.01 14.6547 17.3641 15.1858C17.712 15.7077 18.3355 16.2333 19.2 16.2333V13.6333ZM19.4333 13.3333C19.4333 13.1123 19.4954 12.9711 19.5274 12.923C19.5416 12.9017 19.5326 12.9241 19.4812 12.9567C19.4242 12.9929 19.3259 13.0333 19.2 13.0333V10.4333C18.3355 10.4333 17.712 10.9588 17.3641 11.4808C17.01 12.0118 16.8333 12.6706 16.8333 13.3333H19.4333ZM19.2 13.0333C19.074 13.0333 18.9757 12.9929 18.9187 12.9567C18.8673 12.9241 18.8583 12.9017 18.8725 12.923C18.9046 12.9711 18.9666 13.1123 18.9666 13.3333H21.5666C21.5666 12.6706 21.3899 12.0118 21.0359 11.4808C20.6879 10.9588 20.0644 10.4333 19.2 10.4333V13.0333Z" />

		<ellipse cx="12.7999" cy="13.3333" rx="1.06667" ry="1.6" />
		<path
			d="M12.5666 13.3333C12.5666 13.5542 12.5045 13.6955 12.4725 13.7435C12.4583 13.7649 12.4673 13.7425 12.5187 13.7098C12.5757 13.6737 12.674 13.6333 12.7999 13.6333V16.2333C13.6644 16.2333 14.2879 15.7077 14.6359 15.1858C14.9899 14.6547 15.1666 13.996 15.1666 13.3333H12.5666ZM12.7999 13.6333C12.9259 13.6333 13.0242 13.6737 13.0812 13.7098C13.1326 13.7425 13.1416 13.7649 13.1274 13.7435C13.0953 13.6955 13.0333 13.5542 13.0333 13.3333H10.4333C10.4333 13.996 10.61 14.6547 10.964 15.1858C11.312 15.7077 11.9355 16.2333 12.7999 16.2333V13.6333ZM13.0333 13.3333C13.0333 13.1123 13.0953 12.9711 13.1274 12.923C13.1416 12.9017 13.1326 12.9241 13.0812 12.9567C13.0242 12.9929 12.9259 13.0333 12.7999 13.0333V10.4333C11.9355 10.4333 11.312 10.9588 10.964 11.4808C10.61 12.0118 10.4333 12.6706 10.4333 13.3333H13.0333ZM12.7999 13.0333C12.674 13.0333 12.5757 12.9929 12.5187 12.9567C12.4673 12.9241 12.4583 12.9017 12.4725 12.923C12.5045 12.9711 12.5666 13.1123 12.5666 13.3333H15.1666C15.1666 12.6706 14.9899 12.0118 14.6359 11.4808C14.2879 10.9588 13.6644 10.4333 12.7999 10.4333V13.0333Z" />
		<path
			d="M26.6667 24.2379V16.3207C26.6667 10.2526 21.8911 5.33337 16 5.33337C10.109 5.33337 5.33337 10.2526 5.33337 16.3207V24.2379C5.33337 25.6484 6.77442 26.5658 7.99919 25.935C8.98911 25.4251 10.1684 25.5008 11.0893 26.1332C12.1252 26.8446 13.4749 26.8446 14.5108 26.1332L14.887 25.8748C15.561 25.412 16.4391 25.412 17.1131 25.8748L17.4893 26.1332C18.5252 26.8446 19.8749 26.8446 20.9108 26.1332C21.8317 25.5008 23.011 25.4251 24.0009 25.935C25.2257 26.5658 26.6667 25.6484 26.6667 24.2379Z"
			stroke-width="1.3" />
	</symbol>

	<symbol id="phone-mobile" viewBox="0 0 32 32">
		<path
			d="M14.8301 11.0529L15.3493 11.9833C15.8178 12.8229 15.6297 13.9243 14.8918 14.6622C14.8918 14.6622 14.8918 14.6622 14.8918 14.6622C14.8917 14.6624 13.9967 15.5575 15.6196 17.1804C17.2418 18.8026 18.1369 17.909 18.1378 17.9082C18.1378 17.9082 18.1378 17.9082 18.1378 17.9082C18.8758 17.1702 19.9771 16.9822 20.8167 17.4507L21.7471 17.9699C23.0148 18.6775 23.1646 20.4554 22.0502 21.5698C21.3806 22.2394 20.5603 22.7604 19.6535 22.7948C18.127 22.8526 15.5346 22.4663 12.9342 19.8658C10.3337 17.2654 9.94737 14.673 10.0052 13.1465C10.0396 12.2397 10.5606 11.4194 11.2302 10.7498C12.3446 9.63543 14.1225 9.78515 14.8301 11.0529Z"
			stroke-width="1.3" stroke-linecap="round" />
	</symbol>

	<symbol id="tg-mobile" viewBox="0 0 32 32">
		<path fill-rule="evenodd" clip-rule="evenodd"
			d="M10.0312 15.1659C14.0577 13.4724 16.7427 12.356 18.0861 11.8166C21.9219 10.2765 22.7189 10.0089 23.2384 10.0001C23.3527 9.99815 23.6082 10.0255 23.7737 10.1551C23.9134 10.2646 23.9518 10.4124 23.9702 10.5162C23.9886 10.62 24.0115 10.8564 23.9933 11.0411C23.7855 13.1494 22.8861 18.2657 22.4285 20.6271C22.2349 21.6262 21.8536 21.9613 21.4845 21.9941C20.6824 22.0653 20.0734 21.4823 19.2965 20.9908C18.0809 20.2215 17.3941 19.7426 16.2141 18.992C14.8504 18.1245 15.7344 17.6477 16.5116 16.8685C16.715 16.6646 20.249 13.5615 20.3174 13.28C20.326 13.2448 20.3339 13.1136 20.2532 13.0443C20.1724 12.975 20.0532 12.9987 19.9672 13.0175C19.8453 13.0442 17.9033 14.2833 14.1411 16.7348C13.5899 17.1002 13.0906 17.2783 12.6433 17.2689C12.1501 17.2586 11.2015 16.9998 10.4962 16.7785C9.63124 16.507 8.94377 16.3635 9.00363 15.9026C9.03481 15.6625 9.37733 15.4169 10.0312 15.1659Z"
			stroke-width="1.3" />
	</symbol>

	<symbol id="mail-mobile" viewBox="0 0 32 32">
		<path
			d="M5.33325 16C5.33325 11.9774 5.33325 9.96603 6.58293 8.71635C7.83261 7.46667 9.84393 7.46667 13.8666 7.46667H18.1333C22.1559 7.46667 24.1672 7.46667 25.4169 8.71635C26.6666 9.96603 26.6666 11.9774 26.6666 16C26.6666 20.0227 26.6666 22.034 25.4169 23.2837C24.1672 24.5333 22.1559 24.5333 18.1333 24.5333H13.8666C9.84393 24.5333 7.83261 24.5333 6.58293 23.2837C5.33325 22.034 5.33325 20.0227 5.33325 16Z" stroke-width="1.3" />
		<path
			d="M9.6001 11.7333L11.9029 13.6523C13.862 15.2849 14.8415 16.1011 16.0001 16.1011C17.1587 16.1011 18.1382 15.2849 20.0973 13.6523L22.4001 11.7333" stroke-width="1.3" stroke-linecap="round" />
	</symbol>

</svg>