<svg display="none" xmlns="http://www.w3.org/2000/svg">

	<symbol viewBox="0 0 24 24" id="burger-icon">
		<path d="M18.4 7L5.60002 7" stroke-width="1.3" stroke-linecap="round" />
		<path d="M18.4 12L5.59999 12" stroke-width="1.3" stroke-linecap="round" />
		<path d="M18.4 17L5.60002 17" stroke-width="1.3" stroke-linecap="round" />
	</symbol>

	<symbol id="mail" viewBox="0 0 24 24">
		<path
			d="M4 12.0001C4 8.98311 4 7.47461 4.93726 6.53736C5.87452 5.6001 7.38301 5.6001 10.4 5.6001H13.6C16.617 5.6001 18.1255 5.6001 19.0627 6.53736C20 7.47461 20 8.98311 20 12.0001C20 15.0171 20 16.5256 19.0627 17.4628C18.1255 18.4001 16.617 18.4001 13.6 18.4001H10.4C7.38301 18.4001 5.87452 18.4001 4.93726 17.4628C4 16.5256 4 15.0171 4 12.0001Z"
			stroke-width="1.35" />
		<path
			d="M7.20001 8.80005L8.92713 10.2393C10.3964 11.4637 11.1311 12.0759 12 12.0759C12.8689 12.0759 13.6036 11.4637 15.0729 10.2393L16.8 8.80005"
			stroke-width="1.35" stroke-linecap="round" />
	</symbol>

	<symbol id="phone" viewBox="0 0 24 24">
		<path
			d="M11.2301 5.85299L11.7493 6.78333C12.2178 7.62291 12.0297 8.72431 11.2918 9.46229C11.2918 9.46229 11.2918 9.46229 11.2918 9.46229C11.2916 9.46241 10.3967 10.3575 12.0196 11.9804C13.6418 13.6027 14.5369 12.7091 14.5378 12.7083C14.5378 12.7083 14.5378 12.7083 14.5378 12.7082C15.2758 11.9703 16.3771 11.7822 17.2167 12.2508L18.1471 12.77C19.4148 13.4775 19.5646 15.2554 18.4502 16.3698C17.7806 17.0394 16.9603 17.5604 16.0535 17.5948C14.527 17.6527 11.9346 17.2663 9.33416 14.6659C6.7337 12.0654 6.34737 9.47303 6.40524 7.94652C6.43961 7.03973 6.96064 6.21944 7.63024 5.54983C8.7446 4.43547 10.5225 4.5852 11.2301 5.85299Z"
			stroke-width="1.35" stroke-linecap="round" />
	</symbol>

</svg>