<svg display="none" xmlns="http://www.w3.org/2000/svg">

	<symbol viewBox="0 0 24 24" id="burger-icon">
		<path d="M18.4 7L5.60002 7" stroke-width="1.3" stroke-linecap="round" />
		<path d="M18.4 12L5.59999 12" stroke-width="1.3" stroke-linecap="round" />
		<path d="M18.4 17L5.60002 17" stroke-width="1.3" stroke-linecap="round" />
	</symbol>

	<symbol id="mail" viewBox="0 0 24 24">
		<path
			d="M4 12.0001C4 8.98311 4 7.47461 4.93726 6.53736C5.87452 5.6001 7.38301 5.6001 10.4 5.6001H13.6C16.617 5.6001 18.1255 5.6001 19.0627 6.53736C20 7.47461 20 8.98311 20 12.0001C20 15.0171 20 16.5256 19.0627 17.4628C18.1255 18.4001 16.617 18.4001 13.6 18.4001H10.4C7.38301 18.4001 5.87452 18.4001 4.93726 17.4628C4 16.5256 4 15.0171 4 12.0001Z"
			stroke-width="1.35" />
		<path
			d="M7.20001 8.80005L8.92713 10.2393C10.3964 11.4637 11.1311 12.0759 12 12.0759C12.8689 12.0759 13.6036 11.4637 15.0729 10.2393L16.8 8.80005"
			stroke-width="1.35" stroke-linecap="round" />
	</symbol>

	<symbol id="phone" viewBox="0 0 24 24">
		<path
			d="M11.2301 5.85299L11.7493 6.78333C12.2178 7.62291 12.0297 8.72431 11.2918 9.46229C11.2918 9.46229 11.2918 9.46229 11.2918 9.46229C11.2916 9.46241 10.3967 10.3575 12.0196 11.9804C13.6418 13.6027 14.5369 12.7091 14.5378 12.7083C14.5378 12.7083 14.5378 12.7083 14.5378 12.7082C15.2758 11.9703 16.3771 11.7822 17.2167 12.2508L18.1471 12.77C19.4148 13.4775 19.5646 15.2554 18.4502 16.3698C17.7806 17.0394 16.9603 17.5604 16.0535 17.5948C14.527 17.6527 11.9346 17.2663 9.33416 14.6659C6.7337 12.0654 6.34737 9.47303 6.40524 7.94652C6.43961 7.03973 6.96064 6.21944 7.63024 5.54983C8.7446 4.43547 10.5225 4.5852 11.2301 5.85299Z"
			stroke-width="1.35" stroke-linecap="round" />
	</symbol>

	<symbol id="link-arrow" viewBox="0 0 16 16">
		<path d="M4.8 4.80005L11.2 11.2M11.2 11.2L11.2 6.40005M11.2 11.2L6.4 11.2" stroke-width="1.3" stroke-linecap="round"
			stroke-linejoin="round" />
	</symbol>

	<symbol id="arrow-bottom" viewBox="0 0 16 16">
		<path d="M11.7333 6.3999L7.99993 9.5999L4.2666 6.3999" stroke-width="1.3" />
	</symbol>

	<symbol id="share-icon" viewBox="0 0 24 24">
		<path
			d="M9.6001 12C9.6001 13.1046 8.70467 14 7.6001 14C6.49553 14 5.6001 13.1046 5.6001 12C5.6001 10.8954 6.49553 10 7.6001 10C8.70467 10 9.6001 10.8954 9.6001 12Z"
			stroke-width="1.3" />
		<path d="M13.6001 7.6001L9.6001 10.4001" stroke-width="1.3" stroke-linecap="round" />
		<path d="M13.6001 16.3999L9.6001 13.5999" stroke-width="1.3" stroke-linecap="round" />
		<path
			d="M17.6001 17.2C17.6001 18.3045 16.7047 19.2 15.6001 19.2C14.4955 19.2 13.6001 18.3045 13.6001 17.2C13.6001 16.0954 14.4955 15.2 15.6001 15.2C16.7047 15.2 17.6001 16.0954 17.6001 17.2Z"
			stroke-width="1.3" />
		<path
			d="M17.6001 6.80005C17.6001 7.90462 16.7047 8.80005 15.6001 8.80005C14.4955 8.80005 13.6001 7.90462 13.6001 6.80005C13.6001 5.69548 14.4955 4.80005 15.6001 4.80005C16.7047 4.80005 17.6001 5.69548 17.6001 6.80005Z"
			stroke-width="1.3" />
	</symbol>

	<symbol id="star" viewBox="0 0 18 17">
		<path
			d="M8.52447 0.463525C8.67415 0.00287008 9.32585 0.00287008 9.47553 0.463525L11.1329 5.56434C11.1998 5.77035 11.3918 5.90983 11.6084 5.90983H16.9717C17.4561 5.90983 17.6575 6.52964 17.2656 6.81434L12.9266 9.96681C12.7514 10.0941 12.678 10.3198 12.745 10.5258L14.4023 15.6266C14.552 16.0873 14.0248 16.4704 13.6329 16.1857L9.29389 13.0332C9.11865 12.9059 8.88135 12.9059 8.70611 13.0332L4.3671 16.1857C3.97524 16.4704 3.448 16.0873 3.59768 15.6266L5.25503 10.5258C5.32197 10.3198 5.24864 10.0941 5.07339 9.96681L0.734384 6.81434C0.342527 6.52964 0.543915 5.90983 1.02828 5.90983H6.39159C6.6082 5.90983 6.80018 5.77035 6.86712 5.56434L8.52447 0.463525Z" />
	</symbol>

	<symbol id="close" viewBox="0 0 24 24">
		<path d="M18 6.00005L6 18M5.99995 6L17.9999 18" stroke-width="1.3" stroke-linecap="round" />
	</symbol>

	<symbol id="burger" viewBox="0 0 24 24">
		<path d="M18.4 7L5.60002 7" stroke-width="1.3" stroke-linecap="round" />
		<path d="M18.4 12L5.59999 12" stroke-width="1.3" stroke-linecap="round" />
		<path d="M18.4 17L5.60002 17" stroke-width="1.3" stroke-linecap="round" />
	</symbol>

</svg>