<svg display="none" xmlns="http://www.w3.org/2000/svg">

	<symbol id="burger-icon2" viewBox="0 0 24 24">
		<path d="M18.4 7L5.60002 7" stroke-width="1.3" stroke-linecap="round" />
		<path d="M18.4 12L5.59999 12" stroke-width="1.3" stroke-linecap="round" />
		<path d="M18.4 17L5.60002 17" stroke-width="1.3" stroke-linecap="round" />
	</symbol>
	<symbol id="burger-icon" viewBox="0 0 17 16">
		<path fill-rule="evenodd" clip-rule="evenodd"
			d="M1.93476 14.8284C3.10633 16 4.99195 16 8.76318 16C12.5344 16 14.42 16 15.5916 14.8284C16.7632 13.6569 16.7632 11.7712 16.7632 8C16.7632 4.22876 16.7632 2.34315 15.5916 1.17157C14.42 0 12.5344 0 8.76318 0C4.99195 0 3.10633 0 1.93476 1.17157C0.763184 2.34315 0.763184 4.22876 0.763184 8C0.763184 11.7712 0.763184 13.6569 1.93476 14.8284ZM14.1632 11.2C14.1632 11.5314 13.8946 11.8 13.5632 11.8H3.96318C3.63181 11.8 3.36318 11.5314 3.36318 11.2C3.36318 10.8686 3.63181 10.6 3.96318 10.6H13.5632C13.8946 10.6 14.1632 10.8686 14.1632 11.2ZM13.5632 8.6C13.8946 8.6 14.1632 8.33137 14.1632 8C14.1632 7.66863 13.8946 7.4 13.5632 7.4H3.96318C3.63181 7.4 3.36318 7.66863 3.36318 8C3.36318 8.33137 3.63181 8.6 3.96318 8.6H13.5632ZM14.1632 4.8C14.1632 5.13137 13.8946 5.4 13.5632 5.4H3.96318C3.63181 5.4 3.36318 5.13137 3.36318 4.8C3.36318 4.46863 3.63181 4.2 3.96318 4.2H13.5632C13.8946 4.2 14.1632 4.46863 14.1632 4.8Z" />
	</symbol>

	<!-- <symbol id="mail" viewBox="0 0 24 24">
		<path
			d="M4 12.0001C4 8.98311 4 7.47461 4.93726 6.53736C5.87452 5.6001 7.38301 5.6001 10.4 5.6001H13.6C16.617 5.6001 18.1255 5.6001 19.0627 6.53736C20 7.47461 20 8.98311 20 12.0001C20 15.0171 20 16.5256 19.0627 17.4628C18.1255 18.4001 16.617 18.4001 13.6 18.4001H10.4C7.38301 18.4001 5.87452 18.4001 4.93726 17.4628C4 16.5256 4 15.0171 4 12.0001Z"
			stroke-width="1.35" />
		<path
			d="M7.20001 8.80005L8.92713 10.2393C10.3964 11.4637 11.1311 12.0759 12 12.0759C12.8689 12.0759 13.6036 11.4637 15.0729 10.2393L16.8 8.80005"
			stroke-width="1.35" stroke-linecap="round" />
	</symbol> -->

	<symbol id="mail" viewBox="0 0 21 21">
		<path
			d="M3.83325 10.8158C3.83325 8.3016 3.83325 7.04452 4.6143 6.26347C5.39535 5.48242 6.65243 5.48242 9.16659 5.48242H11.8333C14.3474 5.48242 15.6045 5.48242 16.3855 6.26347C17.1666 7.04452 17.1666 8.3016 17.1666 10.8158C17.1666 13.3299 17.1666 14.587 16.3855 15.368C15.6045 16.1491 14.3474 16.1491 11.8333 16.1491H9.16658C6.65243 16.1491 5.39535 16.1491 4.6143 15.368C3.83325 14.587 3.83325 13.3299 3.83325 10.8158Z" />
		<path
			d="M6.5 8.14844L7.93926 9.34782C9.16369 10.3682 9.7759 10.8784 10.5 10.8784C11.2241 10.8784 11.8363 10.3682 13.0607 9.34782L14.5 8.14844"
			stroke-linecap="round" />
	</symbol>


	<symbol id="phone" viewBox="0 0 24 24">
		<path
			d="M11.2301 5.85299L11.7493 6.78333C12.2178 7.62291 12.0297 8.72431 11.2918 9.46229C11.2918 9.46229 11.2918 9.46229 11.2918 9.46229C11.2916 9.46241 10.3967 10.3575 12.0196 11.9804C13.6418 13.6027 14.5369 12.7091 14.5378 12.7083C14.5378 12.7083 14.5378 12.7083 14.5378 12.7082C15.2758 11.9703 16.3771 11.7822 17.2167 12.2508L18.1471 12.77C19.4148 13.4775 19.5646 15.2554 18.4502 16.3698C17.7806 17.0394 16.9603 17.5604 16.0535 17.5948C14.527 17.6527 11.9346 17.2663 9.33416 14.6659C6.7337 12.0654 6.34737 9.47303 6.40524 7.94652C6.43961 7.03973 6.96064 6.21944 7.63024 5.54983C8.7446 4.43547 10.5225 4.5852 11.2301 5.85299Z"
			stroke-width="1.35" stroke-linecap="round" />
	</symbol>

	<symbol id="link-arrow" viewBox="0 0 16 16">
		<path d="M4.8 4.80005L11.2 11.2M11.2 11.2L11.2 6.40005M11.2 11.2L6.4 11.2" stroke-width="1.3" stroke-linecap="round"
			stroke-linejoin="round" />
	</symbol>

	<symbol id="arrow-bottom" viewBox="0 0 16 16">
		<path d="M11.7333 6.3999L7.99993 9.5999L4.2666 6.3999" stroke-width="1.3" />
	</symbol>

	<symbol id="arrow-bottom-footer" viewBox="0 0 24 24">
		<path d="M17.5999 9.59961L11.9999 14.3996L6.3999 9.59961" stroke-linecap="round" />
	</symbol>


	<symbol id="arrow-menu" viewBox="0 0 24 24">
		<path d="M17.5999 9.6001L11.9999 14.4001L6.3999 9.6001" stroke="#161616" stroke-linecap="round" />
	</symbol>

	<symbol id="arrow-menu-catalog" viewBox="0 0 24 24">
		<path fill-rule="evenodd" clip-rule="evenodd"
			d="M12 20C8.22876 20 6.34315 20 5.17157 18.8284C4 17.6569 4 15.7712 4 12C4 8.22876 4 6.34315 5.17157 5.17157C6.34315 4 8.22876 4 12 4C15.7712 4 17.6569 4 18.8284 5.17157C20 6.34315 20 8.22876 20 12C20 15.7712 20 17.6569 18.8284 18.8284C17.6569 20 15.7712 20 12 20ZM9.17574 11.1757C9.41005 10.9414 9.78995 10.9414 10.0243 11.1757L12 13.1515L13.9757 11.1757C14.2101 10.9414 14.59 10.9414 14.8243 11.1757C15.0586 11.4101 15.0586 11.7899 14.8243 12.0243L12.4243 14.4243C12.3117 14.5368 12.1591 14.6 12 14.6C11.8409 14.6 11.6883 14.5368 11.5757 14.4243L9.17574 12.0243C8.94142 11.7899 8.94142 11.4101 9.17574 11.1757Z" />
	</symbol>

	<symbol id="arrow-rotate" viewBox="0 0 25 24">
		<path d="M7.69995 7.2002L17.3 16.8002M17.3 16.8002L17.3 9.6002M17.3 16.8002L10.1 16.8002" stroke-width="1.5"
			stroke-linecap="round" stroke-linejoin="round" />
	</symbol>

	<symbol id="prev" viewBox="0 0 24 24">
		<path d="M18.4001 12.0002H5.6001M5.6001 12.0002L10.4001 7.2002M5.6001 12.0002L10.4001 16.8002"
			stroke-linecap="round" stroke-linejoin="round" />
	</symbol>

	<symbol id="next" viewBox="0 0 24 24">
		<path d="M5.59998 12.0002H18.4M18.4 12.0002L13.6 7.2002M18.4 12.0002L13.6 16.8002" stroke-linecap="round"
			stroke-linejoin="round" />
	</symbol>

	<symbol id="arrow-right" viewBox="0 0 24 24">
		<path d="M5.59961 12.0002H18.3996M18.3996 12.0002L13.5996 7.2002M18.3996 12.0002L13.5996 16.8002" stroke-width="1.5"
			stroke-linecap="round" stroke-linejoin="round" />
	</symbol>


	<symbol id="chat" viewBox="0 0 17 16">
		<path
			d="M8.16667 13.3337C11.1122 13.3337 13.5 10.9458 13.5 8.00033C13.5 5.05481 11.1122 2.66699 8.16667 2.66699C5.22115 2.66699 2.83333 5.05481 2.83333 8.00033C2.83333 8.85349 3.03366 9.65986 3.38985 10.375C3.4845 10.565 3.51601 10.7822 3.46113 10.9873L3.14347 12.1745C3.00558 12.6899 3.47707 13.1614 3.99245 13.0235L5.17967 12.7059C5.38476 12.651 5.60198 12.6825 5.79202 12.7771C6.50713 13.1333 7.3135 13.3337 8.16667 13.3337Z" />
	</symbol>

	<symbol id="close-icon" viewBox="0 0 17 16">
		<path fill-rule="evenodd" clip-rule="evenodd"
			d="M14.1667 8.00033C14.1667 10.9458 11.7789 13.3337 8.83333 13.3337C5.88781 13.3337 3.5 10.9458 3.5 8.00033C3.5 5.05481 5.88781 2.66699 8.83333 2.66699C11.7789 2.66699 14.1667 5.05481 14.1667 8.00033ZM7.21713 6.38414C7.37334 6.22793 7.62661 6.22793 7.78282 6.38414L8.83332 7.43463L9.8838 6.38415C10.04 6.22794 10.2933 6.22794 10.4495 6.38415C10.6057 6.54036 10.6057 6.79363 10.4495 6.94983L9.399 8.00032L10.4495 9.05079C10.6057 9.207 10.6057 9.46027 10.4495 9.61648C10.2933 9.77269 10.04 9.77269 9.88379 9.61648L8.83332 8.56601L7.78283 9.61649C7.62662 9.7727 7.37336 9.7727 7.21715 9.61649C7.06094 9.46028 7.06094 9.20702 7.21715 9.05081L8.26763 8.00032L7.21713 6.94982C7.06093 6.79361 7.06093 6.54035 7.21713 6.38414Z" />
	</symbol>

	<symbol id="share-icon" viewBox="0 0 24 24">
		<path
			d="M9.6001 12C9.6001 13.1046 8.70467 14 7.6001 14C6.49553 14 5.6001 13.1046 5.6001 12C5.6001 10.8954 6.49553 10 7.6001 10C8.70467 10 9.6001 10.8954 9.6001 12Z"
			stroke-width="1.3" />
		<path d="M13.6001 7.6001L9.6001 10.4001" stroke-width="1.3" stroke-linecap="round" />
		<path d="M13.6001 16.3999L9.6001 13.5999" stroke-width="1.3" stroke-linecap="round" />
		<path
			d="M17.6001 17.2C17.6001 18.3045 16.7047 19.2 15.6001 19.2C14.4955 19.2 13.6001 18.3045 13.6001 17.2C13.6001 16.0954 14.4955 15.2 15.6001 15.2C16.7047 15.2 17.6001 16.0954 17.6001 17.2Z"
			stroke-width="1.3" />
		<path
			d="M17.6001 6.80005C17.6001 7.90462 16.7047 8.80005 15.6001 8.80005C14.4955 8.80005 13.6001 7.90462 13.6001 6.80005C13.6001 5.69548 14.4955 4.80005 15.6001 4.80005C16.7047 4.80005 17.6001 5.69548 17.6001 6.80005Z"
			stroke-width="1.3" />
	</symbol>

	<symbol id="star" viewBox="0 0 18 17">
		<path
			d="M8.52447 0.463525C8.67415 0.00287008 9.32585 0.00287008 9.47553 0.463525L11.1329 5.56434C11.1998 5.77035 11.3918 5.90983 11.6084 5.90983H16.9717C17.4561 5.90983 17.6575 6.52964 17.2656 6.81434L12.9266 9.96681C12.7514 10.0941 12.678 10.3198 12.745 10.5258L14.4023 15.6266C14.552 16.0873 14.0248 16.4704 13.6329 16.1857L9.29389 13.0332C9.11865 12.9059 8.88135 12.9059 8.70611 13.0332L4.3671 16.1857C3.97524 16.4704 3.448 16.0873 3.59768 15.6266L5.25503 10.5258C5.32197 10.3198 5.24864 10.0941 5.07339 9.96681L0.734384 6.81434C0.342527 6.52964 0.543915 5.90983 1.02828 5.90983H6.39159C6.6082 5.90983 6.80018 5.77035 6.86712 5.56434L8.52447 0.463525Z" />
	</symbol>

	<symbol id="close" viewBox="0 0 24 24">
		<path d="M18 6.00005L6 18M5.99995 6L17.9999 18" stroke-width="1.3" stroke-linecap="round" />
	</symbol>


	<symbol id="burger" viewBox="0 0 24 24">
		<path d="M18.4 7L5.60002 7" stroke-width="1.3" stroke-linecap="round" />
		<path d="M18.4 12L5.59999 12" stroke-width="1.3" stroke-linecap="round" />
		<path d="M18.4 17L5.60002 17" stroke-width="1.3" stroke-linecap="round" />
	</symbol>

	<symbol id="catalog-icon" viewBox="0 0 24 24">
		<path fill-rule="evenodd" clip-rule="evenodd"
			d="M9.89072 4.21867C10.2118 4.37921 10.342 4.76965 10.1814 5.09073L9.05114 7.35127C9.31676 7.35004 9.59466 7.35004 9.88502 7.35004H14.115C14.4054 7.35004 14.6833 7.35004 14.9489 7.35127L13.8187 5.09073C13.6581 4.76965 13.7883 4.37921 14.1093 4.21867C14.4304 4.05812 14.8209 4.18827 14.9814 4.50936L16.419 7.38458C16.751 7.40206 17.0548 7.42839 17.331 7.46804C18.1813 7.59013 18.895 7.85398 19.4031 8.48258C19.9113 9.11117 20.0198 9.86431 19.961 10.7213C19.9042 11.5499 19.6806 12.5931 19.4025 13.8906L19.04 15.5822C18.8526 16.457 18.6996 17.1711 18.5067 17.7299C18.3051 18.314 18.0374 18.8 17.5773 19.1719C17.1172 19.5439 16.5859 19.7038 15.9725 19.7786C15.3857 19.8501 14.6555 19.8501 13.7608 19.85H10.2393C9.3446 19.8501 8.61432 19.8501 8.02757 19.7786C7.41419 19.7038 6.88288 19.5439 6.42276 19.1719C5.96264 18.8 5.69494 18.314 5.49333 17.7299C5.30047 17.1711 5.14747 16.457 4.96002 15.5822L4.59754 13.8906C4.31948 12.5931 4.09591 11.5499 4.03908 10.7213C3.98029 9.86431 4.08875 9.11117 4.59692 8.48258C5.10509 7.85398 5.81878 7.59013 6.66909 7.46804C6.94525 7.42839 7.24904 7.40206 7.58104 7.38458L9.01865 4.50936C9.1792 4.18827 9.56963 4.05812 9.89072 4.21867ZM6.89907 8.74853C6.88388 8.75059 6.86881 8.75269 6.85385 8.75484C6.15247 8.85555 5.82016 9.03728 5.60788 9.29986C5.40401 9.55205 5.29626 9.89688 5.33101 10.55H18.6691C18.7038 9.89688 18.5961 9.55205 18.3922 9.29986C18.1799 9.03728 17.8476 8.85555 17.1462 8.75484C17.1313 8.75269 17.1162 8.75059 17.101 8.74853L17.3814 9.30936C17.542 9.63044 17.4118 10.0209 17.0907 10.1814C16.7696 10.342 16.3792 10.2118 16.2187 9.89073L15.6024 8.65822C15.1544 8.65032 14.6452 8.65004 14.0625 8.65004H9.93757C9.35491 8.65004 8.84563 8.65032 8.39767 8.65822L7.78141 9.89073C7.62087 10.2118 7.23043 10.342 6.90934 10.1814C6.58826 10.0209 6.45811 9.63044 6.61865 9.30936L6.89907 8.74853ZM18.4945 11.85H5.50558C5.60008 12.3627 5.72777 12.9606 5.87969 13.6696L6.22255 15.2696C6.42073 16.1944 6.55819 16.8306 6.72219 17.3057C6.88038 17.764 7.04011 17.9993 7.24004 18.161C7.43998 18.3226 7.70354 18.4295 8.18482 18.4881C8.68377 18.5489 9.33457 18.55 10.2804 18.55H13.7196C14.6655 18.55 15.3163 18.5489 15.8152 18.4881C16.2965 18.4295 16.5601 18.3226 16.76 18.161C16.96 17.9993 17.1197 17.764 17.2779 17.3057C17.4419 16.8306 17.5793 16.1944 17.7775 15.2696L18.1204 13.6696C18.2723 12.9606 18.4 12.3627 18.4945 11.85ZM9.75003 13.6C9.75003 13.2411 10.041 12.95 10.4 12.95H13.6C13.959 12.95 14.25 13.2411 14.25 13.6C14.25 13.959 13.959 14.25 13.6 14.25H10.4C10.041 14.25 9.75003 13.959 9.75003 13.6Z" />
	</symbol>



	<symbol id="clients-icon" viewBox="0 0 24 24">
		<path fill-rule="evenodd" clip-rule="evenodd"
			d="M9.07791 14.013C9.29168 13.7246 9.69877 13.6641 9.98716 13.8779C10.5617 14.3038 11.2547 14.5501 12.0001 14.5501C12.7455 14.5501 13.4385 14.3038 14.013 13.8779C14.3014 13.6641 14.7085 13.7246 14.9223 14.013C15.1361 14.3014 15.0756 14.7085 14.7872 14.9223C14.0011 15.5049 13.0394 15.8501 12.0001 15.8501C10.9608 15.8501 9.9991 15.5049 9.21303 14.9223C8.92464 14.7085 8.86414 14.3014 9.07791 14.013Z" />
		<path
			d="M15.2001 10.0001C15.2001 10.6628 14.8419 11.2001 14.4001 11.2001C13.9583 11.2001 13.6001 10.6628 13.6001 10.0001C13.6001 9.33736 13.9583 8.8001 14.4001 8.8001C14.8419 8.8001 15.2001 9.33736 15.2001 10.0001Z" />
		<path
			d="M10.4001 10.0001C10.4001 10.6628 10.0419 11.2001 9.6001 11.2001C9.15827 11.2001 8.8001 10.6628 8.8001 10.0001C8.8001 9.33736 9.15827 8.8001 9.6001 8.8001C10.0419 8.8001 10.4001 9.33736 10.4001 10.0001Z" />
		<path fill-rule="evenodd" clip-rule="evenodd"
			d="M3.3501 12.2406C3.3501 7.34878 7.20482 3.3501 12.0001 3.3501C16.7954 3.3501 20.6501 7.34878 20.6501 12.2406V18.1785C20.6501 19.6906 19.0827 20.7397 17.7031 20.0292C17.1742 19.7568 16.5454 19.7963 16.0511 20.1358C15.0525 20.8215 13.7477 20.8215 12.7491 20.1358L12.4669 19.942C12.1831 19.7471 11.8171 19.7471 11.5333 19.942L11.2511 20.1358C10.2525 20.8215 8.94771 20.8215 7.94905 20.1358C7.45479 19.7963 6.82596 19.7568 6.29707 20.0292C4.9175 20.7397 3.3501 19.6906 3.3501 18.1785V12.2406ZM12.0001 4.6501C7.95882 4.6501 4.6501 8.03019 4.6501 12.2406V18.1785C4.6501 18.7821 5.24426 19.1091 5.70184 18.8734C6.65784 18.3811 7.79788 18.4549 8.68496 19.0641C9.24025 19.4454 9.95994 19.4454 10.5152 19.0641L10.7974 18.8704C11.5245 18.371 12.4756 18.371 13.2028 18.8704L13.485 19.0641C14.0403 19.4454 14.7599 19.4454 15.3152 19.0641C16.2023 18.4549 17.3424 18.3811 18.2984 18.8734C18.7559 19.1091 19.3501 18.7821 19.3501 18.1785V12.2406C19.3501 8.03019 16.0414 4.6501 12.0001 4.6501Z" />
	</symbol>



	<symbol id="phone-mobile" viewBox="0 0 32 32">
		<path
			d="M14.8301 11.0529L15.3493 11.9833C15.8178 12.8229 15.6297 13.9243 14.8918 14.6622C14.8918 14.6622 14.8918 14.6622 14.8918 14.6622C14.8917 14.6624 13.9967 15.5575 15.6196 17.1804C17.2418 18.8026 18.1369 17.909 18.1378 17.9082C18.1378 17.9082 18.1378 17.9082 18.1378 17.9082C18.8758 17.1702 19.9771 16.9822 20.8167 17.4507L21.7471 17.9699C23.0148 18.6775 23.1646 20.4554 22.0502 21.5698C21.3806 22.2394 20.5603 22.7604 19.6535 22.7948C18.127 22.8526 15.5346 22.4663 12.9342 19.8658C10.3337 17.2654 9.94737 14.673 10.0052 13.1465C10.0396 12.2397 10.5606 11.4194 11.2302 10.7498C12.3446 9.63543 14.1225 9.78515 14.8301 11.0529Z"
			stroke-width="1.3" stroke-linecap="round" />
	</symbol>

	<symbol id="tg-mobile" viewBox="0 0 24 24">
		<path fill-rule="evenodd" clip-rule="evenodd"
			d="M5.03117 11.1659C9.0577 9.47245 11.7427 8.356 13.0861 7.81659C16.9219 6.27646 17.7189 6.00893 18.2384 6.00009C18.3527 5.99815 18.6082 6.02549 18.7737 6.15511C18.9134 6.26457 18.9518 6.41242 18.9702 6.5162C18.9886 6.61997 19.0115 6.85637 18.9933 7.04108C18.7855 9.1494 17.8861 14.2657 17.4285 16.6271C17.2349 17.6262 16.8536 17.9613 16.4845 17.9941C15.6824 18.0653 15.0734 17.4823 14.2965 16.9908C13.0809 16.2215 12.3941 15.7426 11.2141 14.992C9.8504 14.1245 10.7344 13.6477 11.5116 12.8685C11.715 12.6646 15.249 9.56151 15.3174 9.28001C15.326 9.2448 15.3339 9.11357 15.2532 9.04428C15.1724 8.97498 15.0532 8.99868 14.9672 9.01753C14.8453 9.04424 12.9033 10.2833 9.14115 12.7348C8.58991 13.1002 8.09062 13.2783 7.64327 13.2689C7.15011 13.2586 6.20146 12.9998 5.49623 12.7785C4.63124 12.507 3.94377 12.3635 4.00363 11.9026C4.03481 11.6625 4.37733 11.4169 5.03117 11.1659Z" />
	</symbol>



	<symbol id="book-icon" viewBox="0 0 24 24">
		<path
			d="M17.3162 6.00202L17.2909 5.50266L17.3162 6.00202ZM15.15 6.30153L15.0126 5.82077V5.82077L15.15 6.30153ZM12.6089 7.50352L12.3528 7.07408L12.6089 7.50352ZM6.73503 6.04917L6.6974 6.54775L6.73503 6.04917ZM8.5 6.30153L8.3779 6.7864L8.5 6.30153ZM11.3754 7.53089L11.1374 7.97066V7.97066L11.3754 7.53089ZM12.592 17.6663L12.8306 18.1057H12.8306L12.592 17.6663ZM15.5 16.4193L15.3779 15.9344L15.5 16.4193ZM17.2384 16.1689L17.2768 16.6675H17.2768L17.2384 16.1689ZM11.408 17.6663L11.1694 18.1057L11.408 17.6663ZM8.5 16.4193L8.6221 15.9344H8.6221L8.5 16.4193ZM6.76156 16.1689L6.72325 16.6675H6.72325L6.76156 16.1689ZM5.5 14.2857V7.77536H4.5V14.2857H5.5ZM19.5 14.2857V7.72131H18.5V14.2857H19.5ZM17.2909 5.50266C16.5628 5.53952 15.6996 5.6245 15.0126 5.82077L15.2874 6.7823C15.8613 6.61831 16.6318 6.53731 17.3415 6.50138L17.2909 5.50266ZM15.0126 5.82077C14.0907 6.08416 12.9996 6.6884 12.3528 7.07408L12.865 7.93296C13.5093 7.54873 14.5025 7.00653 15.2874 6.7823L15.0126 5.82077ZM6.6974 6.54775C7.28636 6.5922 7.9016 6.66645 8.3779 6.7864L8.6221 5.81667C8.0622 5.67567 7.37954 5.59639 6.77266 5.55058L6.6974 6.54775ZM8.3779 6.7864C9.27242 7.01166 10.4221 7.58365 11.1374 7.97066L11.6133 7.09112C10.8969 6.70357 9.65002 6.07553 8.6221 5.81667L8.3779 6.7864ZM12.8306 18.1057C13.5422 17.7193 14.7134 17.133 15.6221 16.9041L15.3779 15.9344C14.3346 16.1971 13.0652 16.8404 12.3534 17.2269L12.8306 18.1057ZM15.6221 16.9041C16.0912 16.786 16.6953 16.7122 17.2768 16.6675L17.2001 15.6704C16.6005 15.7165 15.9297 15.7955 15.3779 15.9344L15.6221 16.9041ZM11.6466 17.2269C10.9348 16.8404 9.66539 16.1971 8.6221 15.9344L8.3779 16.9041C9.28657 17.133 10.4578 17.7193 11.1694 18.1057L11.6466 17.2269ZM8.6221 15.9344C8.07032 15.7955 7.39953 15.7165 6.79987 15.6704L6.72325 16.6675C7.30465 16.7122 7.9088 16.786 8.3779 16.9041L8.6221 15.9344ZM18.5 14.2857C18.5 15.0148 17.9199 15.6151 17.2001 15.6704L17.2768 16.6675C18.495 16.5738 19.5 15.5596 19.5 14.2857H18.5ZM19.5 7.72131C19.5 6.50859 18.5568 5.43858 17.2909 5.50266L17.3415 6.50138C17.9542 6.47037 18.5 6.99544 18.5 7.72131H19.5ZM4.5 14.2857C4.5 15.5596 5.505 16.5738 6.72325 16.6675L6.79987 15.6704C6.08012 15.6151 5.5 15.0148 5.5 14.2857H4.5ZM12.3534 17.2269C12.1325 17.3469 11.8675 17.3469 11.6466 17.2269L11.1694 18.1057C11.6879 18.3873 12.3121 18.3873 12.8306 18.1057L12.3534 17.2269ZM12.3528 7.07408C12.1246 7.21017 11.8443 7.21608 11.6133 7.09112L11.1374 7.97066C11.6807 8.26455 12.3364 8.24821 12.865 7.93296L12.3528 7.07408ZM5.5 7.77536C5.5 7.03342 6.06919 6.50034 6.6974 6.54775L6.77266 5.55058C5.48338 5.45329 4.5 6.53573 4.5 7.77536H5.5ZM11.5 7.88225V18H12.5V7.88225H11.5Z" />
	</symbol>

	<symbol id="mail-mobile" viewBox="0 0 32 32">
		<path
			d="M5.33325 16C5.33325 11.9774 5.33325 9.96603 6.58293 8.71635C7.83261 7.46667 9.84393 7.46667 13.8666 7.46667H18.1333C22.1559 7.46667 24.1672 7.46667 25.4169 8.71635C26.6666 9.96603 26.6666 11.9774 26.6666 16C26.6666 20.0227 26.6666 22.034 25.4169 23.2837C24.1672 24.5333 22.1559 24.5333 18.1333 24.5333H13.8666C9.84393 24.5333 7.83261 24.5333 6.58293 23.2837C5.33325 22.034 5.33325 20.0227 5.33325 16Z"
			stroke-width="1.3" />
		<path
			d="M9.6001 11.7333L11.9029 13.6523C13.862 15.2849 14.8415 16.1011 16.0001 16.1011C17.1587 16.1011 18.1382 15.2849 20.0973 13.6523L22.4001 11.7333"
			stroke-width="1.3" stroke-linecap="round" />
	</symbol>

	<symbol id="code-icon" viewBox="0 0 24 24">
		<path
			d="M16.3198 8.27301L16.5315 8.48615C18.1772 10.1426 19 10.9708 19 12C19 13.0292 18.1772 13.8574 16.5315 15.5138L16.3198 15.727M13.5972 6L10.4028 18M7.68021 8.27301L7.46845 8.48615C5.82282 10.1426 5 10.9708 5 12C5 13.0292 5.82282 13.8574 7.46845 15.5138L7.68021 15.727"
			stroke-linecap="round" />
	</symbol>


	<symbol id="copy" viewBox="0 0 24 24">
		<path
			d="M7.2002 11.2C7.2002 8.93726 7.2002 7.80589 7.90314 7.10295C8.60608 6.4 9.73745 6.4 12.0002 6.4H14.4002C16.6629 6.4 17.7943 6.4 18.4973 7.10295C19.2002 7.80589 19.2002 8.93726 19.2002 11.2V15.2C19.2002 17.4627 19.2002 18.5941 18.4973 19.2971C17.7943 20 16.6629 20 14.4002 20H12.0002C9.73745 20 8.60608 20 7.90314 19.2971C7.2002 18.5941 7.2002 17.4627 7.2002 15.2V11.2Z"
			stroke-width="1.3" />
		<path
			d="M7.1998 17.6C5.87432 17.6 4.7998 16.5255 4.7998 15.2V10.4C4.7998 7.38301 4.7998 5.87452 5.73706 4.93726C6.67432 4 8.18282 4 11.1998 4H14.3998C15.7253 4 16.7998 5.07452 16.7998 6.4"
			stroke-width="1.3" />
	</symbol>

	<!-- <symbol id="search" viewBox="0 0 24 24">
		<circle cx="11.6" cy="11.6" r="7.6" />
		<path d="M17.1992 17.2L19.9992 20" stroke-linecap="round" />
	</symbol> -->
	<symbol id="search" viewBox="0 0 24 24">
		<path
			d="M18.4 18.4L20 20M19.2 11.6C19.2 15.7974 15.7974 19.2 11.6 19.2C7.40264 19.2 4 15.7974 4 11.6C4 7.40264 7.40264 4 11.6 4C15.7974 4 19.2 7.40264 19.2 11.6Z"
			stroke-width="1.5" stroke-linecap="round" />
	</symbol>



	<symbol id="like" viewBox="0 0 24 24">
		<path
			d="M19.1809 12.1482L18.6882 12.063L19.1809 12.1482ZM18.6165 15.412L18.1238 15.3268L18.6165 15.412ZM7.951 18.7817L7.45286 18.8247L7.951 18.7817ZM7.30127 11.2675L7.79941 11.2244L7.30127 11.2675ZM13.5967 6.57714L14.0902 6.65798V6.65798L13.5967 6.57714ZM13.0666 9.81278L13.56 9.89363H13.56L13.0666 9.81278ZM7.75929 10.142L7.4329 9.76322H7.4329L7.75929 10.142ZM8.91028 9.15016L9.23668 9.52892L9.23668 9.52892L8.91028 9.15016ZM10.8152 6.22699L10.3312 6.10145H10.3312L10.8152 6.22699ZM11.1958 4.75991L11.6798 4.88546L11.6798 4.88546L11.1958 4.75991ZM12.5349 4.05148L12.3819 4.52752L12.3819 4.52752L12.5349 4.05148ZM12.6508 4.08874L12.8038 3.6127L12.8038 3.6127L12.6508 4.08874ZM10.2903 7.57009L10.7314 7.80567L10.2903 7.57009ZM13.5245 4.99802L13.0405 5.12357V5.12357L13.5245 4.99802ZM11.7401 4.10591L11.5231 3.65548V3.65548L11.7401 4.10591ZM5.57806 19.5766L5.07992 19.6196H5.07992L5.57806 19.5766ZM4.80078 10.5874L5.29892 10.5443C5.27586 10.2775 5.04673 10.0763 4.77922 10.0878C4.51172 10.0994 4.30078 10.3196 4.30078 10.5874H4.80078ZM18.6882 12.063L18.1238 15.3268L19.1092 15.4972L19.6736 12.2334L18.6882 12.063ZM12.9968 19.5H9.27786V20.5H12.9968V19.5ZM8.44914 18.7386L7.79941 11.2244L6.80313 11.3106L7.45286 18.8247L8.44914 18.7386ZM18.1238 15.3268C17.7096 17.7217 15.5518 19.5 12.9968 19.5V20.5C16.0118 20.5 18.6076 18.3973 19.1092 15.4972L18.1238 15.3268ZM13.1033 6.49629L12.5732 9.73194L13.56 9.89363L14.0902 6.65798L13.1033 6.49629ZM8.08569 10.5208L9.23668 9.52892L8.58389 8.77139L7.4329 9.76322L8.08569 10.5208ZM11.2992 6.35254L11.6798 4.88546L10.7118 4.63436L10.3312 6.10145L11.2992 6.35254ZM12.3819 4.52752L12.4979 4.56478L12.8038 3.6127L12.6878 3.57544L12.3819 4.52752ZM10.7314 7.80567C10.9772 7.34538 11.1681 6.85789 11.2992 6.35254L10.3312 6.10145C10.2202 6.52968 10.0583 6.94334 9.84932 7.33451L10.7314 7.80567ZM12.4979 4.56478C12.7744 4.65361 12.9744 4.86854 13.0405 5.12357L14.0085 4.87247C13.8531 4.27328 13.394 3.80231 12.8038 3.6127L12.4979 4.56478ZM11.6798 4.88546C11.7154 4.7481 11.8135 4.62557 11.9572 4.55635L11.5231 3.65548C11.1231 3.84821 10.8236 4.20348 10.7118 4.63437L11.6798 4.88546ZM11.9572 4.55635C12.0882 4.49323 12.2416 4.48243 12.3819 4.52752L12.6878 3.57544C12.3043 3.45225 11.886 3.48062 11.5231 3.65548L11.9572 4.55635ZM13.7237 11.0874H17.8686V10.0874H13.7237V11.0874ZM6.0762 19.5335L5.29892 10.5443L4.30264 10.6304L5.07992 19.6196L6.0762 19.5335ZM5.30078 19.6102V10.5874H4.30078V19.6102H5.30078ZM5.07992 19.6196C5.07441 19.5559 5.12469 19.5 5.19015 19.5V20.5C5.71218 20.5 6.12109 20.0526 6.0762 19.5335L5.07992 19.6196ZM14.0902 6.65798C14.1875 6.06362 14.1597 5.45545 14.0085 4.87247L13.0405 5.12357C13.1568 5.57175 13.1782 6.03934 13.1033 6.49629L14.0902 6.65798ZM9.27786 19.5C8.84675 19.5 8.48643 19.1698 8.44914 18.7386L7.45286 18.8247C7.53476 19.772 8.32692 20.5 9.27786 20.5V19.5ZM9.23668 9.52892C9.77892 9.06166 10.3531 8.51381 10.7314 7.80567L9.84932 7.33451C9.56302 7.87047 9.1097 8.31828 8.58389 8.77139L9.23668 9.52892ZM19.6736 12.2334C19.8673 11.1132 19.0059 10.0874 17.8686 10.0874V11.0874C18.3841 11.0874 18.7764 11.5528 18.6882 12.063L19.6736 12.2334ZM5.19015 19.5C5.25178 19.5 5.30078 19.5499 5.30078 19.6102H4.30078C4.30078 20.1011 4.69843 20.5 5.19015 20.5V19.5ZM12.5732 9.73194C12.4569 10.4415 13.0038 11.0874 13.7237 11.0874V10.0874C13.622 10.0874 13.5433 9.99578 13.56 9.89363L12.5732 9.73194ZM7.79941 11.2244C7.77631 10.9573 7.88294 10.6955 8.08569 10.5208L7.4329 9.76322C6.98659 10.1478 6.75237 10.7236 6.80313 11.3106L7.79941 11.2244Z" />
	</symbol>

	<symbol id="dislike" viewBox="0 0 24 24">
		<path
			d="M19.1809 11.8518L18.6882 11.937L19.1809 11.8518ZM18.6165 8.58804L18.1238 8.67324L18.6165 8.58804ZM7.951 5.21834L7.45286 5.17527L7.951 5.21834ZM7.30127 12.7325L7.79941 12.7756L7.30127 12.7325ZM13.5967 17.4229L14.0902 17.342V17.342L13.5967 17.4229ZM13.0666 14.1872L13.56 14.1064H13.56L13.0666 14.1872ZM7.75929 13.858L7.4329 14.2368H7.4329L7.75929 13.858ZM8.91028 14.8498L9.23668 14.4711L9.23668 14.4711L8.91028 14.8498ZM10.8152 17.773L10.3312 17.8986H10.3312L10.8152 17.773ZM11.1958 19.2401L11.6798 19.1145L11.6798 19.1145L11.1958 19.2401ZM12.5349 19.9485L12.3819 19.4725L12.3819 19.4725L12.5349 19.9485ZM12.6508 19.9113L12.8038 20.3873L12.8038 20.3873L12.6508 19.9113ZM10.2903 16.4299L10.7314 16.1943L10.2903 16.4299ZM13.5245 19.002L13.0405 18.8764V18.8764L13.5245 19.002ZM11.7401 19.8941L11.5231 20.3445V20.3445L11.7401 19.8941ZM5.57806 4.42342L5.07992 4.38035H5.07992L5.57806 4.42342ZM4.80078 13.4126L5.29892 13.4557C5.27586 13.7225 5.04673 13.9237 4.77922 13.9122C4.51172 13.9006 4.30078 13.6804 4.30078 13.4126H4.80078ZM18.6882 11.937L18.1238 8.67324L19.1092 8.50284L19.6736 11.7666L18.6882 11.937ZM12.9968 4.5H9.27786V3.5H12.9968V4.5ZM8.44914 5.26142L7.79941 12.7756L6.80313 12.6894L7.45286 5.17527L8.44914 5.26142ZM18.1238 8.67324C17.7096 6.27825 15.5518 4.5 12.9968 4.5V3.5C16.0118 3.5 18.6076 5.60272 19.1092 8.50284L18.1238 8.67324ZM13.1033 17.5037L12.5732 14.2681L13.56 14.1064L14.0902 17.342L13.1033 17.5037ZM8.08569 13.4792L9.23668 14.4711L8.58389 15.2286L7.4329 14.2368L8.08569 13.4792ZM11.2992 17.6475L11.6798 19.1145L10.7118 19.3656L10.3312 17.8986L11.2992 17.6475ZM12.3819 19.4725L12.4979 19.4352L12.8038 20.3873L12.6878 20.4246L12.3819 19.4725ZM10.7314 16.1943C10.9772 16.6546 11.1681 17.1421 11.2992 17.6475L10.3312 17.8986C10.2202 17.4703 10.0583 17.0567 9.84932 16.6655L10.7314 16.1943ZM12.4979 19.4352C12.7744 19.3464 12.9744 19.1315 13.0405 18.8764L14.0085 19.1275C13.8531 19.7267 13.394 20.1977 12.8038 20.3873L12.4979 19.4352ZM11.6798 19.1145C11.7154 19.2519 11.8135 19.3744 11.9572 19.4437L11.5231 20.3445C11.1231 20.1518 10.8236 19.7965 10.7118 19.3656L11.6798 19.1145ZM11.9572 19.4437C12.0882 19.5068 12.2416 19.5176 12.3819 19.4725L12.6878 20.4246C12.3043 20.5477 11.886 20.5194 11.5231 20.3445L11.9572 19.4437ZM13.7237 12.9126H17.8686V13.9126H13.7237V12.9126ZM6.0762 4.4665L5.29892 13.4557L4.30264 13.3696L5.07992 4.38035L6.0762 4.4665ZM5.30078 4.38981V13.4126H4.30078V4.38981H5.30078ZM5.07992 4.38035C5.07441 4.4441 5.12469 4.5 5.19015 4.5V3.5C5.71218 3.5 6.12109 3.94735 6.0762 4.4665L5.07992 4.38035ZM14.0902 17.342C14.1875 17.9364 14.1597 18.5446 14.0085 19.1275L13.0405 18.8764C13.1568 18.4282 13.1782 17.9607 13.1033 17.5037L14.0902 17.342ZM9.27786 4.5C8.84675 4.5 8.48643 4.8302 8.44914 5.26142L7.45286 5.17527C7.53476 4.22802 8.32692 3.5 9.27786 3.5V4.5ZM9.23668 14.4711C9.77892 14.9383 10.3531 15.4862 10.7314 16.1943L9.84932 16.6655C9.56302 16.1295 9.1097 15.6817 8.58389 15.2286L9.23668 14.4711ZM19.6736 11.7666C19.8673 12.8868 19.0059 13.9126 17.8686 13.9126V12.9126C18.3841 12.9126 18.7764 12.4472 18.6882 11.937L19.6736 11.7666ZM5.19015 4.5C5.25178 4.5 5.30078 4.45013 5.30078 4.38981H4.30078C4.30078 3.89891 4.69843 3.5 5.19015 3.5V4.5ZM12.5732 14.2681C12.4569 13.5585 13.0038 12.9126 13.7237 12.9126V13.9126C13.622 13.9126 13.5433 14.0042 13.56 14.1064L12.5732 14.2681ZM7.79941 12.7756C7.77631 13.0427 7.88294 13.3045 8.08569 13.4792L7.4329 14.2368C6.98659 13.8522 6.75237 13.2764 6.80313 12.6894L7.79941 12.7756Z" />
	</symbol>

	<symbol id="checked" viewBox="0 0 24 24">
		<path d="m10 15.586-3.293-3.293-1.414 1.414L10 18.414l9.707-9.707-1.414-1.414z"></path>
	</symbol>

	<symbol id="check" viewBox="0 0 25 24">
		<circle cx="12.5" cy="12" r="8" />
		<path d="M9.7002 12.4L11.3002 14L15.3002 10" stroke-linecap="round" stroke-linejoin="round" />
	</symbol>


</svg>