<svg display="none" xmlns="http://www.w3.org/2000/svg">

	<symbol viewBox="0 0 24 24" id="burger-icon">
		<path d="M18.4 7L5.60002 7" stroke-width="1.3" stroke-linecap="round" />
		<path d="M18.4 12L5.59999 12" stroke-width="1.3" stroke-linecap="round" />
		<path d="M18.4 17L5.60002 17" stroke-width="1.3" stroke-linecap="round" />
	</symbol>

	<symbol id="mail" viewBox="0 0 24 24">
		<path
			d="M4 12.0001C4 8.98311 4 7.47461 4.93726 6.53736C5.87452 5.6001 7.38301 5.6001 10.4 5.6001H13.6C16.617 5.6001 18.1255 5.6001 19.0627 6.53736C20 7.47461 20 8.98311 20 12.0001C20 15.0171 20 16.5256 19.0627 17.4628C18.1255 18.4001 16.617 18.4001 13.6 18.4001H10.4C7.38301 18.4001 5.87452 18.4001 4.93726 17.4628C4 16.5256 4 15.0171 4 12.0001Z"
			stroke-width="1.35" />
		<path
			d="M7.20001 8.80005L8.92713 10.2393C10.3964 11.4637 11.1311 12.0759 12 12.0759C12.8689 12.0759 13.6036 11.4637 15.0729 10.2393L16.8 8.80005"
			stroke-width="1.35" stroke-linecap="round" />
	</symbol>

	<symbol id="phone" viewBox="0 0 24 24">
		<path
			d="M11.2301 5.85299L11.7493 6.78333C12.2178 7.62291 12.0297 8.72431 11.2918 9.46229C11.2918 9.46229 11.2918 9.46229 11.2918 9.46229C11.2916 9.46241 10.3967 10.3575 12.0196 11.9804C13.6418 13.6027 14.5369 12.7091 14.5378 12.7083C14.5378 12.7083 14.5378 12.7083 14.5378 12.7082C15.2758 11.9703 16.3771 11.7822 17.2167 12.2508L18.1471 12.77C19.4148 13.4775 19.5646 15.2554 18.4502 16.3698C17.7806 17.0394 16.9603 17.5604 16.0535 17.5948C14.527 17.6527 11.9346 17.2663 9.33416 14.6659C6.7337 12.0654 6.34737 9.47303 6.40524 7.94652C6.43961 7.03973 6.96064 6.21944 7.63024 5.54983C8.7446 4.43547 10.5225 4.5852 11.2301 5.85299Z"
			stroke-width="1.35" stroke-linecap="round" />
	</symbol>

	<symbol id="link-arrow" viewBox="0 0 16 16">
		<path d="M4.8 4.80005L11.2 11.2M11.2 11.2L11.2 6.40005M11.2 11.2L6.4 11.2" stroke-width="1.3" stroke-linecap="round"
			stroke-linejoin="round" />
	</symbol>

	<symbol id="arrow-bottom" viewBox="0 0 16 16">
		<path d="M11.7333 6.3999L7.99993 9.5999L4.2666 6.3999" stroke-width="1.3" />
	</symbol>

	<symbol id="share-icon" viewBox="0 0 24 24">
		<path
			d="M9.6001 12C9.6001 13.1046 8.70467 14 7.6001 14C6.49553 14 5.6001 13.1046 5.6001 12C5.6001 10.8954 6.49553 10 7.6001 10C8.70467 10 9.6001 10.8954 9.6001 12Z"
			stroke-width="1.3" />
		<path d="M13.6001 7.6001L9.6001 10.4001" stroke-width="1.3" stroke-linecap="round" />
		<path d="M13.6001 16.3999L9.6001 13.5999" stroke-width="1.3" stroke-linecap="round" />
		<path
			d="M17.6001 17.2C17.6001 18.3045 16.7047 19.2 15.6001 19.2C14.4955 19.2 13.6001 18.3045 13.6001 17.2C13.6001 16.0954 14.4955 15.2 15.6001 15.2C16.7047 15.2 17.6001 16.0954 17.6001 17.2Z"
			stroke-width="1.3" />
		<path
			d="M17.6001 6.80005C17.6001 7.90462 16.7047 8.80005 15.6001 8.80005C14.4955 8.80005 13.6001 7.90462 13.6001 6.80005C13.6001 5.69548 14.4955 4.80005 15.6001 4.80005C16.7047 4.80005 17.6001 5.69548 17.6001 6.80005Z"
			stroke-width="1.3" />
	</symbol>

	<symbol id="star" viewBox="0 0 18 17">
		<path
			d="M8.52447 0.463525C8.67415 0.00287008 9.32585 0.00287008 9.47553 0.463525L11.1329 5.56434C11.1998 5.77035 11.3918 5.90983 11.6084 5.90983H16.9717C17.4561 5.90983 17.6575 6.52964 17.2656 6.81434L12.9266 9.96681C12.7514 10.0941 12.678 10.3198 12.745 10.5258L14.4023 15.6266C14.552 16.0873 14.0248 16.4704 13.6329 16.1857L9.29389 13.0332C9.11865 12.9059 8.88135 12.9059 8.70611 13.0332L4.3671 16.1857C3.97524 16.4704 3.448 16.0873 3.59768 15.6266L5.25503 10.5258C5.32197 10.3198 5.24864 10.0941 5.07339 9.96681L0.734384 6.81434C0.342527 6.52964 0.543915 5.90983 1.02828 5.90983H6.39159C6.6082 5.90983 6.80018 5.77035 6.86712 5.56434L8.52447 0.463525Z" />
	</symbol>

	<symbol id="close" viewBox="0 0 24 24">
		<path d="M18 6.00005L6 18M5.99995 6L17.9999 18" stroke-width="1.3" stroke-linecap="round" />
	</symbol>

	<symbol id="burger" viewBox="0 0 24 24">
		<path d="M18.4 7L5.60002 7" stroke-width="1.3" stroke-linecap="round" />
		<path d="M18.4 12L5.59999 12" stroke-width="1.3" stroke-linecap="round" />
		<path d="M18.4 17L5.60002 17" stroke-width="1.3" stroke-linecap="round" />
	</symbol>

	<symbol id="catalog-icon" viewBox="0 0 24 24">
		<path fill-rule="evenodd" clip-rule="evenodd"
			d="M9.89072 4.21867C10.2118 4.37921 10.342 4.76965 10.1814 5.09073L9.05114 7.35127C9.31676 7.35004 9.59466 7.35004 9.88502 7.35004H14.115C14.4054 7.35004 14.6833 7.35004 14.9489 7.35127L13.8187 5.09073C13.6581 4.76965 13.7883 4.37921 14.1093 4.21867C14.4304 4.05812 14.8209 4.18827 14.9814 4.50936L16.419 7.38458C16.751 7.40206 17.0548 7.42839 17.331 7.46804C18.1813 7.59013 18.895 7.85398 19.4031 8.48258C19.9113 9.11117 20.0198 9.86431 19.961 10.7213C19.9042 11.5499 19.6806 12.5931 19.4025 13.8906L19.04 15.5822C18.8526 16.457 18.6996 17.1711 18.5067 17.7299C18.3051 18.314 18.0374 18.8 17.5773 19.1719C17.1172 19.5439 16.5859 19.7038 15.9725 19.7786C15.3857 19.8501 14.6555 19.8501 13.7608 19.85H10.2393C9.3446 19.8501 8.61432 19.8501 8.02757 19.7786C7.41419 19.7038 6.88288 19.5439 6.42276 19.1719C5.96264 18.8 5.69494 18.314 5.49333 17.7299C5.30047 17.1711 5.14747 16.457 4.96002 15.5822L4.59754 13.8906C4.31948 12.5931 4.09591 11.5499 4.03908 10.7213C3.98029 9.86431 4.08875 9.11117 4.59692 8.48258C5.10509 7.85398 5.81878 7.59013 6.66909 7.46804C6.94525 7.42839 7.24904 7.40206 7.58104 7.38458L9.01865 4.50936C9.1792 4.18827 9.56963 4.05812 9.89072 4.21867ZM6.89907 8.74853C6.88388 8.75059 6.86881 8.75269 6.85385 8.75484C6.15247 8.85555 5.82016 9.03728 5.60788 9.29986C5.40401 9.55205 5.29626 9.89688 5.33101 10.55H18.6691C18.7038 9.89688 18.5961 9.55205 18.3922 9.29986C18.1799 9.03728 17.8476 8.85555 17.1462 8.75484C17.1313 8.75269 17.1162 8.75059 17.101 8.74853L17.3814 9.30936C17.542 9.63044 17.4118 10.0209 17.0907 10.1814C16.7696 10.342 16.3792 10.2118 16.2187 9.89073L15.6024 8.65822C15.1544 8.65032 14.6452 8.65004 14.0625 8.65004H9.93757C9.35491 8.65004 8.84563 8.65032 8.39767 8.65822L7.78141 9.89073C7.62087 10.2118 7.23043 10.342 6.90934 10.1814C6.58826 10.0209 6.45811 9.63044 6.61865 9.30936L6.89907 8.74853ZM18.4945 11.85H5.50558C5.60008 12.3627 5.72777 12.9606 5.87969 13.6696L6.22255 15.2696C6.42073 16.1944 6.55819 16.8306 6.72219 17.3057C6.88038 17.764 7.04011 17.9993 7.24004 18.161C7.43998 18.3226 7.70354 18.4295 8.18482 18.4881C8.68377 18.5489 9.33457 18.55 10.2804 18.55H13.7196C14.6655 18.55 15.3163 18.5489 15.8152 18.4881C16.2965 18.4295 16.5601 18.3226 16.76 18.161C16.96 17.9993 17.1197 17.764 17.2779 17.3057C17.4419 16.8306 17.5793 16.1944 17.7775 15.2696L18.1204 13.6696C18.2723 12.9606 18.4 12.3627 18.4945 11.85ZM9.75003 13.6C9.75003 13.2411 10.041 12.95 10.4 12.95H13.6C13.959 12.95 14.25 13.2411 14.25 13.6C14.25 13.959 13.959 14.25 13.6 14.25H10.4C10.041 14.25 9.75003 13.959 9.75003 13.6Z" />
	</symbol>



	<symbol id="clients-icon" viewBox="0 0 24 24">
		<path fill-rule="evenodd" clip-rule="evenodd"
			d="M9.07791 14.013C9.29168 13.7246 9.69877 13.6641 9.98716 13.8779C10.5617 14.3038 11.2547 14.5501 12.0001 14.5501C12.7455 14.5501 13.4385 14.3038 14.013 13.8779C14.3014 13.6641 14.7085 13.7246 14.9223 14.013C15.1361 14.3014 15.0756 14.7085 14.7872 14.9223C14.0011 15.5049 13.0394 15.8501 12.0001 15.8501C10.9608 15.8501 9.9991 15.5049 9.21303 14.9223C8.92464 14.7085 8.86414 14.3014 9.07791 14.013Z" />
		<path
			d="M15.2001 10.0001C15.2001 10.6628 14.8419 11.2001 14.4001 11.2001C13.9583 11.2001 13.6001 10.6628 13.6001 10.0001C13.6001 9.33736 13.9583 8.8001 14.4001 8.8001C14.8419 8.8001 15.2001 9.33736 15.2001 10.0001Z" />
		<path
			d="M10.4001 10.0001C10.4001 10.6628 10.0419 11.2001 9.6001 11.2001C9.15827 11.2001 8.8001 10.6628 8.8001 10.0001C8.8001 9.33736 9.15827 8.8001 9.6001 8.8001C10.0419 8.8001 10.4001 9.33736 10.4001 10.0001Z" />
		<path fill-rule="evenodd" clip-rule="evenodd"
			d="M3.3501 12.2406C3.3501 7.34878 7.20482 3.3501 12.0001 3.3501C16.7954 3.3501 20.6501 7.34878 20.6501 12.2406V18.1785C20.6501 19.6906 19.0827 20.7397 17.7031 20.0292C17.1742 19.7568 16.5454 19.7963 16.0511 20.1358C15.0525 20.8215 13.7477 20.8215 12.7491 20.1358L12.4669 19.942C12.1831 19.7471 11.8171 19.7471 11.5333 19.942L11.2511 20.1358C10.2525 20.8215 8.94771 20.8215 7.94905 20.1358C7.45479 19.7963 6.82596 19.7568 6.29707 20.0292C4.9175 20.7397 3.3501 19.6906 3.3501 18.1785V12.2406ZM12.0001 4.6501C7.95882 4.6501 4.6501 8.03019 4.6501 12.2406V18.1785C4.6501 18.7821 5.24426 19.1091 5.70184 18.8734C6.65784 18.3811 7.79788 18.4549 8.68496 19.0641C9.24025 19.4454 9.95994 19.4454 10.5152 19.0641L10.7974 18.8704C11.5245 18.371 12.4756 18.371 13.2028 18.8704L13.485 19.0641C14.0403 19.4454 14.7599 19.4454 15.3152 19.0641C16.2023 18.4549 17.3424 18.3811 18.2984 18.8734C18.7559 19.1091 19.3501 18.7821 19.3501 18.1785V12.2406C19.3501 8.03019 16.0414 4.6501 12.0001 4.6501Z" />
	</symbol>



	<symbol id="phone-mobile" viewBox="0 0 32 32">
		<path
			d="M14.8301 11.0529L15.3493 11.9833C15.8178 12.8229 15.6297 13.9243 14.8918 14.6622C14.8918 14.6622 14.8918 14.6622 14.8918 14.6622C14.8917 14.6624 13.9967 15.5575 15.6196 17.1804C17.2418 18.8026 18.1369 17.909 18.1378 17.9082C18.1378 17.9082 18.1378 17.9082 18.1378 17.9082C18.8758 17.1702 19.9771 16.9822 20.8167 17.4507L21.7471 17.9699C23.0148 18.6775 23.1646 20.4554 22.0502 21.5698C21.3806 22.2394 20.5603 22.7604 19.6535 22.7948C18.127 22.8526 15.5346 22.4663 12.9342 19.8658C10.3337 17.2654 9.94737 14.673 10.0052 13.1465C10.0396 12.2397 10.5606 11.4194 11.2302 10.7498C12.3446 9.63543 14.1225 9.78515 14.8301 11.0529Z"
			stroke-width="1.3" stroke-linecap="round" />
	</symbol>

	<symbol id="tg-mobile" viewBox="0 0 32 32">
		<path fill-rule="evenodd" clip-rule="evenodd"
			d="M10.0312 15.1659C14.0577 13.4724 16.7427 12.356 18.0861 11.8166C21.9219 10.2765 22.7189 10.0089 23.2384 10.0001C23.3527 9.99815 23.6082 10.0255 23.7737 10.1551C23.9134 10.2646 23.9518 10.4124 23.9702 10.5162C23.9886 10.62 24.0115 10.8564 23.9933 11.0411C23.7855 13.1494 22.8861 18.2657 22.4285 20.6271C22.2349 21.6262 21.8536 21.9613 21.4845 21.9941C20.6824 22.0653 20.0734 21.4823 19.2965 20.9908C18.0809 20.2215 17.3941 19.7426 16.2141 18.992C14.8504 18.1245 15.7344 17.6477 16.5116 16.8685C16.715 16.6646 20.249 13.5615 20.3174 13.28C20.326 13.2448 20.3339 13.1136 20.2532 13.0443C20.1724 12.975 20.0532 12.9987 19.9672 13.0175C19.8453 13.0442 17.9033 14.2833 14.1411 16.7348C13.5899 17.1002 13.0906 17.2783 12.6433 17.2689C12.1501 17.2586 11.2015 16.9998 10.4962 16.7785C9.63124 16.507 8.94377 16.3635 9.00363 15.9026C9.03481 15.6625 9.37733 15.4169 10.0312 15.1659Z"
			stroke-width="1.3" />
	</symbol>

	<symbol id="mail-mobile" viewBox="0 0 32 32">
		<path
			d="M5.33325 16C5.33325 11.9774 5.33325 9.96603 6.58293 8.71635C7.83261 7.46667 9.84393 7.46667 13.8666 7.46667H18.1333C22.1559 7.46667 24.1672 7.46667 25.4169 8.71635C26.6666 9.96603 26.6666 11.9774 26.6666 16C26.6666 20.0227 26.6666 22.034 25.4169 23.2837C24.1672 24.5333 22.1559 24.5333 18.1333 24.5333H13.8666C9.84393 24.5333 7.83261 24.5333 6.58293 23.2837C5.33325 22.034 5.33325 20.0227 5.33325 16Z"
			stroke-width="1.3" />
		<path
			d="M9.6001 11.7333L11.9029 13.6523C13.862 15.2849 14.8415 16.1011 16.0001 16.1011C17.1587 16.1011 18.1382 15.2849 20.0973 13.6523L22.4001 11.7333"
			stroke-width="1.3" stroke-linecap="round" />
	</symbol>

	<symbol id="copy" viewBox="0 0 24 24">
		<path
			d="M7.2002 11.2C7.2002 8.93726 7.2002 7.80589 7.90314 7.10295C8.60608 6.4 9.73745 6.4 12.0002 6.4H14.4002C16.6629 6.4 17.7943 6.4 18.4973 7.10295C19.2002 7.80589 19.2002 8.93726 19.2002 11.2V15.2C19.2002 17.4627 19.2002 18.5941 18.4973 19.2971C17.7943 20 16.6629 20 14.4002 20H12.0002C9.73745 20 8.60608 20 7.90314 19.2971C7.2002 18.5941 7.2002 17.4627 7.2002 15.2V11.2Z"
			stroke-width="1.3" />
		<path
			d="M7.1998 17.6C5.87432 17.6 4.7998 16.5255 4.7998 15.2V10.4C4.7998 7.38301 4.7998 5.87452 5.73706 4.93726C6.67432 4 8.18282 4 11.1998 4H14.3998C15.7253 4 16.7998 5.07452 16.7998 6.4"
			stroke-width="1.3" />
	</symbol>

</svg>