<svg width="24" height="24" viewBox="0 0 24 24" fill="none" xmlns="http://www.w3.org/2000/svg">
<path opacity="0.5" d="M4 12C4 7.58172 7.58172 4 12 4C16.4183 4 20 7.58172 20 12C20 16.4183 16.4183 20 12 20C7.58172 20 4 16.4183 4 12Z" fill="#F2994A"/>
<path d="M10.6924 9.50869L9.46749 11.1659C8.95361 11.8612 8.69666 12.2088 8.83824 12.4822L8.84548 12.4957C8.99546 12.7648 9.43924 12.7648 10.3268 12.7648C10.82 12.7648 11.0666 12.7648 11.2213 12.9103L11.2293 12.918C11.3807 13.0666 11.3807 13.3036 11.3807 13.7775L11.3807 13.9013L11.3807 13.9013C11.3807 15.2152 11.3807 15.8721 11.75 15.9853C12.1194 16.0985 12.5152 15.5629 13.307 14.4916L13.307 14.4916L14.5319 12.8344C15.0458 12.1391 15.3027 11.7915 15.1611 11.5182L15.1539 11.5047C15.0039 11.2355 14.5601 11.2355 13.6726 11.2355C13.1794 11.2355 12.9328 11.2355 12.7781 11.09L12.7701 11.0823C12.6187 10.9337 12.6187 10.6968 12.6187 10.2229L12.6187 10.099C12.6187 8.78516 12.6187 8.12823 12.2493 8.01504C11.88 7.90186 11.4841 8.43747 10.6924 9.50869Z" fill="#F2994A"/>
</svg>
