<svg width="24" height="24" viewBox="0 0 24 24" fill="none" xmlns="http://www.w3.org/2000/svg">
<path fill-rule="evenodd" clip-rule="evenodd" d="M2.8749 10.8184C8.24359 8.4193 11.8236 6.83767 13.6148 6.0735C18.7292 3.89166 19.7919 3.51265 20.4846 3.50013C20.6369 3.49738 20.9776 3.53611 21.1982 3.71974C21.3845 3.8748 21.4358 4.08426 21.4603 4.23128C21.4848 4.37829 21.5154 4.71319 21.4911 4.97487C21.214 7.96165 20.0147 15.2098 19.4046 18.555C19.1465 19.9705 18.6382 20.4451 18.1461 20.4916C17.0766 20.5925 16.2645 19.7667 15.2287 19.0702C13.6078 17.9805 12.6921 17.3021 11.1188 16.2387C9.30053 15.0097 10.4792 14.3343 11.5155 13.2304C11.7866 12.9415 16.4987 8.54547 16.5899 8.14668C16.6013 8.09681 16.6119 7.91089 16.5042 7.81273C16.3965 7.71456 16.2376 7.74813 16.1229 7.77483C15.9604 7.81267 13.371 9.56807 8.35486 13.041C7.61988 13.5587 6.95416 13.8109 6.3577 13.7977C5.70015 13.7831 4.43528 13.4163 3.49498 13.1028C2.34166 12.7183 1.42503 12.515 1.50485 11.862C1.54642 11.5218 2.0031 11.174 2.8749 10.8184Z" fill="#161616"/>
</svg>
