<svg width="25" height="24" viewBox="0 0 25 24" fill="none" xmlns="http://www.w3.org/2000/svg">
<path d="M5.30078 10.7333C5.30078 8.17526 5.30078 6.89622 5.60279 6.46593C5.90481 6.03563 7.10744 5.62397 9.51271 4.80063L9.97096 4.64377C11.2248 4.21459 11.8517 4 12.5008 4C13.1499 4 13.7768 4.21459 15.0306 4.64377L15.4889 4.80063C17.8941 5.62397 19.0968 6.03563 19.3988 6.46593C19.7008 6.89622 19.7008 8.17526 19.7008 10.7333C19.7008 11.1197 19.7008 11.5387 19.7008 11.9931C19.7008 16.5035 16.3096 18.6924 14.1819 19.6218C13.6048 19.8739 13.3162 20 12.5008 20C11.6854 20 11.3968 19.8739 10.8196 19.6218C8.69195 18.6924 5.30078 16.5035 5.30078 11.9931C5.30078 11.5387 5.30078 11.1197 5.30078 10.7333Z" stroke="#219653"/>
<path d="M10.5 12.3199L11.6429 13.5999L14.5 10.3999" stroke="#219653" stroke-linecap="round" stroke-linejoin="round"/>
</svg>
