<svg width="24" height="24" viewBox="0 0 24 24" fill="none" xmlns="http://www.w3.org/2000/svg">
  <g filter="url(#filter0_i_8328_7295)">
    <path fill-rule="evenodd" clip-rule="evenodd"
      d="M12.046 3.09766C14.4096 3.09821 16.6303 4.01543 18.3009 5.68015C19.9716 7.34487 20.8905 9.5578 20.8899 11.9109C20.8882 16.7671 16.9195 20.7179 12.0432 20.7179H12.0398C10.4521 20.7174 8.89468 20.2931 7.53683 19.4903L7.21335 19.2994L3.86471 20.1736L4.75891 16.924L4.54811 16.5907C3.66232 15.1878 3.19475 13.5678 3.19531 11.9036C3.19756 7.04788 7.16626 3.09766 12.046 3.09766ZM8.8258 6.89678C9.01585 6.90459 9.22553 6.91353 9.42455 7.35455C9.56361 7.66233 9.7995 8.24165 9.98368 8.69396C10.1129 9.0112 10.2166 9.26596 10.2436 9.32073C10.3103 9.45304 10.3546 9.60767 10.2661 9.78464C10.2527 9.81125 10.2403 9.83637 10.2285 9.86036C10.1621 9.99541 10.1131 10.0949 10.0003 10.2262C9.95482 10.279 9.90782 10.3358 9.8609 10.3926C9.77023 10.5024 9.67984 10.6118 9.60115 10.6901C9.46772 10.8224 9.32924 10.9659 9.48454 11.2305C9.63983 11.4957 10.1736 12.3627 10.964 13.0644C11.8131 13.818 12.5507 14.1369 12.9254 14.2989C12.9993 14.3308 13.0591 14.3567 13.1028 14.3785C13.3686 14.5114 13.5239 14.4891 13.6792 14.3121C13.8345 14.1357 14.3441 13.5389 14.5212 13.2743C14.699 13.0091 14.8761 13.0532 15.12 13.1414C15.3639 13.2296 16.6718 13.87 16.9376 14.0028C16.9904 14.0293 17.0398 14.0531 17.0855 14.0751C17.2694 14.1637 17.3937 14.2236 17.4472 14.3121C17.5133 14.4226 17.5133 14.9524 17.2919 15.571C17.0704 16.1895 15.9845 16.7857 15.4967 16.8298C15.4498 16.8341 15.4032 16.8395 15.3553 16.8451C14.9045 16.8979 14.3355 16.9644 12.3051 16.1672C9.80657 15.1859 8.15904 12.7544 7.8188 12.2523C7.7909 12.2111 7.77179 12.1829 7.76172 12.1695L7.75992 12.1671C7.62047 11.982 6.67578 10.7279 6.67578 9.43071C6.67578 8.21162 7.27747 7.5726 7.55468 7.2782C7.57375 7.25794 7.59129 7.23931 7.60699 7.22224C7.85086 6.95707 8.13903 6.89064 8.31619 6.89064C8.32885 6.89064 8.34151 6.89063 8.35417 6.89063C8.51856 6.89059 8.6816 6.89056 8.8258 6.89678Z"
      fill="#161616" />
  </g>
  <defs>
    <filter id="filter0_i_8328_7295" x="3.19531" y="3.09766" width="17.6953" height="17.8201"
      filterUnits="userSpaceOnUse" color-interpolation-filters="sRGB">
      <feFlood flood-opacity="0" result="BackgroundImageFix" />
      <feBlend mode="normal" in="SourceGraphic" in2="BackgroundImageFix" result="shape" />
      <feColorMatrix in="SourceAlpha" type="matrix" values="0 0 0 0 0 0 0 0 0 0 0 0 0 0 0 0 0 0 127 0"
        result="hardAlpha" />
      <feOffset dy="0.2" />
      <feGaussianBlur stdDeviation="0.1" />
      <feComposite in2="hardAlpha" operator="arithmetic" k2="-1" k3="1" />
      <feColorMatrix type="matrix" values="0 0 0 0 0.263875 0 0 0 0 0.604167 0 0 0 0 0.206424 0 0 0 0.3 0" />
      <feBlend mode="normal" in2="shape" result="effect1_innerShadow_8328_7295" />
    </filter>
  </defs>
</svg>