<svg width="24" height="24" viewBox="0 0 24 24" fill="none" xmlns="http://www.w3.org/2000/svg">
<g filter="url(#filter0_i_6301_28)">
<path fill-rule="evenodd" clip-rule="evenodd" d="M12.047 3.09766C14.4106 3.09821 16.6312 4.01543 18.3019 5.68015C19.9726 7.34487 20.8915 9.5578 20.8909 11.9109C20.8892 16.7671 16.9205 20.7179 12.0442 20.7179H12.0408C10.4531 20.7174 8.89565 20.2931 7.53781 19.4903L7.21433 19.2994L3.86568 20.1736L4.75989 16.924L4.54909 16.5907C3.66329 15.1878 3.19573 13.5678 3.19629 11.9036C3.19853 7.04788 7.16723 3.09766 12.047 3.09766ZM8.82677 6.89678C9.01683 6.90459 9.2265 6.91353 9.42553 7.35455C9.56458 7.66233 9.80048 8.24165 9.98466 8.69396C10.1138 9.0112 10.2176 9.26596 10.2446 9.32073C10.3113 9.45304 10.3556 9.60767 10.267 9.78464C10.2537 9.81125 10.2413 9.83637 10.2295 9.86036C10.1631 9.9954 10.1141 10.0949 10.0013 10.2262C9.95579 10.279 9.9088 10.3358 9.86188 10.3926C9.7712 10.5024 9.68082 10.6118 9.60213 10.6901C9.4687 10.8224 9.33022 10.9659 9.48551 11.2305C9.64081 11.4957 10.1745 12.3627 10.965 13.0644C11.8141 13.818 12.5516 14.1369 12.9264 14.2989C13.0003 14.3308 13.0601 14.3567 13.1038 14.3785C13.3696 14.5114 13.5249 14.4891 13.6801 14.3121C13.8354 14.1357 14.3451 13.5389 14.5222 13.2743C14.6999 13.0091 14.8771 13.0532 15.121 13.1414C15.3648 13.2296 16.6728 13.87 16.9385 14.0028C16.9914 14.0293 17.0408 14.0531 17.0865 14.0751C17.2704 14.1637 17.3947 14.2236 17.4481 14.3121C17.5143 14.4226 17.5143 14.9524 17.2928 15.571C17.0714 16.1895 15.9855 16.7857 15.4977 16.8298C15.4508 16.8341 15.4042 16.8395 15.3563 16.8451C14.9055 16.8979 14.3365 16.9644 12.306 16.1672C9.80754 15.1859 8.16001 12.7544 7.81977 12.2523C7.79188 12.2111 7.77277 12.1829 7.7627 12.1695L7.76089 12.1671C7.62144 11.982 6.67676 10.7279 6.67676 9.43071C6.67676 8.21161 7.27844 7.5726 7.55565 7.27819C7.57473 7.25794 7.59226 7.23931 7.60796 7.22224C7.85184 6.95707 8.14 6.89064 8.31716 6.89064C8.32983 6.89064 8.34249 6.89063 8.35515 6.89063C8.51954 6.89059 8.68258 6.89056 8.82677 6.89678Z" fill="#161616"/>
</g>
<defs>
<filter id="filter0_i_6301_28" x="3.19629" y="3.09766" width="17.6946" height="17.8201" filterUnits="userSpaceOnUse" color-interpolation-filters="sRGB">
<feFlood flood-opacity="0" result="BackgroundImageFix"/>
<feBlend mode="normal" in="SourceGraphic" in2="BackgroundImageFix" result="shape"/>
<feColorMatrix in="SourceAlpha" type="matrix" values="0 0 0 0 0 0 0 0 0 0 0 0 0 0 0 0 0 0 127 0" result="hardAlpha"/>
<feOffset dy="0.2"/>
<feGaussianBlur stdDeviation="0.1"/>
<feComposite in2="hardAlpha" operator="arithmetic" k2="-1" k3="1"/>
<feColorMatrix type="matrix" values="0 0 0 0 0.263875 0 0 0 0 0.604167 0 0 0 0 0.206424 0 0 0 0.3 0"/>
<feBlend mode="normal" in2="shape" result="effect1_innerShadow_6301_28"/>
</filter>
</defs>
</svg>
